%FSLAX25Y25*%
%MOIN*%
G70*
G01*
G75*
G04 Layer_Color=32896*
%ADD10C,0.01000*%
%ADD11C,0.02000*%
%ADD12C,0.02500*%
%ADD13C,0.00787*%
%ADD14C,0.07874*%
%ADD15R,0.07874X0.07874*%
%ADD16C,0.12205*%
%ADD17C,0.09843*%
%ADD18C,0.02500*%
%ADD19R,0.02362X0.08661*%
%ADD20R,0.08661X0.02362*%
%ADD21O,0.02992X0.09449*%
%ADD22R,0.02992X0.09449*%
%ADD23R,0.08000X0.06500*%
%ADD24R,0.08500X0.07000*%
%ADD25R,0.08100X0.06700*%
%ADD26R,0.08900X0.07700*%
%ADD27R,0.08200X0.07100*%
%ADD28C,0.00300*%
%ADD29C,0.00500*%
%ADD30C,0.08474*%
%ADD31R,0.08474X0.08474*%
%ADD32C,0.12805*%
%ADD33C,0.10443*%
%ADD34C,0.03100*%
%ADD35R,0.02962X0.09261*%
%ADD36R,0.09261X0.02962*%
%ADD37O,0.03592X0.10049*%
%ADD38R,0.03592X0.10049*%
%ADD39C,0.00984*%
D10*
X-20800Y13149D02*
Y12149D01*
X-22799Y10149D01*
X-24799Y12149D01*
Y13149D01*
X-22799Y10149D02*
Y7150D01*
X-26798Y11149D02*
Y8150D01*
X-27798Y7150D01*
X-30797D01*
Y11149D01*
X-32796Y10149D02*
X-36795D01*
X-38794Y13149D02*
Y12149D01*
X-40793Y10149D01*
X-42793Y12149D01*
Y13149D01*
X-40793Y10149D02*
Y7150D01*
X-45792Y11149D02*
X-47791D01*
X-48791Y10149D01*
Y7150D01*
X-45792D01*
X-44792Y8150D01*
X-45792Y9150D01*
X-48791D01*
X-50790Y7150D02*
Y11149D01*
X-53789D01*
X-54789Y10149D01*
Y7150D01*
X-58788Y5151D02*
X-59787D01*
X-60787Y6151D01*
Y11149D01*
X-57788D01*
X-56788Y10149D01*
Y8150D01*
X-57788Y7150D01*
X-60787D01*
X-68784Y13149D02*
Y7150D01*
X-72783D01*
X-74783D02*
X-76782D01*
X-75782D01*
Y11149D01*
X-74783D01*
X-79781Y7150D02*
Y11149D01*
X-82780D01*
X-83780Y10149D01*
Y7150D01*
X-24499Y20449D02*
X-23499Y21449D01*
X-21500D01*
X-20500Y20449D01*
Y16450D01*
X-21500Y15450D01*
X-23499D01*
X-24499Y16450D01*
X-26498Y21449D02*
Y15450D01*
Y18450D01*
X-27498Y19449D01*
X-29497D01*
X-30497Y18450D01*
Y15450D01*
X-32496Y19449D02*
Y16450D01*
X-33496Y15450D01*
X-36495D01*
Y19449D01*
X-38494Y15450D02*
Y19449D01*
X-41493D01*
X-42493Y18450D01*
Y15450D01*
X-46492Y13451D02*
X-47491D01*
X-48491Y14451D01*
Y19449D01*
X-45492D01*
X-44492Y18450D01*
Y16450D01*
X-45492Y15450D01*
X-48491D01*
X-50490Y18450D02*
X-54489D01*
X-56488Y21449D02*
Y20449D01*
X-58488Y18450D01*
X-60487Y20449D01*
Y21449D01*
X-58488Y18450D02*
Y15450D01*
X-62486D02*
X-64486D01*
X-63486D01*
Y19449D01*
X-62486D01*
X-67485Y15450D02*
Y19449D01*
X-70484D01*
X-71483Y18450D01*
Y15450D01*
X-75482Y13451D02*
X-76482D01*
X-77482Y14451D01*
Y19449D01*
X-74483D01*
X-73483Y18450D01*
Y16450D01*
X-74483Y15450D01*
X-77482D01*
X-85479Y21449D02*
Y15450D01*
Y18450D01*
X-89478D01*
Y21449D01*
Y15450D01*
X-91477Y19449D02*
Y16450D01*
X-92477Y15450D01*
X-95476D01*
Y19449D01*
X-98475D02*
X-100474D01*
X-101474Y18450D01*
Y15450D01*
X-98475D01*
X-97475Y16450D01*
X-98475Y17450D01*
X-101474D01*
X-103473Y15450D02*
Y19449D01*
X-106472D01*
X-107472Y18450D01*
Y15450D01*
X-111470Y13451D02*
X-112470D01*
X-113470Y14451D01*
Y19449D01*
X-110471D01*
X-109471Y18450D01*
Y16450D01*
X-110471Y15450D01*
X-113470D01*
D13*
X-161351Y61427D02*
G03*
X-161351Y58927I0J-1250D01*
G01*
X-174493Y151495D02*
X-154808D01*
X-174493Y144606D02*
X-154808D01*
X-174493D02*
Y151495D01*
X-154808Y144606D02*
Y151495D01*
X-24406Y63708D02*
Y83393D01*
X-31295Y63708D02*
Y83393D01*
X-24406D01*
X-31295Y63708D02*
X-24406D01*
X-118306Y48308D02*
Y67993D01*
X-125195Y48308D02*
Y67993D01*
X-118306D01*
X-125195Y48308D02*
X-118306D01*
X-90906Y164008D02*
Y183693D01*
X-97795Y164008D02*
Y183693D01*
X-90906D01*
X-97795Y164008D02*
X-90906D01*
X-186351Y60512D02*
X-161351D01*
X-186351Y59842D02*
Y60512D01*
Y59842D02*
X-161351D01*
Y61427D01*
Y58927D02*
Y60512D01*
X-196850Y0D02*
Y196850D01*
Y0D02*
X0D01*
Y196850D01*
X-196850D02*
X0D01*
D28*
X-81800Y69096D02*
X-73000D01*
X-81800Y47299D02*
Y69096D01*
Y47299D02*
X-73000D01*
Y69096D01*
X-156900Y69596D02*
X-148100D01*
X-156900Y47799D02*
Y69596D01*
Y47799D02*
X-148100D01*
Y69596D01*
X-160355Y73251D02*
Y82051D01*
X-182152D02*
X-160355D01*
X-182152Y73251D02*
Y82051D01*
Y73251D02*
X-160355D01*
X-175046Y113850D02*
Y122651D01*
Y113850D02*
X-153249D01*
Y122651D01*
X-175046D02*
X-153249D01*
X-185600Y133755D02*
X-176800D01*
Y155552D01*
X-185600D02*
X-176800D01*
X-185600Y133755D02*
Y155552D01*
X-157204Y162500D02*
Y171300D01*
X-179001D02*
X-157204D01*
X-179001Y162500D02*
Y171300D01*
Y162500D02*
X-157204D01*
X-49896Y47451D02*
Y56251D01*
Y47451D02*
X-28099D01*
Y56251D01*
X-49896D02*
X-28099D01*
X-146200Y47455D02*
X-137400D01*
Y69252D01*
X-146200D02*
X-137400D01*
X-146200Y47455D02*
Y69252D01*
X-83204Y47700D02*
Y56500D01*
X-105001D02*
X-83204D01*
X-105001Y47700D02*
Y56500D01*
Y47700D02*
X-83204D01*
X-124500Y165755D02*
X-115700D01*
Y187552D01*
X-124500D02*
X-115700D01*
X-124500Y165755D02*
Y187552D01*
X-92404Y184550D02*
Y193351D01*
X-114201D02*
X-92404D01*
X-114201Y184550D02*
Y193351D01*
Y184550D02*
X-92404D01*
X-104700Y58400D02*
Y67200D01*
Y58400D02*
X-84100D01*
Y67200D01*
X-104700D02*
X-84100D01*
X-63700Y47350D02*
Y67950D01*
X-72500Y47350D02*
X-63700D01*
X-72500D02*
Y67950D01*
X-63700D01*
X-62000Y68050D02*
X-53200D01*
X-62000Y47451D02*
Y68050D01*
Y47451D02*
X-53200D01*
Y68050D01*
X-174451Y132351D02*
X-153850D01*
Y123550D02*
Y132351D01*
X-174451Y123550D02*
X-153850D01*
X-174451D02*
Y132351D01*
X-153751Y104150D02*
Y112951D01*
X-174351D02*
X-153751D01*
X-174351Y104150D02*
Y112951D01*
Y104150D02*
X-153751D01*
X-178100Y181900D02*
X-157500D01*
X-178100D02*
Y190700D01*
X-157500D01*
Y181900D02*
Y190700D01*
X-157600Y172200D02*
Y181000D01*
X-178200D02*
X-157600D01*
X-178200Y172200D02*
Y181000D01*
Y172200D02*
X-157600D01*
X-181650Y91951D02*
X-161050D01*
X-181650D02*
Y100751D01*
X-161050D01*
Y91951D02*
Y100751D01*
X-160951Y82551D02*
Y91351D01*
X-181551D02*
X-160951D01*
X-181551Y82551D02*
Y91351D01*
Y82551D02*
X-160951D01*
X-25100Y57300D02*
X-4500D01*
Y48500D02*
Y57300D01*
X-25100Y48500D02*
X-4500D01*
X-25100D02*
Y57300D01*
X-134250Y187800D02*
X-125451D01*
X-134250Y167200D02*
Y187800D01*
Y167200D02*
X-125451D01*
Y187800D01*
X-77951Y165304D02*
X-69151D01*
Y187101D01*
X-77951D02*
X-69151D01*
X-77951Y165304D02*
Y187101D01*
X-59351Y166200D02*
Y186800D01*
X-68151Y166200D02*
X-59351D01*
X-68151D02*
Y186800D01*
X-59351D01*
D29*
X-120149Y190700D02*
X-119649Y191200D01*
X-118649D01*
X-118149Y190700D01*
Y188701D01*
X-118649Y188201D01*
X-119649D01*
X-120149Y188701D01*
X-121149Y190700D02*
X-121648Y191200D01*
X-122648D01*
X-123148Y190700D01*
Y190200D01*
X-122648Y189700D01*
X-122148D01*
X-122648D01*
X-123148Y189201D01*
Y188701D01*
X-122648Y188201D01*
X-121648D01*
X-121149Y188701D01*
X-88450Y42501D02*
X-88950Y42001D01*
X-89950D01*
X-90450Y42501D01*
Y44500D01*
X-89950Y45000D01*
X-88950D01*
X-88450Y44500D01*
X-85951Y45000D02*
Y42001D01*
X-87450Y43501D01*
X-85451D01*
X-135499Y72799D02*
X-135000Y73299D01*
X-134000D01*
X-133500Y72799D01*
Y70800D01*
X-134000Y70300D01*
X-135000D01*
X-135499Y70800D01*
X-138498Y73299D02*
X-136499D01*
Y71799D01*
X-137499Y72299D01*
X-137999D01*
X-138498Y71799D01*
Y70800D01*
X-137999Y70300D01*
X-136999D01*
X-136499Y70800D01*
X-39401Y42901D02*
X-39900Y42401D01*
X-40900D01*
X-41400Y42901D01*
Y44900D01*
X-40900Y45400D01*
X-39900D01*
X-39401Y44900D01*
X-38401Y42401D02*
X-36402D01*
Y42901D01*
X-38401Y44900D01*
Y45400D01*
X-180099Y28750D02*
X-179599Y29250D01*
X-178600D01*
X-178100Y28750D01*
Y26750D01*
X-178600Y26250D01*
X-179599D01*
X-180099Y26750D01*
X-181099D02*
X-181599Y26250D01*
X-182598D01*
X-183098Y26750D01*
Y28750D01*
X-182598Y29250D01*
X-181599D01*
X-181099Y28750D01*
Y28250D01*
X-181599Y27750D01*
X-183098D01*
X-81700Y189899D02*
X-80700D01*
X-80200Y189399D01*
Y187400D01*
X-80700Y186900D01*
X-81700D01*
X-82199Y187400D01*
Y189399D01*
X-81700Y189899D01*
X-83199Y186900D02*
X-84199D01*
X-83699D01*
Y189899D01*
X-83199Y189399D01*
X-113300Y73349D02*
X-112300D01*
X-111800Y72850D01*
Y70850D01*
X-112300Y70350D01*
X-113300D01*
X-113799Y70850D01*
Y72850D01*
X-113300Y73349D01*
X-114799Y72850D02*
X-115299Y73349D01*
X-116298D01*
X-116798Y72850D01*
Y72350D01*
X-116298Y71850D01*
X-115799D01*
X-116298D01*
X-116798Y71350D01*
Y70850D01*
X-116298Y70350D01*
X-115299D01*
X-114799Y70850D01*
X-21299Y89149D02*
X-20300D01*
X-19800Y88650D01*
Y86650D01*
X-20300Y86150D01*
X-21299D01*
X-21799Y86650D01*
Y88650D01*
X-21299Y89149D01*
X-24298Y86150D02*
Y89149D01*
X-22799Y87650D01*
X-24798D01*
X-178300Y44950D02*
X-176301D01*
X-175801Y44450D01*
Y43450D01*
X-176301Y42950D01*
X-178300D01*
X-178800Y43450D01*
Y44450D01*
X-177800Y43950D02*
X-178800Y44950D01*
Y44450D02*
X-178300Y44950D01*
X-178800Y45950D02*
Y46949D01*
Y46449D01*
X-175801D01*
X-176301Y45950D01*
X-127000Y188951D02*
Y191949D01*
X-128499D01*
X-128999Y191450D01*
Y190450D01*
X-128499Y189950D01*
X-127000D01*
X-128000D02*
X-128999Y188951D01*
X-131998D02*
X-129999D01*
X-131998Y190950D01*
Y191450D01*
X-131499Y191949D01*
X-130499D01*
X-129999Y191450D01*
X-159900Y92950D02*
X-156901D01*
Y94450D01*
X-157401Y94950D01*
X-158400D01*
X-158900Y94450D01*
Y92950D01*
Y93950D02*
X-159900Y94950D01*
Y95950D02*
Y96949D01*
Y96449D01*
X-156901D01*
X-157401Y95950D01*
X-159900Y100448D02*
Y98449D01*
X-157901Y100448D01*
X-157401D01*
X-156901Y99948D01*
Y98949D01*
X-157401Y98449D01*
X-157201Y76450D02*
X-156701Y75950D01*
Y74950D01*
X-157201Y74450D01*
X-159200D01*
X-159700Y74950D01*
Y75950D01*
X-159200Y76450D01*
X-159700Y77450D02*
Y78449D01*
Y77949D01*
X-156701D01*
X-157201Y77450D01*
Y79949D02*
X-156701Y80449D01*
Y81448D01*
X-157201Y81948D01*
X-157701D01*
X-158200Y81448D01*
X-158700Y81948D01*
X-159200D01*
X-159700Y81448D01*
Y80449D01*
X-159200Y79949D01*
X-158700D01*
X-158200Y80449D01*
X-157701Y79949D01*
X-157201D01*
X-158200Y80449D02*
Y81448D01*
X-149601Y156700D02*
Y155700D01*
X-150101Y155200D01*
X-152100D01*
X-152600Y155700D01*
Y156700D01*
X-152100Y157199D01*
X-150101D01*
X-149601Y156700D01*
X-152600Y160198D02*
Y158199D01*
X-150601Y160198D01*
X-150101D01*
X-149601Y159699D01*
Y158699D01*
X-150101Y158199D01*
X-78799Y72299D02*
X-78299Y72799D01*
X-77300D01*
X-76800Y72299D01*
Y70300D01*
X-77300Y69800D01*
X-78299D01*
X-78799Y70300D01*
X-79799Y72299D02*
X-80299Y72799D01*
X-81299D01*
X-81798Y72299D01*
Y71799D01*
X-81299Y71299D01*
X-81798Y70800D01*
Y70300D01*
X-81299Y69800D01*
X-80299D01*
X-79799Y70300D01*
Y70800D01*
X-80299Y71299D01*
X-79799Y71799D01*
Y72299D01*
X-80299Y71299D02*
X-81299D01*
X-21299Y186399D02*
X-20799Y186899D01*
X-19800D01*
X-19300Y186399D01*
Y184400D01*
X-19800Y183900D01*
X-20799D01*
X-21299Y184400D01*
X-22299Y186899D02*
Y183900D01*
Y185399D01*
X-24298D01*
Y186899D01*
Y183900D01*
X-27297D02*
X-25298D01*
X-27297Y185899D01*
Y186399D01*
X-26798Y186899D01*
X-25798D01*
X-25298Y186399D01*
X-28297Y186899D02*
X-30296D01*
X-29297D01*
Y183900D01*
X-26399Y158499D02*
X-25899Y158999D01*
X-24900D01*
X-24400Y158499D01*
Y156500D01*
X-24900Y156000D01*
X-25899D01*
X-26399Y156500D01*
X-27399Y158999D02*
Y156000D01*
Y157500D01*
X-29398D01*
Y158999D01*
Y156000D01*
X-30398D02*
X-31398D01*
X-30898D01*
Y158999D01*
X-30398Y158499D01*
X-32897Y158999D02*
X-34897D01*
X-33897D01*
Y156000D01*
X-18300Y126200D02*
Y129199D01*
X-19800D01*
X-20299Y128699D01*
Y127699D01*
X-19800Y127200D01*
X-18300D01*
X-19300D02*
X-20299Y126200D01*
X-23298Y129199D02*
X-21299D01*
Y126200D01*
X-23298D01*
X-21299Y127699D02*
X-22299D01*
X-26297Y129199D02*
X-24298D01*
Y127699D01*
X-25298D01*
X-24298D01*
Y126200D01*
X-27297Y129199D02*
X-29296D01*
X-28297D01*
Y126200D01*
X-18600Y98900D02*
Y101899D01*
X-20099D01*
X-20599Y101399D01*
Y100399D01*
X-20099Y99900D01*
X-18600D01*
X-19600D02*
X-20599Y98900D01*
X-21599Y101899D02*
Y98900D01*
X-23598D01*
X-24598Y101899D02*
X-26597D01*
X-25598D01*
Y98900D01*
D39*
X-175005Y157401D02*
G03*
X-175005Y157401I-492J0D01*
G01*
X-18008Y84397D02*
G03*
X-18008Y84397I-492J0D01*
G01*
X-111908Y68997D02*
G03*
X-111908Y68997I-492J0D01*
G01*
X-84508Y184697D02*
G03*
X-84508Y184697I-492J0D01*
G01*
M02*
