%FSLAX25Y25*%
%MOIN*%
G70*
G01*
G75*
G04 Layer_Physical_Order=2*
G04 Layer_Color=16711680*
%ADD10C,0.01000*%
%ADD11C,0.02000*%
%ADD12C,0.02500*%
%ADD13C,0.00787*%
%ADD14C,0.07874*%
%ADD15R,0.07874X0.07874*%
%ADD16C,0.12205*%
%ADD17C,0.09843*%
%ADD18C,0.02500*%
%ADD19R,0.02362X0.08661*%
%ADD20R,0.08661X0.02362*%
%ADD21O,0.02992X0.09449*%
%ADD22R,0.02992X0.09449*%
%ADD23R,0.08000X0.06500*%
%ADD24R,0.08500X0.07000*%
%ADD25R,0.08100X0.06700*%
%ADD26R,0.08900X0.07700*%
%ADD27R,0.08200X0.07100*%
G36*
X-171697Y193000D02*
X-171468Y192446D01*
X-173115Y190798D01*
X-173705Y190876D01*
X-174890Y190720D01*
X-175994Y190263D01*
X-176941Y189536D01*
X-177669Y188588D01*
X-178126Y187484D01*
X-178282Y186300D01*
X-178126Y185116D01*
X-177669Y184012D01*
X-176941Y183064D01*
X-175994Y182337D01*
X-174890Y181880D01*
X-174124Y181779D01*
X-174124D01*
X-173974Y181759D01*
Y181757D01*
Y181740D01*
Y181718D01*
Y181667D01*
X-174134Y181133D01*
D01*
Y181133D01*
X-174990Y181020D01*
X-176094Y180563D01*
X-177041Y179836D01*
X-177769Y178888D01*
X-178226Y177784D01*
X-178382Y176600D01*
X-178226Y175416D01*
X-177769Y174312D01*
X-177041Y173364D01*
X-176094Y172637D01*
X-175387Y172344D01*
Y171373D01*
X-175786Y171320D01*
X-176890Y170863D01*
X-177837Y170136D01*
X-178565Y169188D01*
X-179022Y168084D01*
X-179177Y166900D01*
X-179022Y165716D01*
X-178565Y164612D01*
X-177837Y163664D01*
X-176890Y162937D01*
X-175786Y162480D01*
X-174601Y162324D01*
X-174531Y162333D01*
X-173932Y161807D01*
Y152470D01*
X-170369D01*
Y162331D01*
X-170376D01*
Y165246D01*
X-170181Y165716D01*
X-170025Y166900D01*
X-170181Y168084D01*
X-170638Y169188D01*
X-171366Y170136D01*
X-172125Y170718D01*
Y172385D01*
X-171517Y172637D01*
X-170570Y173364D01*
X-169842Y174312D01*
X-169385Y175416D01*
X-169229Y176600D01*
X-169385Y177784D01*
X-169842Y178888D01*
X-170570Y179836D01*
X-171517Y180563D01*
X-172621Y181020D01*
X-173388Y181121D01*
X-173388D01*
X-173537Y181141D01*
Y181143D01*
Y181160D01*
Y181183D01*
Y181233D01*
X-173377Y181767D01*
D01*
Y181767D01*
X-172521Y181880D01*
X-171417Y182337D01*
X-170470Y183064D01*
X-169742Y184012D01*
X-169285Y185116D01*
X-169129Y186300D01*
X-169285Y187484D01*
X-169742Y188588D01*
X-170163Y189136D01*
X-168431Y190869D01*
X-164289D01*
X-164169Y190269D01*
X-164183Y190263D01*
X-165130Y189536D01*
X-165858Y188588D01*
X-166315Y187484D01*
X-166471Y186300D01*
X-166315Y185116D01*
X-165858Y184012D01*
X-165130Y183064D01*
X-164183Y182337D01*
X-163576Y182086D01*
Y180856D01*
X-164283Y180563D01*
X-165230Y179836D01*
X-165958Y178888D01*
X-166415Y177784D01*
X-166571Y176600D01*
X-166415Y175416D01*
X-165958Y174312D01*
X-165230Y173364D01*
X-164283Y172637D01*
X-163576Y172344D01*
Y170992D01*
X-163887Y170863D01*
X-164834Y170136D01*
X-165562Y169188D01*
X-166019Y168084D01*
X-166175Y166900D01*
X-166126Y166531D01*
X-168304Y164354D01*
X-168658Y163824D01*
X-168782Y163200D01*
Y162331D01*
X-168931D01*
Y152470D01*
X-165369D01*
Y162331D01*
X-165369Y162331D01*
X-165369D01*
X-165369Y162332D01*
X-165187Y162856D01*
X-164577Y163467D01*
X-163887Y162937D01*
X-163874Y162932D01*
X-163932Y162331D01*
X-163932Y162331D01*
X-163932Y162331D01*
Y152470D01*
X-163272D01*
Y151600D01*
X-163272Y151600D01*
X-163187Y151171D01*
X-162943Y150807D01*
X-159344Y147207D01*
X-159344Y147207D01*
X-158980Y146964D01*
X-158551Y146878D01*
X-158550Y146878D01*
X-152526D01*
X-152384Y146666D01*
X-151772Y146257D01*
X-151050Y146114D01*
X-150329Y146257D01*
X-149717Y146666D01*
X-149308Y147278D01*
X-149164Y148000D01*
X-149308Y148722D01*
X-149717Y149334D01*
X-150329Y149743D01*
X-151050Y149886D01*
X-151772Y149743D01*
X-152384Y149334D01*
X-152526Y149121D01*
X-158086D01*
X-160835Y151870D01*
X-160586Y152470D01*
X-160369D01*
Y162331D01*
X-159916Y162686D01*
X-159310Y162937D01*
X-158363Y163664D01*
X-157636Y164612D01*
X-157178Y165716D01*
X-157023Y166900D01*
X-157178Y168084D01*
X-157636Y169188D01*
X-158363Y170136D01*
X-159310Y170863D01*
X-160314Y171279D01*
Y172385D01*
X-159706Y172637D01*
X-158759Y173364D01*
X-158031Y174312D01*
X-157574Y175416D01*
X-157418Y176600D01*
X-157574Y177784D01*
X-158031Y178888D01*
X-158759Y179836D01*
X-159706Y180563D01*
X-160314Y180815D01*
Y182044D01*
X-159606Y182337D01*
X-158659Y183064D01*
X-157931Y184012D01*
X-157474Y185116D01*
X-157318Y186300D01*
X-157474Y187484D01*
X-157931Y188588D01*
X-158659Y189536D01*
X-159606Y190263D01*
X-159620Y190269D01*
X-159500Y190869D01*
X-153365D01*
X-147982Y185486D01*
Y184389D01*
X-147993Y184372D01*
X-148137Y183651D01*
X-147993Y182929D01*
X-147982Y182912D01*
Y174091D01*
X-148582Y173972D01*
X-148837Y174588D01*
X-149564Y175536D01*
X-150512Y176263D01*
X-151616Y176720D01*
X-152800Y176876D01*
X-153984Y176720D01*
X-155088Y176263D01*
X-156036Y175536D01*
X-156763Y174588D01*
X-157220Y173484D01*
X-157376Y172300D01*
X-157220Y171116D01*
X-156763Y170012D01*
X-156036Y169064D01*
X-155088Y168337D01*
X-153984Y167880D01*
X-152800Y167724D01*
X-151616Y167880D01*
X-150512Y168337D01*
X-149564Y169064D01*
X-148837Y170012D01*
X-148582Y170628D01*
X-147982Y170509D01*
Y163888D01*
X-148093Y163722D01*
X-148237Y163000D01*
X-148093Y162278D01*
X-147982Y162111D01*
Y129739D01*
X-148093Y129572D01*
X-148237Y128850D01*
X-148093Y128129D01*
X-147982Y127962D01*
Y103782D01*
X-156234D01*
X-156353Y104382D01*
X-155857Y104587D01*
X-154909Y105315D01*
X-154182Y106262D01*
X-153725Y107366D01*
X-153569Y108551D01*
X-153725Y109735D01*
X-154182Y110838D01*
X-154909Y111786D01*
X-155857Y112513D01*
X-156614Y112827D01*
Y113811D01*
X-156465Y113830D01*
X-155361Y114287D01*
X-154413Y115015D01*
X-153686Y115962D01*
X-153229Y117066D01*
X-153073Y118251D01*
X-153229Y119435D01*
X-153686Y120538D01*
X-154413Y121486D01*
X-155361Y122213D01*
X-156465Y122671D01*
X-156614Y122690D01*
Y123715D01*
X-155957Y123987D01*
X-155009Y124715D01*
X-154282Y125662D01*
X-153825Y126766D01*
X-153669Y127951D01*
X-153825Y129135D01*
X-154282Y130238D01*
X-155009Y131186D01*
X-155957Y131913D01*
X-157061Y132371D01*
X-158245Y132527D01*
X-159429Y132371D01*
X-160086Y132099D01*
X-160519Y132532D01*
Y133769D01*
X-160369D01*
Y143631D01*
X-163932D01*
Y133769D01*
X-163782D01*
Y131856D01*
X-163658Y131232D01*
X-163304Y130702D01*
X-162393Y129792D01*
X-162665Y129135D01*
X-162821Y127951D01*
X-162665Y126766D01*
X-162208Y125662D01*
X-161481Y124715D01*
X-160533Y123987D01*
X-159876Y123715D01*
Y122239D01*
X-159937Y122213D01*
X-160885Y121486D01*
X-161612Y120538D01*
X-162069Y119435D01*
X-162225Y118251D01*
X-162069Y117066D01*
X-161612Y115962D01*
X-160885Y115015D01*
X-159937Y114287D01*
X-159876Y114262D01*
Y112744D01*
X-160433Y112513D01*
X-161381Y111786D01*
X-162108Y110838D01*
X-162565Y109735D01*
X-162721Y108551D01*
X-162565Y107366D01*
X-162108Y106262D01*
X-161381Y105315D01*
X-160433Y104587D01*
X-159937Y104382D01*
X-160056Y103782D01*
X-164680D01*
X-166500Y105602D01*
X-165993Y106262D01*
X-165536Y107366D01*
X-165380Y108551D01*
X-165536Y109735D01*
X-165993Y110838D01*
X-166720Y111786D01*
X-167668Y112513D01*
X-168772Y112971D01*
X-169956Y113127D01*
X-171140Y112971D01*
X-172244Y112513D01*
X-173192Y111786D01*
X-173919Y110838D01*
X-174376Y109735D01*
X-174532Y108551D01*
X-174376Y107366D01*
X-173919Y106262D01*
X-173192Y105315D01*
X-172244Y104587D01*
X-171140Y104130D01*
X-169956Y103974D01*
X-169542Y104029D01*
X-166509Y100997D01*
X-165980Y100643D01*
X-165356Y100519D01*
X-147982D01*
Y72851D01*
X-147888Y72379D01*
X-147993Y72222D01*
X-148137Y71500D01*
X-147993Y70778D01*
X-147584Y70166D01*
X-146972Y69757D01*
X-146250Y69614D01*
X-145529Y69757D01*
X-144917Y70166D01*
X-144508Y70778D01*
X-144364Y71500D01*
X-144508Y72222D01*
X-144767Y72610D01*
X-144719Y72851D01*
Y101486D01*
X-144657Y101578D01*
X-144514Y102300D01*
X-144657Y103022D01*
X-144719Y103114D01*
Y127962D01*
X-144608Y128129D01*
X-144464Y128850D01*
X-144608Y129572D01*
X-144719Y129739D01*
Y162111D01*
X-144608Y162278D01*
X-144464Y163000D01*
X-144608Y163722D01*
X-144719Y163888D01*
Y182612D01*
X-144508Y182929D01*
X-144364Y183651D01*
X-144508Y184372D01*
X-144719Y184688D01*
Y186161D01*
X-144843Y186786D01*
X-145197Y187315D01*
X-150328Y192446D01*
X-150098Y193000D01*
X-140074D01*
X-139657Y192400D01*
X-139737Y192000D01*
Y165350D01*
X-139593Y164629D01*
X-139184Y164017D01*
X-130404Y155236D01*
X-130819Y154235D01*
X-130975Y153050D01*
X-130819Y151866D01*
X-130362Y150762D01*
X-129634Y149815D01*
X-128687Y149087D01*
X-127583Y148630D01*
X-126399Y148474D01*
X-125214Y148630D01*
X-124110Y149087D01*
X-123163Y149815D01*
X-122435Y150762D01*
X-121978Y151866D01*
X-121822Y153050D01*
X-121978Y154235D01*
X-122435Y155339D01*
X-123163Y156286D01*
X-124110Y157013D01*
X-125214Y157471D01*
X-126399Y157627D01*
X-127336Y157503D01*
X-135964Y166132D01*
Y192000D01*
X-136044Y192400D01*
X-135627Y193000D01*
X-112962D01*
X-112759Y192400D01*
X-113037Y192186D01*
X-113764Y191238D01*
X-114222Y190135D01*
X-114377Y188951D01*
X-114222Y187766D01*
X-113764Y186662D01*
X-113037Y185715D01*
X-112186Y185062D01*
Y182351D01*
X-112043Y181629D01*
X-111634Y181017D01*
X-110634Y180017D01*
X-110022Y179608D01*
X-109902Y179584D01*
X-109300Y179464D01*
X-103701D01*
X-103172Y179569D01*
X-98770D01*
Y183132D01*
X-103172D01*
X-103701Y183237D01*
X-108414D01*
Y184614D01*
X-107513Y184987D01*
X-106565Y185715D01*
X-105838Y186662D01*
X-105381Y187766D01*
X-105225Y188951D01*
X-105381Y190135D01*
X-105838Y191238D01*
X-106565Y192186D01*
X-106844Y192400D01*
X-106640Y193000D01*
X-87941Y193000D01*
X-87712Y192446D01*
X-93504Y186653D01*
X-93858Y186124D01*
X-93982Y185500D01*
Y172176D01*
X-98170Y167987D01*
X-98770Y167995D01*
Y168131D01*
X-108632D01*
Y164569D01*
X-98770D01*
Y164719D01*
X-97500D01*
X-96876Y164843D01*
X-96346Y165197D01*
X-91197Y170346D01*
X-90843Y170876D01*
X-90719Y171500D01*
Y184824D01*
X-85275Y190269D01*
X-62651D01*
X-54464Y182081D01*
X-54601Y181825D01*
X-54984Y180561D01*
X-55114Y179247D01*
X-54984Y177933D01*
X-54601Y176670D01*
X-53979Y175506D01*
X-53141Y174485D01*
X-52120Y173647D01*
X-50956Y173025D01*
X-49693Y172642D01*
X-48379Y172512D01*
X-47065Y172642D01*
X-45801Y173025D01*
X-44637Y173647D01*
X-43617Y174485D01*
X-42779Y175506D01*
X-42157Y176670D01*
X-41773Y177933D01*
X-41644Y179247D01*
X-41773Y180561D01*
X-42157Y181825D01*
X-42779Y182989D01*
X-43617Y184010D01*
X-44637Y184847D01*
X-45801Y185469D01*
X-47065Y185853D01*
X-48379Y185982D01*
X-49693Y185853D01*
X-50956Y185469D01*
X-52120Y184847D01*
X-52392Y184624D01*
X-60214Y192446D01*
X-59985Y193000D01*
X-11512D01*
X-11319Y192432D01*
X-11457Y192326D01*
X-12184Y191378D01*
X-12641Y190274D01*
X-12797Y189090D01*
X-12641Y187905D01*
X-12184Y186802D01*
X-11457Y185854D01*
X-10509Y185127D01*
X-9406Y184670D01*
X-8221Y184514D01*
X-7037Y184670D01*
X-5933Y185127D01*
X-4985Y185854D01*
X-4434Y186573D01*
X-3833Y186370D01*
X-3795Y171681D01*
X-4394Y171476D01*
X-4985Y172247D01*
X-5933Y172974D01*
X-7037Y173431D01*
X-8221Y173587D01*
X-9406Y173431D01*
X-10509Y172974D01*
X-11457Y172247D01*
X-12184Y171299D01*
X-12641Y170195D01*
X-12797Y169011D01*
X-12641Y167827D01*
X-12184Y166723D01*
X-11457Y165775D01*
X-10509Y165048D01*
X-9801Y164754D01*
Y164105D01*
X-10409Y163853D01*
X-11357Y163126D01*
X-12084Y162178D01*
X-12541Y161074D01*
X-12697Y159890D01*
X-12541Y158705D01*
X-12084Y157602D01*
X-11357Y156654D01*
X-10409Y155927D01*
X-9306Y155470D01*
X-8121Y155314D01*
X-6937Y155470D01*
X-5833Y155927D01*
X-4885Y156654D01*
X-4357Y157343D01*
X-3756Y157140D01*
X-3717Y142510D01*
X-4317Y142306D01*
X-4885Y143047D01*
X-5833Y143774D01*
X-6937Y144231D01*
X-8121Y144387D01*
X-9306Y144231D01*
X-10409Y143774D01*
X-11357Y143047D01*
X-12084Y142099D01*
X-12541Y140996D01*
X-12697Y139811D01*
X-12541Y138627D01*
X-12084Y137523D01*
X-11357Y136575D01*
X-10409Y135848D01*
X-9801Y135596D01*
Y134946D01*
X-10509Y134653D01*
X-11457Y133926D01*
X-12184Y132978D01*
X-12641Y131874D01*
X-12797Y130690D01*
X-12641Y129505D01*
X-12184Y128402D01*
X-11457Y127454D01*
X-10509Y126727D01*
X-9406Y126270D01*
X-8221Y126114D01*
X-7037Y126270D01*
X-5933Y126727D01*
X-4985Y127454D01*
X-4280Y128373D01*
X-4219Y128378D01*
X-3680Y128143D01*
X-3639Y112973D01*
X-4239Y112853D01*
X-4258Y112899D01*
X-4985Y113847D01*
X-5933Y114574D01*
X-7037Y115031D01*
X-8221Y115187D01*
X-9406Y115031D01*
X-10509Y114574D01*
X-11457Y113847D01*
X-12184Y112899D01*
X-12641Y111795D01*
X-12797Y110611D01*
X-12641Y109427D01*
X-12184Y108323D01*
X-11457Y107375D01*
X-10509Y106648D01*
X-9871Y106384D01*
Y105734D01*
X-10309Y105553D01*
X-11257Y104826D01*
X-11984Y103878D01*
X-12441Y102774D01*
X-12597Y101590D01*
X-12441Y100405D01*
X-11984Y99302D01*
X-11257Y98354D01*
X-10309Y97627D01*
X-9206Y97170D01*
X-8021Y97014D01*
X-6837Y97170D01*
X-5733Y97627D01*
X-4785Y98354D01*
X-4203Y99113D01*
X-3602Y98910D01*
X-3563Y84093D01*
X-4163Y83935D01*
X-4785Y84747D01*
X-5733Y85474D01*
X-6837Y85931D01*
X-8021Y86087D01*
X-9206Y85931D01*
X-10309Y85474D01*
X-11257Y84747D01*
X-11984Y83799D01*
X-12441Y82696D01*
X-12597Y81511D01*
X-12441Y80327D01*
X-11984Y79223D01*
X-11257Y78275D01*
X-10309Y77548D01*
X-9206Y77091D01*
X-8021Y76935D01*
X-6837Y77091D01*
X-5733Y77548D01*
X-4785Y78275D01*
X-4150Y79104D01*
X-3645Y78999D01*
X-3549Y78948D01*
X-3352Y4425D01*
X-3776Y4000D01*
X-153665Y4000D01*
X-153869Y4600D01*
X-153462Y4913D01*
X-152576Y6066D01*
X-152020Y7409D01*
X-151830Y8850D01*
X-152020Y10292D01*
X-152576Y11635D01*
X-153462Y12788D01*
X-154615Y13673D01*
X-155958Y14230D01*
X-157399Y14419D01*
X-158841Y14230D01*
X-160184Y13673D01*
X-161337Y12788D01*
X-162222Y11635D01*
X-162778Y10292D01*
X-162968Y8850D01*
X-162778Y7409D01*
X-162222Y6066D01*
X-161337Y4913D01*
X-160930Y4600D01*
X-161133Y4000D01*
X-177734D01*
X-177914Y4600D01*
X-177115Y5213D01*
X-176387Y6161D01*
X-175930Y7265D01*
X-175774Y8449D01*
X-175930Y9634D01*
X-176387Y10737D01*
X-177115Y11685D01*
X-178062Y12412D01*
X-179166Y12869D01*
X-180350Y13025D01*
X-181510Y12873D01*
X-189664Y21026D01*
Y30533D01*
X-189213Y30929D01*
X-188800Y30874D01*
X-187616Y31030D01*
X-186512Y31487D01*
X-185564Y32215D01*
X-184837Y33162D01*
X-184380Y34266D01*
X-184224Y35451D01*
X-184380Y36635D01*
X-184837Y37738D01*
X-185564Y38686D01*
X-186512Y39413D01*
X-187616Y39871D01*
X-188800Y40027D01*
X-189213Y39972D01*
X-189664Y40368D01*
Y50664D01*
X-185988D01*
Y49272D01*
X-185825Y48454D01*
X-185362Y47760D01*
X-184668Y47297D01*
X-183851Y47135D01*
X-183033Y47297D01*
X-182339Y47760D01*
X-181876Y48454D01*
X-181713Y49272D01*
Y55728D01*
X-181876Y56546D01*
X-182339Y57240D01*
X-183033Y57703D01*
X-183851Y57865D01*
X-184668Y57703D01*
X-185362Y57240D01*
X-185825Y56546D01*
X-185988Y55728D01*
Y54437D01*
X-189664D01*
Y61059D01*
X-189064Y61308D01*
X-186803Y59046D01*
X-186274Y58693D01*
X-185650Y58569D01*
X-182551D01*
X-181926Y58693D01*
X-181397Y59046D01*
X-177697Y62746D01*
X-177541Y62980D01*
X-177339Y63115D01*
X-176876Y63808D01*
X-176713Y64626D01*
Y71083D01*
X-176876Y71900D01*
X-177339Y72594D01*
X-178033Y73057D01*
X-178850Y73220D01*
X-179668Y73057D01*
X-180362Y72594D01*
X-180825Y71900D01*
X-180988Y71083D01*
Y64626D01*
X-180908Y64224D01*
X-181308Y63854D01*
X-181814Y64118D01*
X-181713Y64626D01*
Y71083D01*
X-181876Y71900D01*
X-182219Y72414D01*
Y86053D01*
X-181619Y86092D01*
X-181576Y85766D01*
X-181119Y84662D01*
X-180392Y83715D01*
X-179444Y82987D01*
X-178340Y82530D01*
X-177156Y82374D01*
X-175972Y82530D01*
X-174868Y82987D01*
X-173920Y83715D01*
X-173193Y84662D01*
X-172736Y85766D01*
X-172580Y86950D01*
X-172736Y88135D01*
X-173193Y89239D01*
X-173920Y90186D01*
X-174868Y90913D01*
X-175614Y91223D01*
Y92120D01*
X-174968Y92387D01*
X-174020Y93115D01*
X-173293Y94062D01*
X-172836Y95166D01*
X-172680Y96351D01*
X-172836Y97535D01*
X-173293Y98638D01*
X-174020Y99586D01*
X-174968Y100313D01*
X-176072Y100771D01*
X-177256Y100927D01*
X-178440Y100771D01*
X-179544Y100313D01*
X-180492Y99586D01*
X-181219Y98638D01*
X-181619Y97673D01*
X-182219Y97792D01*
Y105541D01*
X-181619Y105909D01*
X-180600Y105774D01*
X-179416Y105930D01*
X-178312Y106387D01*
X-177364Y107115D01*
X-176637Y108062D01*
X-176180Y109166D01*
X-176024Y110351D01*
X-176180Y111535D01*
X-176481Y112262D01*
X-173798Y114946D01*
X-172940Y114287D01*
X-171836Y113830D01*
X-170652Y113674D01*
X-169467Y113830D01*
X-168364Y114287D01*
X-167416Y115015D01*
X-166689Y115962D01*
X-166232Y117066D01*
X-166076Y118251D01*
X-166232Y119435D01*
X-166689Y120538D01*
X-167416Y121486D01*
X-168364Y122213D01*
X-168425Y122239D01*
Y123715D01*
X-167768Y123987D01*
X-166820Y124715D01*
X-166093Y125662D01*
X-165636Y126766D01*
X-165480Y127951D01*
X-165636Y129135D01*
X-165919Y129819D01*
X-165643Y130232D01*
X-165519Y130856D01*
Y133769D01*
X-165369D01*
Y143631D01*
X-168931D01*
Y133769D01*
X-168782D01*
Y132959D01*
X-169382Y132438D01*
X-170056Y132527D01*
X-171240Y132371D01*
X-172344Y131913D01*
X-173292Y131186D01*
X-174019Y130238D01*
X-174476Y129135D01*
X-174632Y127951D01*
X-174476Y126766D01*
X-174019Y125662D01*
X-173292Y124715D01*
X-172344Y123987D01*
X-171687Y123715D01*
Y122690D01*
X-171836Y122671D01*
X-172940Y122213D01*
X-173888Y121486D01*
X-174615Y120538D01*
X-175072Y119435D01*
X-175228Y118251D01*
X-175214Y118144D01*
X-178830Y114528D01*
X-179416Y114771D01*
X-180600Y114927D01*
X-181784Y114771D01*
X-182888Y114313D01*
X-183836Y113586D01*
X-184563Y112638D01*
X-185020Y111535D01*
X-185176Y110351D01*
X-185020Y109166D01*
X-184777Y108580D01*
X-185004Y108353D01*
X-185358Y107824D01*
X-185482Y107200D01*
Y72414D01*
X-185825Y71900D01*
X-185869Y71681D01*
X-186469Y71740D01*
Y73162D01*
X-186357Y73329D01*
X-186214Y74050D01*
X-186357Y74772D01*
X-186766Y75384D01*
X-187378Y75793D01*
X-188100Y75937D01*
X-188822Y75793D01*
X-189064Y75631D01*
X-189664Y75952D01*
Y137159D01*
X-185646D01*
X-185620Y136965D01*
X-185163Y135861D01*
X-184436Y134913D01*
X-183488Y134186D01*
X-182384Y133729D01*
X-181200Y133573D01*
X-180016Y133729D01*
X-178912Y134186D01*
X-177964Y134913D01*
X-177880Y135023D01*
X-173932D01*
Y133769D01*
X-170369D01*
Y136031D01*
X-170264Y136188D01*
X-170121Y136909D01*
X-170264Y137631D01*
X-170369Y137788D01*
Y143631D01*
X-173932D01*
Y138796D01*
X-176709D01*
X-176780Y139333D01*
X-177237Y140437D01*
X-177964Y141385D01*
X-178912Y142112D01*
X-180016Y142569D01*
X-181200Y142725D01*
X-182384Y142569D01*
X-183488Y142112D01*
X-184436Y141385D01*
X-184784Y140931D01*
X-189664D01*
Y191848D01*
X-189564Y192350D01*
X-189601Y192536D01*
X-189220Y193000D01*
X-171697D01*
D02*
G37*
G36*
X-184430Y10457D02*
X-184771Y9634D01*
X-184927Y8449D01*
X-184771Y7265D01*
X-184313Y6161D01*
X-183586Y5213D01*
X-182787Y4600D01*
X-182966Y4000D01*
X-193000D01*
Y18178D01*
X-192400Y18427D01*
X-184430Y10457D01*
D02*
G37*
%LPC*%
G36*
X-64051Y89721D02*
X-65235Y89565D01*
X-66338Y89108D01*
X-67286Y88381D01*
X-68014Y87433D01*
X-68471Y86329D01*
X-68627Y85145D01*
X-68471Y83960D01*
X-68014Y82857D01*
X-67286Y81909D01*
X-66338Y81182D01*
X-65235Y80725D01*
X-64051Y80569D01*
X-62866Y80725D01*
X-61762Y81182D01*
X-60815Y81909D01*
X-60087Y82857D01*
X-59630Y83960D01*
X-59474Y85145D01*
X-59630Y86329D01*
X-60087Y87433D01*
X-60815Y88381D01*
X-61762Y89108D01*
X-62866Y89565D01*
X-64051Y89721D01*
D02*
G37*
G36*
X-137800Y90971D02*
X-138984Y90815D01*
X-140088Y90358D01*
X-141036Y89630D01*
X-141763Y88683D01*
X-142220Y87579D01*
X-142376Y86395D01*
X-142220Y85210D01*
X-141763Y84106D01*
X-141036Y83159D01*
X-140088Y82431D01*
X-138984Y81974D01*
X-137800Y81818D01*
X-136616Y81974D01*
X-135512Y82431D01*
X-134564Y83159D01*
X-133837Y84106D01*
X-133380Y85210D01*
X-133224Y86395D01*
X-133380Y87579D01*
X-133837Y88683D01*
X-134564Y89630D01*
X-135512Y90358D01*
X-136616Y90815D01*
X-137800Y90971D01*
D02*
G37*
G36*
X-48379Y127582D02*
X-49693Y127453D01*
X-50956Y127069D01*
X-52120Y126447D01*
X-53141Y125610D01*
X-53979Y124589D01*
X-54601Y123425D01*
X-54984Y122161D01*
X-55114Y120847D01*
X-54984Y119533D01*
X-54601Y118270D01*
X-53979Y117106D01*
X-53141Y116085D01*
X-52120Y115247D01*
X-50956Y114625D01*
X-50010Y114338D01*
Y110897D01*
X-58354Y102554D01*
X-58707Y102024D01*
X-58831Y101400D01*
Y79977D01*
X-61476Y77332D01*
X-61672Y77293D01*
X-62284Y76884D01*
X-62693Y76272D01*
X-62837Y75551D01*
X-62693Y74829D01*
X-62284Y74217D01*
X-61672Y73808D01*
X-60950Y73664D01*
X-60229Y73808D01*
X-59617Y74217D01*
X-59208Y74829D01*
X-59169Y75025D01*
X-56786Y77408D01*
X-56231Y77179D01*
Y68542D01*
X-56700Y68114D01*
X-57600Y68232D01*
X-58784Y68076D01*
X-59888Y67619D01*
X-60836Y66892D01*
X-61563Y65944D01*
X-62020Y64840D01*
X-62176Y63656D01*
X-62020Y62472D01*
X-61563Y61368D01*
X-60836Y60420D01*
X-59888Y59693D01*
X-58784Y59236D01*
X-57600Y59080D01*
X-56415Y59236D01*
X-55312Y59693D01*
X-54364Y60420D01*
X-53637Y61368D01*
X-53180Y62472D01*
X-53024Y63656D01*
X-53180Y64840D01*
X-53637Y65944D01*
X-53840Y66209D01*
X-53446Y66602D01*
X-53093Y67132D01*
X-52969Y67756D01*
Y77455D01*
X-52463Y77489D01*
X-52399Y77493D01*
X-52380Y77494D01*
X-52311Y77055D01*
X-52309Y77044D01*
Y77044D01*
X-52220Y76367D01*
X-51763Y75264D01*
X-51036Y74316D01*
X-50088Y73589D01*
X-48984Y73132D01*
X-47800Y72976D01*
X-46616Y73132D01*
X-45512Y73589D01*
X-44564Y74316D01*
X-43837Y75264D01*
X-43380Y76367D01*
X-43224Y77552D01*
X-43357Y78564D01*
X-42987Y79164D01*
X-37201D01*
X-36672Y79269D01*
X-32270D01*
Y82832D01*
X-36672D01*
X-37201Y82937D01*
X-45456D01*
X-46178Y82793D01*
X-46381Y82657D01*
X-46790Y82384D01*
X-47134Y82040D01*
X-47800Y82128D01*
X-48984Y81972D01*
X-50088Y81515D01*
X-51036Y80788D01*
X-51763Y79840D01*
X-52220Y78736D01*
X-52309Y78060D01*
X-52309Y78060D01*
X-52311Y78048D01*
X-52380Y77610D01*
X-52399Y77611D01*
X-52463Y77615D01*
X-52969Y77648D01*
Y81625D01*
X-49455Y85138D01*
X-48179Y85013D01*
X-46865Y85142D01*
X-45601Y85525D01*
X-44437Y86147D01*
X-43417Y86985D01*
X-42579Y88006D01*
X-41957Y89170D01*
X-41573Y90433D01*
X-41444Y91747D01*
X-41573Y93061D01*
X-41957Y94325D01*
X-42579Y95489D01*
X-43417Y96509D01*
X-44437Y97347D01*
X-45601Y97969D01*
X-46865Y98353D01*
X-48179Y98482D01*
X-49493Y98353D01*
X-50756Y97969D01*
X-51920Y97347D01*
X-52941Y96509D01*
X-53778Y95489D01*
X-54401Y94325D01*
X-54784Y93061D01*
X-54914Y91747D01*
X-54784Y90433D01*
X-54401Y89170D01*
X-53778Y88006D01*
X-52941Y86985D01*
X-52892Y86945D01*
X-52862Y86346D01*
X-55014Y84194D01*
X-55569Y84423D01*
Y100724D01*
X-47225Y109068D01*
X-46872Y109597D01*
X-46747Y110221D01*
X-46747Y110221D01*
Y114338D01*
X-45801Y114625D01*
X-44637Y115247D01*
X-43617Y116085D01*
X-42779Y117106D01*
X-42157Y118270D01*
X-41773Y119533D01*
X-41644Y120847D01*
X-41773Y122161D01*
X-42157Y123425D01*
X-42779Y124589D01*
X-43617Y125610D01*
X-44637Y126447D01*
X-45801Y127069D01*
X-47065Y127453D01*
X-48379Y127582D01*
D02*
G37*
G36*
X-165345Y91527D02*
X-166529Y91371D01*
X-167633Y90913D01*
X-168581Y90186D01*
X-169308Y89239D01*
X-169765Y88135D01*
X-169921Y86950D01*
X-169765Y85766D01*
X-169308Y84662D01*
X-168581Y83715D01*
X-167633Y82987D01*
X-166831Y82655D01*
Y81699D01*
X-167037Y81613D01*
X-167985Y80886D01*
X-168712Y79939D01*
X-169169Y78835D01*
X-169325Y77650D01*
X-169169Y76466D01*
X-168712Y75362D01*
X-167985Y74415D01*
X-167037Y73687D01*
X-165934Y73230D01*
X-165737Y73204D01*
Y72032D01*
X-165825Y71900D01*
X-165988Y71083D01*
Y64626D01*
X-165825Y63808D01*
X-165362Y63115D01*
X-164668Y62651D01*
X-163850Y62489D01*
X-163033Y62651D01*
X-162339Y63115D01*
X-161876Y63808D01*
X-161713Y64626D01*
Y71083D01*
X-161876Y71900D01*
X-161964Y72032D01*
Y74069D01*
X-161513Y74415D01*
X-160786Y75362D01*
X-160329Y76466D01*
X-160173Y77650D01*
X-160329Y78835D01*
X-160786Y79939D01*
X-161513Y80886D01*
X-162461Y81613D01*
X-163059Y81861D01*
Y82987D01*
X-163057Y82987D01*
X-162109Y83715D01*
X-161382Y84662D01*
X-160925Y85766D01*
X-160769Y86950D01*
X-160925Y88135D01*
X-161382Y89239D01*
X-162109Y90186D01*
X-163057Y90913D01*
X-164161Y91371D01*
X-165345Y91527D01*
D02*
G37*
G36*
X-48000Y105086D02*
X-48722Y104943D01*
X-49334Y104534D01*
X-49743Y103922D01*
X-49886Y103200D01*
X-49743Y102478D01*
X-49334Y101866D01*
X-48722Y101457D01*
X-48000Y101314D01*
X-47278Y101457D01*
X-46666Y101866D01*
X-46524Y102078D01*
X-37065D01*
X-28872Y93886D01*
Y74151D01*
X-28872Y74151D01*
X-28824Y73909D01*
X-29377Y73614D01*
X-32270Y76507D01*
Y77832D01*
X-42132D01*
Y74269D01*
X-33205D01*
X-32367Y73432D01*
X-32616Y72832D01*
X-42132D01*
Y69269D01*
X-32270D01*
Y69386D01*
X-31670Y69634D01*
X-28972Y66936D01*
Y60045D01*
X-28972Y60045D01*
X-28887Y59616D01*
X-28644Y59252D01*
X-24630Y55238D01*
X-24669Y55188D01*
X-25126Y54084D01*
X-25282Y52900D01*
X-25126Y51716D01*
X-24669Y50612D01*
X-23941Y49664D01*
X-22994Y48937D01*
X-21890Y48480D01*
X-20706Y48324D01*
X-19521Y48480D01*
X-18417Y48937D01*
X-17470Y49664D01*
X-16742Y50612D01*
X-16285Y51716D01*
X-16129Y52900D01*
X-16285Y54084D01*
X-16742Y55188D01*
X-17470Y56136D01*
X-18417Y56863D01*
X-19495Y57309D01*
X-19537Y57413D01*
X-19631Y57940D01*
X-19366Y58117D01*
X-18957Y58729D01*
X-18814Y59451D01*
X-18957Y60172D01*
X-19366Y60784D01*
X-19978Y61193D01*
X-20700Y61337D01*
X-21035Y61270D01*
X-24729Y64964D01*
Y68501D01*
X-24729Y68501D01*
X-24814Y68930D01*
X-25057Y69294D01*
X-25057Y69294D01*
X-25187Y69424D01*
X-24892Y69977D01*
X-24651Y69929D01*
X-23431D01*
Y69269D01*
X-13569D01*
Y72832D01*
X-23431D01*
Y72172D01*
X-24186D01*
X-26629Y74615D01*
Y94350D01*
X-26714Y94780D01*
X-26957Y95144D01*
X-26957Y95144D01*
X-35807Y103993D01*
X-36171Y104236D01*
X-36600Y104322D01*
X-36600Y104322D01*
X-46524D01*
X-46666Y104534D01*
X-47278Y104943D01*
X-48000Y105086D01*
D02*
G37*
G36*
X-126800Y90771D02*
X-127984Y90615D01*
X-129088Y90158D01*
X-130036Y89430D01*
X-130763Y88483D01*
X-131220Y87379D01*
X-131376Y86194D01*
X-131220Y85010D01*
X-130763Y83906D01*
X-130036Y82959D01*
X-129088Y82231D01*
X-127984Y81774D01*
X-126800Y81618D01*
X-125616Y81774D01*
X-125030Y82017D01*
X-120639Y77627D01*
X-120935Y77074D01*
X-121001Y77087D01*
X-121722Y76943D01*
X-122334Y76534D01*
X-122743Y75922D01*
X-122887Y75200D01*
X-122743Y74479D01*
X-122632Y74312D01*
Y73628D01*
X-123232Y73314D01*
X-123851Y73437D01*
X-124572Y73293D01*
X-125184Y72884D01*
X-125593Y72272D01*
X-125737Y71551D01*
X-125593Y70829D01*
X-125482Y70662D01*
Y62594D01*
X-125603Y62510D01*
X-126170Y62432D01*
Y62432D01*
X-136032D01*
Y58869D01*
X-135900D01*
Y57432D01*
X-136032D01*
Y53869D01*
X-126170D01*
Y54019D01*
X-125226D01*
X-123382Y52175D01*
Y44350D01*
X-123258Y43726D01*
X-122904Y43197D01*
X-114104Y34397D01*
X-113575Y34043D01*
X-112951Y33919D01*
X-60156D01*
X-59532Y34043D01*
X-59002Y34397D01*
X-46053Y47347D01*
X-45501Y47274D01*
X-44317Y47430D01*
X-43213Y47887D01*
X-42265Y48615D01*
X-41538Y49562D01*
X-41081Y50666D01*
X-40925Y51850D01*
X-40998Y52402D01*
X-36047Y57352D01*
X-35694Y57881D01*
X-35570Y58506D01*
Y64269D01*
X-32270D01*
Y67832D01*
X-42132D01*
Y64269D01*
X-38832D01*
Y59181D01*
X-42640Y55374D01*
X-43213Y55813D01*
X-44317Y56271D01*
X-45501Y56427D01*
X-46686Y56271D01*
X-47789Y55813D01*
X-48737Y55086D01*
X-49464Y54138D01*
X-49922Y53035D01*
X-50077Y51850D01*
X-49922Y50666D01*
X-49464Y49562D01*
X-49025Y48989D01*
X-60832Y37182D01*
X-112275D01*
X-120119Y45026D01*
Y52851D01*
X-120243Y53475D01*
X-120597Y54004D01*
X-123397Y56804D01*
X-123926Y57158D01*
X-124550Y57282D01*
X-126170D01*
Y57432D01*
X-126401D01*
Y58569D01*
X-125050D01*
X-124426Y58693D01*
X-123897Y59047D01*
X-123232Y59711D01*
X-122632Y59463D01*
Y58750D01*
X-122508Y58126D01*
X-122154Y57596D01*
X-119054Y54497D01*
X-118525Y54143D01*
X-117901Y54019D01*
X-117331D01*
Y53869D01*
X-107469D01*
Y56449D01*
X-106915Y56678D01*
X-104582Y54346D01*
X-105022Y53284D01*
X-105177Y52100D01*
X-105022Y50916D01*
X-104564Y49812D01*
X-103837Y48864D01*
X-102890Y48137D01*
X-101786Y47680D01*
X-100601Y47524D01*
X-99417Y47680D01*
X-98313Y48137D01*
X-97365Y48864D01*
X-96638Y49812D01*
X-96181Y50916D01*
X-96025Y52100D01*
X-96181Y53284D01*
X-96638Y54388D01*
X-97365Y55336D01*
X-98313Y56063D01*
X-99417Y56520D01*
X-100601Y56676D01*
X-101786Y56520D01*
X-102890Y56063D01*
X-103024Y55960D01*
X-107469Y60405D01*
Y62432D01*
X-107701D01*
Y63869D01*
X-107469D01*
Y67432D01*
X-117331D01*
Y63869D01*
X-117000D01*
Y62432D01*
X-117331D01*
Y58869D01*
X-109106D01*
X-108222Y57986D01*
X-108452Y57432D01*
X-117331D01*
X-117331Y57432D01*
Y57432D01*
X-117751Y57807D01*
X-119369Y59426D01*
Y74312D01*
X-119258Y74479D01*
X-119114Y75200D01*
X-119174Y75501D01*
X-119069Y75651D01*
X-118653Y75958D01*
X-118205Y75869D01*
X-101026D01*
X-96755Y71597D01*
X-96434Y71117D01*
X-95822Y70708D01*
X-95100Y70564D01*
X-94378Y70708D01*
X-93766Y71117D01*
X-93357Y71729D01*
X-93214Y72451D01*
X-93357Y73172D01*
X-93766Y73784D01*
X-94378Y74193D01*
X-94826Y74282D01*
X-99197Y78654D01*
X-99726Y79007D01*
X-100350Y79131D01*
X-117530D01*
X-118721Y80322D01*
X-118381Y80831D01*
X-117655Y80530D01*
X-116470Y80374D01*
X-115286Y80530D01*
X-114182Y80987D01*
X-113234Y81715D01*
X-112507Y82662D01*
X-112050Y83766D01*
X-111894Y84951D01*
X-112050Y86135D01*
X-112507Y87239D01*
X-113234Y88186D01*
X-114182Y88914D01*
X-115286Y89371D01*
X-116470Y89527D01*
X-117655Y89371D01*
X-118758Y88914D01*
X-119706Y88186D01*
X-120433Y87239D01*
X-120890Y86135D01*
X-121046Y84951D01*
X-120890Y83766D01*
X-120589Y83039D01*
X-121098Y82700D01*
X-122681Y84283D01*
X-122380Y85010D01*
X-122224Y86194D01*
X-122380Y87379D01*
X-122837Y88483D01*
X-123564Y89430D01*
X-124512Y90158D01*
X-125616Y90615D01*
X-126800Y90771D01*
D02*
G37*
G36*
Y102582D02*
X-127984Y102426D01*
X-129088Y101969D01*
X-130036Y101241D01*
X-130763Y100294D01*
X-131220Y99190D01*
X-131376Y98005D01*
X-131220Y96821D01*
X-130763Y95717D01*
X-130036Y94770D01*
X-129088Y94042D01*
X-127984Y93585D01*
X-126800Y93429D01*
X-125616Y93585D01*
X-124512Y94042D01*
X-123564Y94770D01*
X-122837Y95717D01*
X-122380Y96821D01*
X-122224Y98005D01*
X-122380Y99190D01*
X-122837Y100294D01*
X-123564Y101241D01*
X-124512Y101969D01*
X-125616Y102426D01*
X-126800Y102582D01*
D02*
G37*
G36*
X-137800Y102782D02*
X-138984Y102626D01*
X-140088Y102169D01*
X-141036Y101441D01*
X-141763Y100494D01*
X-142220Y99390D01*
X-142376Y98206D01*
X-142220Y97021D01*
X-141763Y95917D01*
X-141036Y94970D01*
X-140088Y94242D01*
X-138984Y93785D01*
X-137800Y93629D01*
X-136616Y93785D01*
X-135512Y94242D01*
X-134564Y94970D01*
X-133837Y95917D01*
X-133380Y97021D01*
X-133224Y98206D01*
X-133380Y99390D01*
X-133837Y100494D01*
X-134564Y101441D01*
X-135512Y102169D01*
X-136616Y102626D01*
X-137800Y102782D01*
D02*
G37*
G36*
X-120100Y174725D02*
X-121284Y174569D01*
X-122388Y174112D01*
X-123336Y173385D01*
X-124063Y172437D01*
X-124520Y171334D01*
X-124676Y170149D01*
X-124520Y168965D01*
X-124063Y167861D01*
X-123336Y166913D01*
X-122388Y166186D01*
X-121284Y165729D01*
X-120100Y165573D01*
X-118916Y165729D01*
X-118471Y165913D01*
X-105882Y153324D01*
Y107846D01*
X-114629Y99099D01*
X-115286Y99371D01*
X-116470Y99527D01*
X-117655Y99371D01*
X-118758Y98914D01*
X-119706Y98186D01*
X-120433Y97238D01*
X-120890Y96135D01*
X-121046Y94950D01*
X-120890Y93766D01*
X-120433Y92662D01*
X-119706Y91715D01*
X-118758Y90987D01*
X-117655Y90530D01*
X-116470Y90374D01*
X-115286Y90530D01*
X-114182Y90987D01*
X-113234Y91715D01*
X-112507Y92662D01*
X-112050Y93766D01*
X-111894Y94950D01*
X-112050Y96135D01*
X-112322Y96792D01*
X-103097Y106017D01*
X-102743Y106546D01*
X-102619Y107170D01*
Y154000D01*
X-102743Y154624D01*
X-103097Y155154D01*
X-116040Y168096D01*
X-115680Y168965D01*
X-115524Y170149D01*
X-115680Y171334D01*
X-116137Y172437D01*
X-116864Y173385D01*
X-117812Y174112D01*
X-118916Y174569D01*
X-120100Y174725D01*
D02*
G37*
G36*
X-74351Y89721D02*
X-75535Y89565D01*
X-76639Y89108D01*
X-77586Y88381D01*
X-78313Y87433D01*
X-78771Y86329D01*
X-78813Y86005D01*
X-79413Y86044D01*
Y89487D01*
X-88487D01*
Y80413D01*
X-86431D01*
Y70126D01*
X-89285Y67272D01*
X-89679Y67220D01*
X-90783Y66763D01*
X-91730Y66036D01*
X-92458Y65088D01*
X-92915Y63984D01*
X-93071Y62800D01*
X-92915Y61616D01*
X-92458Y60512D01*
X-91976Y59885D01*
Y53387D01*
X-92019Y53284D01*
X-92175Y52100D01*
X-92019Y50916D01*
X-91562Y49812D01*
X-90834Y48864D01*
X-89887Y48137D01*
X-88783Y47680D01*
X-87599Y47524D01*
X-86414Y47680D01*
X-85311Y48137D01*
X-84363Y48864D01*
X-83636Y49812D01*
X-83178Y50916D01*
X-83022Y52100D01*
X-83178Y53284D01*
X-83636Y54388D01*
X-84363Y55336D01*
X-85311Y56063D01*
X-86414Y56520D01*
X-87599Y56676D01*
X-88262Y56589D01*
X-88714Y56984D01*
Y58032D01*
X-88494Y58224D01*
X-87310Y58380D01*
X-86206Y58837D01*
X-85259Y59564D01*
X-84531Y60512D01*
X-84074Y61616D01*
X-83918Y62800D01*
X-84074Y63984D01*
X-84531Y65088D01*
X-85259Y66036D01*
X-85265Y66040D01*
X-85304Y66639D01*
X-83646Y68297D01*
X-83293Y68826D01*
X-83169Y69450D01*
Y80413D01*
X-79413D01*
Y84246D01*
X-78813Y84285D01*
X-78771Y83960D01*
X-78313Y82857D01*
X-77586Y81909D01*
X-76639Y81182D01*
X-75982Y80910D01*
Y72473D01*
X-75986Y72451D01*
X-75982Y72428D01*
Y71951D01*
X-75858Y71326D01*
X-75504Y70797D01*
X-74975Y70443D01*
X-74351Y70319D01*
X-73726Y70443D01*
X-73197Y70797D01*
X-73158Y70855D01*
X-72766Y71117D01*
X-72357Y71729D01*
X-72214Y72451D01*
X-72357Y73172D01*
X-72719Y73714D01*
Y80910D01*
X-72062Y81182D01*
X-71115Y81909D01*
X-70387Y82857D01*
X-69930Y83960D01*
X-69774Y85145D01*
X-69930Y86329D01*
X-70387Y87433D01*
X-71115Y88381D01*
X-72062Y89108D01*
X-73166Y89565D01*
X-74351Y89721D01*
D02*
G37*
G36*
Y101532D02*
X-75535Y101376D01*
X-76639Y100919D01*
X-77586Y100192D01*
X-78313Y99244D01*
X-78771Y98140D01*
X-78927Y96956D01*
X-78771Y95772D01*
X-78313Y94668D01*
X-77586Y93720D01*
X-76639Y92993D01*
X-75535Y92536D01*
X-74351Y92380D01*
X-73166Y92536D01*
X-72062Y92993D01*
X-71115Y93720D01*
X-70387Y94668D01*
X-69930Y95772D01*
X-69774Y96956D01*
X-69930Y98140D01*
X-70387Y99244D01*
X-71115Y100192D01*
X-72062Y100919D01*
X-73166Y101376D01*
X-74351Y101532D01*
D02*
G37*
G36*
X-64051D02*
X-65235Y101376D01*
X-66338Y100919D01*
X-67286Y100192D01*
X-68014Y99244D01*
X-68471Y98140D01*
X-68627Y96956D01*
X-68471Y95772D01*
X-68014Y94668D01*
X-67286Y93720D01*
X-66338Y92993D01*
X-65235Y92536D01*
X-64051Y92380D01*
X-62866Y92536D01*
X-61762Y92993D01*
X-60815Y93720D01*
X-60087Y94668D01*
X-59630Y95772D01*
X-59474Y96956D01*
X-59630Y98140D01*
X-60087Y99244D01*
X-60815Y100192D01*
X-61762Y100919D01*
X-62866Y101376D01*
X-64051Y101532D01*
D02*
G37*
G36*
X-57600Y56421D02*
X-58784Y56265D01*
X-59888Y55808D01*
X-60836Y55081D01*
X-61563Y54133D01*
X-62020Y53029D01*
X-62176Y51845D01*
X-62020Y50661D01*
X-61563Y49557D01*
X-60836Y48609D01*
X-59888Y47882D01*
X-58784Y47425D01*
X-57600Y47269D01*
X-56415Y47425D01*
X-55312Y47882D01*
X-54364Y48609D01*
X-53637Y49557D01*
X-53180Y50661D01*
X-53024Y51845D01*
X-53180Y53029D01*
X-53637Y54133D01*
X-54364Y55081D01*
X-55312Y55808D01*
X-56415Y56265D01*
X-57600Y56421D01*
D02*
G37*
G36*
X-13569Y82832D02*
X-23431D01*
Y79269D01*
X-23200D01*
Y77832D01*
X-23431D01*
Y74269D01*
X-13569D01*
X-13089Y73981D01*
X-9976Y70869D01*
Y57334D01*
X-10079Y57320D01*
X-11183Y56863D01*
X-12130Y56136D01*
X-12858Y55188D01*
X-13315Y54084D01*
X-13471Y52900D01*
X-13315Y51716D01*
X-12858Y50612D01*
X-12130Y49664D01*
X-11183Y48937D01*
X-10079Y48480D01*
X-8895Y48324D01*
X-7710Y48480D01*
X-6606Y48937D01*
X-5659Y49664D01*
X-4931Y50612D01*
X-4474Y51716D01*
X-4318Y52900D01*
X-4474Y54084D01*
X-4931Y55188D01*
X-5659Y56136D01*
X-6606Y56863D01*
X-6714Y56907D01*
Y71545D01*
X-6838Y72169D01*
X-7191Y72698D01*
X-11697Y77204D01*
X-12226Y77558D01*
X-12851Y77682D01*
X-13569D01*
Y77832D01*
X-13801D01*
Y79269D01*
X-13569D01*
Y82832D01*
D02*
G37*
G36*
X-68100Y56321D02*
X-69284Y56165D01*
X-70388Y55708D01*
X-71336Y54981D01*
X-72063Y54033D01*
X-72435Y53135D01*
X-73075Y53112D01*
X-73437Y53987D01*
X-74164Y54935D01*
X-75112Y55662D01*
X-76216Y56119D01*
X-77400Y56275D01*
X-78584Y56119D01*
X-79688Y55662D01*
X-80636Y54935D01*
X-81363Y53987D01*
X-81820Y52883D01*
X-81976Y51699D01*
X-81820Y50514D01*
X-81363Y49411D01*
X-80636Y48463D01*
X-79688Y47736D01*
X-78584Y47278D01*
X-77400Y47122D01*
X-76216Y47278D01*
X-75112Y47736D01*
X-74164Y48463D01*
X-73437Y49411D01*
X-73065Y50308D01*
X-72425Y50332D01*
X-72063Y49457D01*
X-71336Y48509D01*
X-70388Y47782D01*
X-69284Y47325D01*
X-68100Y47169D01*
X-66916Y47325D01*
X-65812Y47782D01*
X-64864Y48509D01*
X-64137Y49457D01*
X-63680Y50560D01*
X-63524Y51745D01*
X-63680Y52929D01*
X-64137Y54033D01*
X-64864Y54981D01*
X-65812Y55708D01*
X-66916Y56165D01*
X-68100Y56321D01*
D02*
G37*
G36*
X-178850Y57865D02*
X-179668Y57703D01*
X-180362Y57240D01*
X-180825Y56546D01*
X-180988Y55728D01*
Y49272D01*
X-180825Y48454D01*
X-180362Y47760D01*
X-179668Y47297D01*
X-178850Y47135D01*
X-178033Y47297D01*
X-177339Y47760D01*
X-176876Y48454D01*
X-176713Y49272D01*
Y55728D01*
X-176876Y56546D01*
X-177339Y57240D01*
X-178033Y57703D01*
X-178850Y57865D01*
D02*
G37*
G36*
X-173851D02*
X-174668Y57703D01*
X-175362Y57240D01*
X-175825Y56546D01*
X-175988Y55728D01*
Y49272D01*
X-175825Y48454D01*
X-175362Y47760D01*
X-174668Y47297D01*
X-173851Y47135D01*
X-173033Y47297D01*
X-172339Y47760D01*
X-171876Y48454D01*
X-171713Y49272D01*
Y55728D01*
X-171876Y56546D01*
X-172339Y57240D01*
X-173033Y57703D01*
X-173851Y57865D01*
D02*
G37*
G36*
X-168851D02*
X-169668Y57703D01*
X-170362Y57240D01*
X-170825Y56546D01*
X-170988Y55728D01*
Y49272D01*
X-170825Y48454D01*
X-170362Y47760D01*
X-169668Y47297D01*
X-168851Y47135D01*
X-168033Y47297D01*
X-167339Y47760D01*
X-166876Y48454D01*
X-166713Y49272D01*
Y55728D01*
X-166876Y56546D01*
X-167339Y57240D01*
X-168033Y57703D01*
X-168851Y57865D01*
D02*
G37*
G36*
X-151550Y96637D02*
X-152272Y96493D01*
X-152884Y96084D01*
X-153293Y95472D01*
X-153437Y94750D01*
Y69654D01*
X-153684Y69622D01*
X-154788Y69164D01*
X-155736Y68437D01*
X-156463Y67489D01*
X-156920Y66386D01*
X-157076Y65201D01*
X-156920Y64017D01*
X-156784Y63689D01*
X-160734Y59740D01*
X-161143Y59128D01*
X-161286Y58406D01*
Y43800D01*
X-161143Y43078D01*
X-160734Y42466D01*
X-153284Y35017D01*
X-152875Y34743D01*
X-152672Y34608D01*
X-151951Y34464D01*
X-135851D01*
X-135129Y34608D01*
X-134517Y35017D01*
X-129767Y39766D01*
X-129358Y40378D01*
X-129215Y41100D01*
Y48869D01*
X-126170D01*
Y52432D01*
X-130572D01*
X-131101Y52537D01*
X-131629Y52432D01*
X-136032D01*
Y48869D01*
X-132987D01*
Y41881D01*
X-136632Y38237D01*
X-151169D01*
X-157514Y44581D01*
Y57625D01*
X-154160Y60978D01*
X-153684Y60781D01*
X-152500Y60625D01*
X-151316Y60781D01*
X-150212Y61238D01*
X-149264Y61966D01*
X-148537Y62913D01*
X-148080Y64017D01*
X-147924Y65201D01*
X-148080Y66386D01*
X-148537Y67489D01*
X-149264Y68437D01*
X-149664Y68744D01*
Y94750D01*
X-149808Y95472D01*
X-150217Y96084D01*
X-150829Y96493D01*
X-151550Y96637D01*
D02*
G37*
G36*
X-173851Y73220D02*
X-174668Y73057D01*
X-175362Y72594D01*
X-175825Y71900D01*
X-175988Y71083D01*
Y64626D01*
X-175825Y63808D01*
X-175362Y63115D01*
X-174668Y62651D01*
X-173851Y62489D01*
X-173033Y62651D01*
X-172339Y63115D01*
X-171876Y63808D01*
X-171713Y64626D01*
Y71083D01*
X-171876Y71900D01*
X-172339Y72594D01*
X-173033Y73057D01*
X-173851Y73220D01*
D02*
G37*
G36*
X-168851D02*
X-169668Y73057D01*
X-170362Y72594D01*
X-170825Y71900D01*
X-170988Y71083D01*
Y64626D01*
X-170825Y63808D01*
X-170362Y63115D01*
X-169668Y62651D01*
X-168851Y62489D01*
X-168033Y62651D01*
X-167339Y63115D01*
X-166876Y63808D01*
X-166713Y64626D01*
Y71083D01*
X-166876Y71900D01*
X-167339Y72594D01*
X-168033Y73057D01*
X-168851Y73220D01*
D02*
G37*
G36*
X-101100Y73237D02*
X-101822Y73093D01*
X-102434Y72684D01*
X-102843Y72072D01*
X-102986Y71351D01*
X-102843Y70629D01*
X-102682Y70388D01*
Y66695D01*
X-103541Y66036D01*
X-104269Y65088D01*
X-104726Y63984D01*
X-104882Y62800D01*
X-104726Y61616D01*
X-104269Y60512D01*
X-103541Y59564D01*
X-102594Y58837D01*
X-101490Y58380D01*
X-100305Y58224D01*
X-99121Y58380D01*
X-98017Y58837D01*
X-97070Y59564D01*
X-96342Y60512D01*
X-95885Y61616D01*
X-95729Y62800D01*
X-95885Y63984D01*
X-96342Y65088D01*
X-97070Y66036D01*
X-98017Y66763D01*
X-99121Y67220D01*
X-99419Y67260D01*
Y70536D01*
X-99357Y70629D01*
X-99214Y71351D01*
X-99357Y72072D01*
X-99766Y72684D01*
X-100378Y73093D01*
X-101100Y73237D01*
D02*
G37*
G36*
X-77400Y69278D02*
X-78584Y69122D01*
X-79688Y68664D01*
X-80636Y67937D01*
X-81363Y66989D01*
X-81820Y65886D01*
X-81976Y64701D01*
X-81820Y63517D01*
X-81363Y62413D01*
X-80636Y61466D01*
X-79688Y60738D01*
X-78584Y60281D01*
X-77400Y60125D01*
X-76216Y60281D01*
X-75112Y60738D01*
X-74164Y61466D01*
X-73437Y62413D01*
X-73205Y62974D01*
X-72589Y62893D01*
X-72520Y62372D01*
X-72063Y61268D01*
X-71336Y60320D01*
X-70388Y59593D01*
X-69284Y59136D01*
X-68100Y58980D01*
X-66916Y59136D01*
X-65812Y59593D01*
X-64864Y60320D01*
X-64137Y61268D01*
X-63680Y62372D01*
X-63524Y63556D01*
X-63680Y64740D01*
X-64137Y65844D01*
X-64864Y66792D01*
X-65812Y67519D01*
X-66916Y67976D01*
X-68100Y68132D01*
X-69284Y67976D01*
X-70388Y67519D01*
X-71336Y66792D01*
X-72063Y65844D01*
X-72295Y65283D01*
X-72911Y65364D01*
X-72980Y65886D01*
X-73437Y66989D01*
X-74164Y67937D01*
X-75112Y68664D01*
X-76216Y69122D01*
X-77400Y69278D01*
D02*
G37*
G36*
X-140850Y80137D02*
X-141572Y79993D01*
X-142184Y79584D01*
X-142593Y78972D01*
X-142737Y78250D01*
Y69305D01*
X-142984Y69272D01*
X-144088Y68815D01*
X-145036Y68088D01*
X-145763Y67140D01*
X-146220Y66036D01*
X-146376Y64852D01*
X-146220Y63667D01*
X-145763Y62564D01*
X-145036Y61616D01*
X-144088Y60889D01*
X-142984Y60432D01*
X-141800Y60276D01*
X-140616Y60432D01*
X-139512Y60889D01*
X-138564Y61616D01*
X-137837Y62564D01*
X-137380Y63667D01*
X-137367Y63764D01*
X-131101D01*
X-130572Y63869D01*
X-126170D01*
Y67432D01*
X-130572D01*
X-131101Y67537D01*
X-138141D01*
X-138564Y68088D01*
X-138964Y68395D01*
Y78250D01*
X-139108Y78972D01*
X-139517Y79584D01*
X-140129Y79993D01*
X-140850Y80137D01*
D02*
G37*
G36*
X-116470Y149527D02*
X-117655Y149371D01*
X-118758Y148914D01*
X-119706Y148186D01*
X-120433Y147239D01*
X-120890Y146135D01*
X-121046Y144950D01*
X-120890Y143766D01*
X-120433Y142662D01*
X-119706Y141715D01*
X-118758Y140987D01*
X-117655Y140530D01*
X-116470Y140374D01*
X-115286Y140530D01*
X-114182Y140987D01*
X-113234Y141715D01*
X-112507Y142662D01*
X-112050Y143766D01*
X-111894Y144950D01*
X-112050Y146135D01*
X-112507Y147239D01*
X-113234Y148186D01*
X-114182Y148914D01*
X-115286Y149371D01*
X-116470Y149527D01*
D02*
G37*
G36*
X-83951D02*
X-85135Y149371D01*
X-86238Y148914D01*
X-87186Y148186D01*
X-87914Y147239D01*
X-88371Y146135D01*
X-88527Y144950D01*
X-88371Y143766D01*
X-87914Y142662D01*
X-87186Y141715D01*
X-86238Y140987D01*
X-85135Y140530D01*
X-83951Y140374D01*
X-82766Y140530D01*
X-81662Y140987D01*
X-80715Y141715D01*
X-79987Y142662D01*
X-79530Y143766D01*
X-79374Y144950D01*
X-79530Y146135D01*
X-79987Y147239D01*
X-80715Y148186D01*
X-81662Y148914D01*
X-82766Y149371D01*
X-83951Y149527D01*
D02*
G37*
G36*
X-73000Y150777D02*
X-74184Y150622D01*
X-75288Y150164D01*
X-76236Y149437D01*
X-76963Y148489D01*
X-77420Y147386D01*
X-77576Y146201D01*
X-77420Y145017D01*
X-76963Y143913D01*
X-76236Y142966D01*
X-75288Y142238D01*
X-74184Y141781D01*
X-73000Y141625D01*
X-71816Y141781D01*
X-70712Y142238D01*
X-69764Y142966D01*
X-69037Y143913D01*
X-68580Y145017D01*
X-68424Y146201D01*
X-68580Y147386D01*
X-69037Y148489D01*
X-69764Y149437D01*
X-70712Y150164D01*
X-71816Y150622D01*
X-73000Y150777D01*
D02*
G37*
G36*
X-155369Y143631D02*
X-158932D01*
Y133769D01*
X-155369D01*
Y138114D01*
X-151050D01*
X-150329Y138257D01*
X-149717Y138666D01*
X-149308Y139278D01*
X-149164Y140000D01*
X-149308Y140722D01*
X-149717Y141334D01*
X-150329Y141743D01*
X-151050Y141886D01*
X-155369D01*
Y143631D01*
D02*
G37*
G36*
X-137550Y145132D02*
X-138735Y144976D01*
X-139839Y144519D01*
X-140786Y143792D01*
X-141514Y142844D01*
X-141971Y141740D01*
X-142127Y140556D01*
X-141971Y139372D01*
X-141514Y138268D01*
X-140786Y137320D01*
X-139839Y136593D01*
X-138735Y136136D01*
X-137550Y135980D01*
X-136366Y136136D01*
X-135262Y136593D01*
X-134315Y137320D01*
X-133587Y138268D01*
X-133130Y139372D01*
X-132974Y140556D01*
X-133130Y141740D01*
X-133587Y142844D01*
X-134315Y143792D01*
X-135262Y144519D01*
X-136366Y144976D01*
X-137550Y145132D01*
D02*
G37*
G36*
X-126850Y145628D02*
X-128035Y145472D01*
X-129139Y145015D01*
X-130086Y144288D01*
X-130814Y143340D01*
X-131271Y142236D01*
X-131427Y141052D01*
X-131271Y139867D01*
X-130814Y138764D01*
X-130086Y137816D01*
X-129139Y137089D01*
X-128035Y136632D01*
X-126850Y136476D01*
X-125666Y136632D01*
X-124562Y137089D01*
X-123615Y137816D01*
X-122887Y138764D01*
X-122430Y139867D01*
X-122274Y141052D01*
X-122430Y142236D01*
X-122887Y143340D01*
X-123615Y144288D01*
X-124562Y145015D01*
X-125666Y145472D01*
X-126850Y145628D01*
D02*
G37*
G36*
X-129850Y176171D02*
X-131035Y176015D01*
X-132139Y175557D01*
X-133086Y174830D01*
X-133814Y173882D01*
X-134271Y172779D01*
X-134427Y171594D01*
X-134271Y170410D01*
X-133814Y169306D01*
X-133086Y168359D01*
X-132139Y167631D01*
X-131035Y167174D01*
X-129850Y167018D01*
X-128666Y167174D01*
X-127562Y167631D01*
X-126615Y168359D01*
X-125887Y169306D01*
X-125430Y170410D01*
X-125274Y171594D01*
X-125430Y172779D01*
X-125887Y173882D01*
X-126615Y174830D01*
X-127562Y175557D01*
X-128666Y176015D01*
X-129850Y176171D01*
D02*
G37*
G36*
X-120100Y187728D02*
X-121284Y187572D01*
X-122388Y187115D01*
X-123336Y186388D01*
X-124063Y185440D01*
X-124520Y184336D01*
X-124676Y183152D01*
X-124520Y181967D01*
X-124063Y180864D01*
X-123336Y179916D01*
X-122388Y179189D01*
X-121284Y178732D01*
X-120100Y178576D01*
X-118916Y178732D01*
X-118158Y179045D01*
X-111779Y172666D01*
X-111167Y172257D01*
X-110445Y172114D01*
X-108800D01*
Y169950D01*
X-108610Y169491D01*
X-108150Y169301D01*
X-99251D01*
X-98791Y169491D01*
X-98601Y169950D01*
Y177650D01*
X-98770Y178059D01*
Y178131D01*
X-98844D01*
X-99251Y178300D01*
X-108150D01*
X-108557Y178131D01*
X-108632D01*
Y178057D01*
X-108800Y177650D01*
Y175886D01*
X-109664D01*
X-115699Y181921D01*
X-115680Y181967D01*
X-115524Y183152D01*
X-115680Y184336D01*
X-116137Y185440D01*
X-116864Y186388D01*
X-117812Y187115D01*
X-118916Y187572D01*
X-120100Y187728D01*
D02*
G37*
G36*
X-129850Y187982D02*
X-131035Y187826D01*
X-132139Y187369D01*
X-133086Y186641D01*
X-133814Y185694D01*
X-134271Y184590D01*
X-134427Y183405D01*
X-134271Y182221D01*
X-133814Y181117D01*
X-133086Y180170D01*
X-132139Y179442D01*
X-131035Y178985D01*
X-129850Y178829D01*
X-128666Y178985D01*
X-127562Y179442D01*
X-126615Y180170D01*
X-125887Y181117D01*
X-125430Y182221D01*
X-125274Y183405D01*
X-125430Y184590D01*
X-125887Y185694D01*
X-126615Y186641D01*
X-127562Y187369D01*
X-128666Y187826D01*
X-129850Y187982D01*
D02*
G37*
G36*
X-116470Y159527D02*
X-117655Y159371D01*
X-118758Y158914D01*
X-119706Y158186D01*
X-120433Y157238D01*
X-120890Y156135D01*
X-121046Y154950D01*
X-120890Y153766D01*
X-120433Y152662D01*
X-119706Y151715D01*
X-118758Y150987D01*
X-117655Y150530D01*
X-116470Y150374D01*
X-115286Y150530D01*
X-114182Y150987D01*
X-113234Y151715D01*
X-112507Y152662D01*
X-112050Y153766D01*
X-111894Y154950D01*
X-112050Y156135D01*
X-112507Y157238D01*
X-113234Y158186D01*
X-114182Y158914D01*
X-115286Y159371D01*
X-116470Y159527D01*
D02*
G37*
G36*
X-73550Y187277D02*
X-74735Y187122D01*
X-75839Y186664D01*
X-76786Y185937D01*
X-77513Y184989D01*
X-77971Y183886D01*
X-78056Y183237D01*
X-85000D01*
X-85439Y183149D01*
X-89350D01*
X-89394Y183132D01*
X-89931D01*
Y182667D01*
X-90000Y182500D01*
Y175500D01*
X-89931Y175333D01*
Y174569D01*
X-81172D01*
X-80942Y174015D01*
X-81826Y173132D01*
X-89931D01*
Y169569D01*
X-80069D01*
Y170274D01*
X-77983Y172360D01*
X-77513Y171987D01*
X-77971Y170883D01*
X-78127Y169699D01*
X-77971Y168514D01*
X-77513Y167411D01*
X-77398Y167260D01*
X-81026Y163631D01*
X-86350D01*
X-86351Y163631D01*
X-86975Y163507D01*
X-87504Y163154D01*
X-97504Y153154D01*
X-97858Y152624D01*
X-97982Y152000D01*
Y107351D01*
X-97858Y106726D01*
X-97504Y106197D01*
X-88099Y96792D01*
X-88371Y96135D01*
X-88527Y94950D01*
X-88371Y93766D01*
X-87914Y92662D01*
X-87186Y91715D01*
X-86238Y90987D01*
X-85135Y90530D01*
X-83951Y90374D01*
X-82766Y90530D01*
X-81662Y90987D01*
X-80715Y91715D01*
X-79987Y92662D01*
X-79530Y93766D01*
X-79374Y94950D01*
X-79530Y96135D01*
X-79987Y97238D01*
X-80715Y98186D01*
X-81662Y98914D01*
X-82766Y99371D01*
X-83951Y99527D01*
X-85135Y99371D01*
X-85792Y99099D01*
X-94719Y108026D01*
Y151324D01*
X-85675Y160369D01*
X-80351D01*
X-79726Y160493D01*
X-79197Y160846D01*
X-74756Y165287D01*
X-74735Y165278D01*
X-73550Y165122D01*
X-72366Y165278D01*
X-71262Y165735D01*
X-70315Y166463D01*
X-69587Y167411D01*
X-69130Y168514D01*
X-68974Y169699D01*
X-69130Y170883D01*
X-69587Y171987D01*
X-70315Y172934D01*
X-71262Y173662D01*
X-72366Y174119D01*
X-72879Y174186D01*
X-73063Y174548D01*
X-73087Y174819D01*
X-73035Y174869D01*
X-66619D01*
X-66415Y174269D01*
X-66986Y173830D01*
X-67713Y172882D01*
X-68171Y171779D01*
X-68327Y170594D01*
X-68171Y169410D01*
X-67713Y168306D01*
X-66986Y167359D01*
X-66039Y166631D01*
X-65382Y166359D01*
Y161113D01*
X-66084Y161020D01*
X-67188Y160563D01*
X-68136Y159836D01*
X-68863Y158888D01*
X-69320Y157784D01*
X-69476Y156600D01*
X-69320Y155416D01*
X-68863Y154312D01*
X-68136Y153364D01*
X-67188Y152637D01*
X-66084Y152180D01*
X-64900Y152024D01*
X-63716Y152180D01*
X-62612Y152637D01*
X-61664Y153364D01*
X-60937Y154312D01*
X-60480Y155416D01*
X-60324Y156600D01*
X-60480Y157784D01*
X-60937Y158888D01*
X-61664Y159836D01*
X-62119Y160185D01*
Y166359D01*
X-61462Y166631D01*
X-60515Y167359D01*
X-59787Y168306D01*
X-59330Y169410D01*
X-59174Y170594D01*
X-59330Y171779D01*
X-59787Y172882D01*
X-59295Y173188D01*
X-50160Y164053D01*
Y156480D01*
X-50856Y156269D01*
X-52020Y155647D01*
X-53041Y154809D01*
X-53878Y153789D01*
X-54501Y152625D01*
X-54619Y152235D01*
X-55219Y152324D01*
Y162611D01*
X-55108Y162778D01*
X-54964Y163500D01*
X-55108Y164222D01*
X-55517Y164834D01*
X-56129Y165243D01*
X-56850Y165386D01*
X-57572Y165243D01*
X-58184Y164834D01*
X-58593Y164222D01*
X-58737Y163500D01*
X-58593Y162778D01*
X-58482Y162611D01*
Y148321D01*
X-58885Y148156D01*
X-59082Y148152D01*
X-59764Y149041D01*
X-60712Y149769D01*
X-61816Y150226D01*
X-63000Y150382D01*
X-64184Y150226D01*
X-65288Y149769D01*
X-66236Y149041D01*
X-66963Y148094D01*
X-67420Y146990D01*
X-67576Y145806D01*
X-67420Y144621D01*
X-66963Y143517D01*
X-66236Y142570D01*
X-65288Y141842D01*
X-64184Y141385D01*
X-63000Y141229D01*
X-61816Y141385D01*
X-60712Y141842D01*
X-59764Y142570D01*
X-59082Y143459D01*
X-58885Y143455D01*
X-58482Y143290D01*
Y140425D01*
X-60831Y138076D01*
X-60999D01*
X-61816Y138415D01*
X-63000Y138571D01*
X-64184Y138415D01*
X-65288Y137958D01*
X-66236Y137230D01*
X-66963Y136283D01*
X-67420Y135179D01*
X-67576Y133994D01*
X-67420Y132810D01*
X-66963Y131706D01*
X-66236Y130759D01*
X-65288Y130031D01*
X-64184Y129574D01*
X-63000Y129418D01*
X-61816Y129574D01*
X-60712Y130031D01*
X-59764Y130759D01*
X-59037Y131706D01*
X-58580Y132810D01*
X-58424Y133994D01*
X-58580Y135179D01*
X-58736Y135557D01*
X-55697Y138596D01*
X-55343Y139125D01*
X-55219Y139750D01*
Y147771D01*
X-54619Y147860D01*
X-54501Y147470D01*
X-53878Y146306D01*
X-53041Y145285D01*
X-52020Y144448D01*
X-50856Y143825D01*
X-49593Y143442D01*
X-48279Y143313D01*
X-46965Y143442D01*
X-45701Y143825D01*
X-44537Y144448D01*
X-43516Y145285D01*
X-42679Y146306D01*
X-42057Y147470D01*
X-41673Y148733D01*
X-41544Y150047D01*
X-41673Y151361D01*
X-42057Y152625D01*
X-42679Y153789D01*
X-43516Y154809D01*
X-44537Y155647D01*
X-45701Y156269D01*
X-46898Y156632D01*
Y164729D01*
X-47022Y165354D01*
X-47376Y165883D01*
X-59146Y177654D01*
X-59676Y178007D01*
X-60300Y178131D01*
X-60882D01*
X-61086Y178731D01*
X-60515Y179170D01*
X-59787Y180117D01*
X-59330Y181221D01*
X-59174Y182405D01*
X-59330Y183590D01*
X-59787Y184694D01*
X-60515Y185641D01*
X-61462Y186369D01*
X-62566Y186826D01*
X-63750Y186982D01*
X-64935Y186826D01*
X-66039Y186369D01*
X-66986Y185641D01*
X-67713Y184694D01*
X-68171Y183590D01*
X-68327Y182405D01*
X-68171Y181221D01*
X-67713Y180117D01*
X-66986Y179170D01*
X-66415Y178731D01*
X-66619Y178131D01*
X-71160D01*
X-71279Y178731D01*
X-71262Y178738D01*
X-70315Y179465D01*
X-69587Y180413D01*
X-69130Y181517D01*
X-68974Y182701D01*
X-69130Y183886D01*
X-69587Y184989D01*
X-70315Y185937D01*
X-71262Y186664D01*
X-72366Y187122D01*
X-73550Y187277D01*
D02*
G37*
G36*
X-184000Y166127D02*
X-185184Y165971D01*
X-186288Y165514D01*
X-187236Y164786D01*
X-187963Y163839D01*
X-188420Y162735D01*
X-188576Y161550D01*
X-188420Y160366D01*
X-187963Y159262D01*
X-187236Y158315D01*
X-186288Y157587D01*
X-185184Y157130D01*
X-184000Y156974D01*
X-182816Y157130D01*
X-181712Y157587D01*
X-180764Y158315D01*
X-180037Y159262D01*
X-179580Y160366D01*
X-179424Y161550D01*
X-179580Y162735D01*
X-180037Y163839D01*
X-180764Y164786D01*
X-181712Y165514D01*
X-182816Y165971D01*
X-184000Y166127D01*
D02*
G37*
G36*
X-83951Y139527D02*
X-85135Y139371D01*
X-86238Y138914D01*
X-87186Y138186D01*
X-87914Y137239D01*
X-88371Y136135D01*
X-88527Y134950D01*
X-88371Y133766D01*
X-87914Y132662D01*
X-87186Y131715D01*
X-86238Y130987D01*
X-85135Y130530D01*
X-83951Y130374D01*
X-82766Y130530D01*
X-81662Y130987D01*
X-80715Y131715D01*
X-79987Y132662D01*
X-79530Y133766D01*
X-79374Y134950D01*
X-79530Y136135D01*
X-79987Y137239D01*
X-80715Y138186D01*
X-81662Y138914D01*
X-82766Y139371D01*
X-83951Y139527D01*
D02*
G37*
G36*
Y119527D02*
X-85135Y119371D01*
X-86238Y118913D01*
X-87186Y118186D01*
X-87914Y117238D01*
X-88371Y116135D01*
X-88527Y114951D01*
X-88371Y113766D01*
X-87914Y112662D01*
X-87186Y111715D01*
X-86238Y110987D01*
X-85135Y110530D01*
X-83951Y110374D01*
X-82766Y110530D01*
X-81662Y110987D01*
X-80715Y111715D01*
X-79987Y112662D01*
X-79530Y113766D01*
X-79374Y114951D01*
X-79530Y116135D01*
X-79987Y117238D01*
X-80715Y118186D01*
X-81662Y118913D01*
X-82766Y119371D01*
X-83951Y119527D01*
D02*
G37*
G36*
X-126599Y121527D02*
X-127783Y121371D01*
X-128887Y120914D01*
X-129834Y120186D01*
X-130562Y119238D01*
X-131019Y118135D01*
X-131175Y116951D01*
X-131019Y115766D01*
X-130562Y114662D01*
X-129834Y113715D01*
X-128887Y112987D01*
X-127783Y112530D01*
X-126599Y112374D01*
X-125414Y112530D01*
X-124311Y112987D01*
X-123363Y113715D01*
X-122635Y114662D01*
X-122178Y115766D01*
X-122022Y116951D01*
X-122178Y118135D01*
X-122635Y119238D01*
X-123363Y120186D01*
X-124311Y120914D01*
X-125414Y121371D01*
X-126599Y121527D01*
D02*
G37*
G36*
X-73601Y121927D02*
X-74786Y121771D01*
X-75889Y121314D01*
X-76837Y120586D01*
X-77564Y119639D01*
X-78022Y118535D01*
X-78177Y117350D01*
X-78022Y116166D01*
X-77564Y115062D01*
X-76837Y114115D01*
X-75889Y113387D01*
X-74786Y112930D01*
X-73601Y112774D01*
X-72417Y112930D01*
X-71313Y113387D01*
X-70366Y114115D01*
X-69638Y115062D01*
X-69181Y116166D01*
X-69025Y117350D01*
X-69181Y118535D01*
X-69638Y119639D01*
X-70366Y120586D01*
X-71313Y121314D01*
X-72417Y121771D01*
X-73601Y121927D01*
D02*
G37*
G36*
X-116470Y109527D02*
X-117655Y109371D01*
X-118758Y108914D01*
X-119706Y108186D01*
X-120433Y107238D01*
X-120890Y106135D01*
X-121046Y104950D01*
X-120890Y103766D01*
X-120433Y102662D01*
X-119706Y101715D01*
X-118758Y100987D01*
X-117655Y100530D01*
X-116470Y100374D01*
X-115286Y100530D01*
X-114182Y100987D01*
X-113234Y101715D01*
X-112507Y102662D01*
X-112050Y103766D01*
X-111894Y104950D01*
X-112050Y106135D01*
X-112507Y107238D01*
X-113234Y108186D01*
X-114182Y108914D01*
X-115286Y109371D01*
X-116470Y109527D01*
D02*
G37*
G36*
X-83951D02*
X-85135Y109371D01*
X-86238Y108914D01*
X-87186Y108186D01*
X-87914Y107238D01*
X-88371Y106135D01*
X-88527Y104950D01*
X-88371Y103766D01*
X-87914Y102662D01*
X-87186Y101715D01*
X-86238Y100987D01*
X-85135Y100530D01*
X-83951Y100374D01*
X-82766Y100530D01*
X-81662Y100987D01*
X-80715Y101715D01*
X-79987Y102662D01*
X-79530Y103766D01*
X-79374Y104950D01*
X-79530Y106135D01*
X-79987Y107238D01*
X-80715Y108186D01*
X-81662Y108914D01*
X-82766Y109371D01*
X-83951Y109527D01*
D02*
G37*
G36*
X-116470Y119527D02*
X-117655Y119371D01*
X-118758Y118913D01*
X-119706Y118186D01*
X-120433Y117238D01*
X-120890Y116135D01*
X-121046Y114951D01*
X-120890Y113766D01*
X-120433Y112662D01*
X-119706Y111715D01*
X-118758Y110987D01*
X-117655Y110530D01*
X-116470Y110374D01*
X-115286Y110530D01*
X-114182Y110987D01*
X-113234Y111715D01*
X-112507Y112662D01*
X-112050Y113766D01*
X-111894Y114951D01*
X-112050Y116135D01*
X-112507Y117238D01*
X-113234Y118186D01*
X-114182Y118913D01*
X-115286Y119371D01*
X-116470Y119527D01*
D02*
G37*
G36*
X-137550Y133321D02*
X-138735Y133165D01*
X-139839Y132708D01*
X-140786Y131981D01*
X-141514Y131033D01*
X-141971Y129929D01*
X-142127Y128745D01*
X-141971Y127560D01*
X-141514Y126457D01*
X-140786Y125509D01*
X-139839Y124782D01*
X-138735Y124325D01*
X-137550Y124169D01*
X-136366Y124325D01*
X-135262Y124782D01*
X-134315Y125509D01*
X-133587Y126457D01*
X-133130Y127560D01*
X-132974Y128745D01*
X-133130Y129929D01*
X-133587Y131033D01*
X-134315Y131981D01*
X-135262Y132708D01*
X-136366Y133165D01*
X-137550Y133321D01*
D02*
G37*
G36*
X-73000Y137775D02*
X-74184Y137619D01*
X-75288Y137162D01*
X-76236Y136434D01*
X-76963Y135487D01*
X-77420Y134383D01*
X-77576Y133199D01*
X-77420Y132014D01*
X-76963Y130911D01*
X-76236Y129963D01*
X-75288Y129236D01*
X-74184Y128778D01*
X-73000Y128622D01*
X-71816Y128778D01*
X-70712Y129236D01*
X-69764Y129963D01*
X-69037Y130911D01*
X-68580Y132014D01*
X-68424Y133199D01*
X-68580Y134383D01*
X-69037Y135487D01*
X-69764Y136434D01*
X-70712Y137162D01*
X-71816Y137619D01*
X-73000Y137775D01*
D02*
G37*
G36*
X-116470Y139527D02*
X-117655Y139371D01*
X-118758Y138914D01*
X-119706Y138186D01*
X-120433Y137239D01*
X-120890Y136135D01*
X-121046Y134950D01*
X-120890Y133766D01*
X-120433Y132662D01*
X-119706Y131715D01*
X-118758Y130987D01*
X-117655Y130530D01*
X-116470Y130374D01*
X-115286Y130530D01*
X-114182Y130987D01*
X-113234Y131715D01*
X-112507Y132662D01*
X-112050Y133766D01*
X-111894Y134950D01*
X-112050Y136135D01*
X-112507Y137239D01*
X-113234Y138186D01*
X-114182Y138914D01*
X-115286Y139371D01*
X-116470Y139527D01*
D02*
G37*
G36*
Y129527D02*
X-117655Y129371D01*
X-118758Y128913D01*
X-119706Y128186D01*
X-120433Y127239D01*
X-120890Y126135D01*
X-121046Y124951D01*
X-120890Y123766D01*
X-120433Y122662D01*
X-119706Y121715D01*
X-118758Y120987D01*
X-117655Y120530D01*
X-116470Y120374D01*
X-115286Y120530D01*
X-114182Y120987D01*
X-113234Y121715D01*
X-112507Y122662D01*
X-112050Y123766D01*
X-111894Y124951D01*
X-112050Y126135D01*
X-112507Y127239D01*
X-113234Y128186D01*
X-114182Y128913D01*
X-115286Y129371D01*
X-116470Y129527D01*
D02*
G37*
G36*
X-83951D02*
X-85135Y129371D01*
X-86238Y128913D01*
X-87186Y128186D01*
X-87914Y127239D01*
X-88371Y126135D01*
X-88527Y124951D01*
X-88371Y123766D01*
X-87914Y122662D01*
X-87186Y121715D01*
X-86238Y120987D01*
X-85135Y120530D01*
X-83951Y120374D01*
X-82766Y120530D01*
X-81662Y120987D01*
X-80715Y121715D01*
X-79987Y122662D01*
X-79530Y123766D01*
X-79374Y124951D01*
X-79530Y126135D01*
X-79987Y127239D01*
X-80715Y128186D01*
X-81662Y128913D01*
X-82766Y129371D01*
X-83951Y129527D01*
D02*
G37*
G36*
X-126850Y132625D02*
X-128035Y132469D01*
X-129139Y132012D01*
X-130086Y131285D01*
X-130814Y130337D01*
X-131271Y129234D01*
X-131427Y128049D01*
X-131271Y126865D01*
X-130814Y125761D01*
X-130086Y124813D01*
X-129139Y124086D01*
X-128035Y123629D01*
X-126850Y123473D01*
X-125666Y123629D01*
X-124562Y124086D01*
X-123615Y124813D01*
X-122887Y125761D01*
X-122430Y126865D01*
X-122274Y128049D01*
X-122430Y129234D01*
X-122887Y130337D01*
X-123615Y131285D01*
X-124562Y132012D01*
X-125666Y132469D01*
X-126850Y132625D01*
D02*
G37*
%LPD*%
D10*
X-101956Y52350D02*
Y54106D01*
X-109301Y60650D02*
X-102656Y54005D01*
X-112400Y60650D02*
X-109301D01*
X-119851Y169600D02*
Y171594D01*
X-102550Y62945D02*
X-102156Y62550D01*
X-157150Y138700D02*
X-155851Y140000D01*
X-158551Y148000D02*
X-151050D01*
X-162151Y151600D02*
X-158551Y148000D01*
X-162151Y151600D02*
Y157401D01*
X-73851Y148756D02*
X-73450Y148356D01*
X-105201Y166350D02*
X-103701D01*
X-90345Y52551D02*
X-90145Y52350D01*
X-24651Y71051D02*
X-18500D01*
X-48329Y88572D02*
Y91054D01*
X-101819Y176350D02*
X-101228D01*
X-172007Y165279D02*
X-171298Y165988D01*
X-159976D02*
X-159487D01*
X-84800Y84101D02*
X-83951Y84951D01*
X-20801Y59451D02*
X-20700D01*
X-25850Y64500D02*
X-20801Y59451D01*
X-37201Y71051D02*
X-36650Y70500D01*
X-37201Y71051D02*
X-31500D01*
X-27850Y67401D01*
X-27751Y74151D02*
X-24651Y71051D01*
X-37201Y76051D02*
X-33400D01*
X-25850Y68501D01*
Y64500D02*
Y68501D01*
X-74351Y168000D02*
Y170294D01*
X-27850Y60045D02*
Y67401D01*
Y60045D02*
X-20956Y53150D01*
X-20156D01*
X-178256Y96351D02*
X-177500Y95595D01*
X-27751Y74151D02*
Y94350D01*
X-36600Y103200D02*
X-27751Y94350D01*
X-48000Y103200D02*
X-36600D01*
D11*
X-74351Y71951D02*
Y85145D01*
X-60950Y75551D02*
X-57200Y79301D01*
X-126251Y85545D02*
X-118205Y77500D01*
X-100350D01*
X-95201Y72350D01*
X-54600Y67756D02*
Y82301D01*
X-57500Y64856D02*
X-54600Y67756D01*
X-57500Y63951D02*
Y64856D01*
X-117901Y55651D02*
X-116751D01*
X-96351Y152000D02*
X-86351Y162000D01*
X-96351Y107351D02*
Y152000D01*
Y107351D02*
X-83951Y94950D01*
X-119851Y169600D02*
X-104251Y154000D01*
Y107170D02*
Y154000D01*
X-116470Y94950D02*
X-104251Y107170D01*
X-167150Y157401D02*
Y163200D01*
X-163700Y166650D01*
X-152689Y192500D02*
X-146351Y186161D01*
X-169106Y192500D02*
X-152689D01*
X-175556Y186050D02*
X-169106Y192500D01*
X-101050Y62445D02*
Y71461D01*
X-112951Y35550D02*
X-60156D01*
X-125050Y60200D02*
X-123851Y61400D01*
Y71551D01*
X-60300Y176500D02*
X-48529Y164729D01*
X-76151Y176500D02*
X-60300D01*
X-81300Y171351D02*
X-76151Y176500D01*
X-85000Y171351D02*
X-81300D01*
X-85950Y191900D02*
X-61976D01*
X-92351Y185500D02*
X-85950Y191900D01*
X-170056Y127951D02*
X-167150Y130856D01*
Y138700D01*
X-178850Y63900D02*
Y67854D01*
X-182551Y60200D02*
X-178850Y63900D01*
X-161945Y176451D02*
Y186050D01*
Y166650D02*
Y176451D01*
X-158245Y108651D02*
Y118251D01*
Y127951D01*
X-162151Y131856D02*
X-158245Y127951D01*
X-162151Y131856D02*
Y138700D01*
X-92351Y171500D02*
Y185500D01*
X-97500Y166350D02*
X-92351Y171500D01*
X-103701Y166350D02*
X-97500D01*
X-146351Y128850D02*
Y186161D01*
X-173756Y166650D02*
Y176451D01*
X-8345Y53150D02*
Y71545D01*
X-12851Y76051D02*
X-8345Y71545D01*
X-18500Y76051D02*
X-12851D01*
X-172007Y158366D02*
Y165279D01*
X-146351Y72851D02*
Y128850D01*
X-60156Y35550D02*
X-37201Y58506D01*
Y66050D01*
X-121750Y44350D02*
X-112951Y35550D01*
X-86351Y162000D02*
X-80351D01*
X-74351Y168000D01*
X-183851Y67854D02*
Y107200D01*
X-188100Y62651D02*
Y74050D01*
Y62651D02*
X-185650Y60200D01*
X-182551D01*
X-171756Y108551D02*
X-165356Y102150D01*
X-146351D01*
X-90345Y52551D02*
Y63906D01*
X-84800Y69450D01*
Y84101D01*
X-54600Y82301D02*
X-48329Y88572D01*
X-73550Y170294D02*
X-73251Y170594D01*
X-61976Y191900D02*
X-48429Y178354D01*
X-48529Y149254D02*
Y164729D01*
X-128400Y60200D02*
X-125050D01*
X-131101Y55651D02*
X-124550D01*
X-121750Y52851D01*
Y44350D02*
Y52851D01*
X-121001Y58750D02*
Y75200D01*
Y58750D02*
X-117901Y55651D01*
X-170056Y118846D02*
Y127951D01*
X-183851Y107200D02*
X-170491Y120560D01*
X-64600Y156200D02*
X-63750Y157050D01*
Y170594D01*
X-62756Y136445D02*
X-60155D01*
X-56850Y139750D01*
Y163500D01*
X-57200Y79301D02*
Y101400D01*
X-48379Y110221D01*
Y120847D01*
D12*
X-191551Y20245D02*
X-180350Y9045D01*
X-191451Y52551D02*
X-184851D01*
X-191551Y20245D02*
Y192251D01*
X-191451Y192350D01*
X-76056Y181351D02*
X-74351Y183056D01*
X-85000Y181351D02*
X-76056D01*
X-110445Y174000D02*
X-102850D01*
X-119851Y183405D02*
X-110445Y174000D01*
X-155851Y140000D02*
X-151050D01*
X-179173Y136909D02*
X-172007D01*
X-191350Y138850D02*
X-191156Y139045D01*
X-182551D01*
X-179271Y136811D02*
X-179173Y136909D01*
X-139956Y65650D02*
X-131101D01*
X-141451Y64756D02*
X-140556Y65650D01*
X-45456Y81050D02*
X-37201D01*
X-48151Y78356D02*
X-45456Y81050D01*
X-140850Y64756D02*
Y78250D01*
X-163850Y67805D02*
Y75156D01*
X-164945Y77350D02*
Y86150D01*
X-151951Y36351D02*
X-135851D01*
X-131101Y41100D01*
Y50651D01*
X-151550Y66256D02*
Y94750D01*
X-109300Y181351D02*
X-103701D01*
X-110300Y182351D02*
X-109300Y181351D01*
X-110300Y182351D02*
Y188951D01*
X-110256Y187906D02*
Y189000D01*
X-178156Y86950D02*
X-177500Y87606D01*
Y95595D01*
X-159400Y43800D02*
X-151951Y36351D01*
X-159400Y43800D02*
Y58406D01*
X-151550Y66256D01*
X-137850Y165350D02*
Y192000D01*
Y165350D02*
X-127850Y155350D01*
X-126645D01*
X-126445Y153000D02*
X-124745Y151300D01*
D13*
X-196850Y0D02*
Y196850D01*
Y0D02*
X0D01*
Y196850D01*
X-196850D02*
X0D01*
D14*
X-47800Y64549D02*
D03*
Y77552D02*
D03*
X-180600Y110351D02*
D03*
X-188800Y35451D02*
D03*
X-184000Y161550D02*
D03*
X-77400Y64701D02*
D03*
Y51699D02*
D03*
X-152500Y65201D02*
D03*
Y52199D02*
D03*
X-164749Y77650D02*
D03*
X-177752D02*
D03*
X-170652Y118251D02*
D03*
X-157649D02*
D03*
X-73000Y133199D02*
D03*
Y146201D02*
D03*
X-181200Y138149D02*
D03*
Y151152D02*
D03*
X-161599Y166900D02*
D03*
X-174601D02*
D03*
X-139401Y153050D02*
D03*
X-126399D02*
D03*
X-126850Y141052D02*
D03*
Y128049D02*
D03*
X-139601Y116951D02*
D03*
X-126599D02*
D03*
X-60599Y117350D02*
D03*
X-73601D02*
D03*
X-180350Y8449D02*
D03*
Y21452D02*
D03*
X-45501Y51850D02*
D03*
X-32499D02*
D03*
X-141800Y51849D02*
D03*
Y64852D02*
D03*
X-87599Y52100D02*
D03*
X-100601D02*
D03*
X-120100Y170149D02*
D03*
Y183152D02*
D03*
X-96799Y188951D02*
D03*
X-109801D02*
D03*
X-100305Y62800D02*
D03*
X-88494D02*
D03*
X-68100Y51745D02*
D03*
Y63556D02*
D03*
X-57600Y63656D02*
D03*
Y51845D02*
D03*
X-158245Y127951D02*
D03*
X-170056D02*
D03*
X-158145Y108551D02*
D03*
X-169956D02*
D03*
X-63000Y145806D02*
D03*
Y133994D02*
D03*
X-64051Y85145D02*
D03*
Y96956D02*
D03*
X-173705Y186300D02*
D03*
X-161895D02*
D03*
X-161995Y176600D02*
D03*
X-173805D02*
D03*
X-177256Y96351D02*
D03*
X-165445D02*
D03*
X-137550Y128745D02*
D03*
Y140556D02*
D03*
X-74351Y85145D02*
D03*
Y96956D02*
D03*
X-165345Y86950D02*
D03*
X-177156D02*
D03*
X-137800Y98206D02*
D03*
Y86395D02*
D03*
X-126800Y98005D02*
D03*
Y86194D02*
D03*
X-8895Y52900D02*
D03*
X-20706D02*
D03*
X-129850Y183405D02*
D03*
Y171594D02*
D03*
X-83951Y94950D02*
D03*
Y104950D02*
D03*
Y114951D02*
D03*
Y124951D02*
D03*
Y134950D02*
D03*
Y144950D02*
D03*
Y154950D02*
D03*
X-116470Y84951D02*
D03*
Y94950D02*
D03*
Y104950D02*
D03*
Y114951D02*
D03*
Y124951D02*
D03*
Y134950D02*
D03*
Y144950D02*
D03*
Y154950D02*
D03*
X-8021Y81511D02*
D03*
Y101590D02*
D03*
X-8221Y110611D02*
D03*
Y130690D02*
D03*
Y169011D02*
D03*
Y189090D02*
D03*
X-8121Y139811D02*
D03*
Y159890D02*
D03*
X-64900Y156600D02*
D03*
X-152800Y172300D02*
D03*
X-73550Y169699D02*
D03*
Y182701D02*
D03*
X-63750Y170594D02*
D03*
Y182405D02*
D03*
D15*
X-83951Y84951D02*
D03*
D16*
X-48179Y91747D02*
D03*
X-48379Y120847D02*
D03*
Y179247D02*
D03*
X-48279Y150047D02*
D03*
D17*
X-157399Y8850D02*
D03*
X-8502D02*
D03*
D18*
X-74100Y72451D02*
D03*
X-95100D02*
D03*
X-146250Y71500D02*
D03*
X-123851Y71551D02*
D03*
X-191350Y68000D02*
D03*
X-151050Y140000D02*
D03*
Y148000D02*
D03*
X-146351Y163000D02*
D03*
X-56850Y163500D02*
D03*
X-137850Y192000D02*
D03*
X-191451Y192350D02*
D03*
X-191350Y138850D02*
D03*
X-140850Y78250D02*
D03*
X-151550Y94750D02*
D03*
X-146351Y128850D02*
D03*
X-146250Y183651D02*
D03*
X-188100Y74050D02*
D03*
X-20700Y59451D02*
D03*
X-101100Y71351D02*
D03*
X-60950Y75551D02*
D03*
X-121001Y75200D02*
D03*
X-146400Y102300D02*
D03*
X-48000Y103200D02*
D03*
D19*
X-172151Y157401D02*
D03*
X-167150D02*
D03*
X-162151D02*
D03*
X-157150D02*
D03*
X-172151Y138700D02*
D03*
X-167150D02*
D03*
X-162151D02*
D03*
X-157150D02*
D03*
D20*
X-18500Y81050D02*
D03*
Y76051D02*
D03*
Y71051D02*
D03*
Y66050D02*
D03*
X-37201Y81050D02*
D03*
Y76051D02*
D03*
Y71051D02*
D03*
Y66050D02*
D03*
X-112400Y65650D02*
D03*
Y60650D02*
D03*
Y55651D02*
D03*
Y50651D02*
D03*
X-131101Y65650D02*
D03*
Y60650D02*
D03*
Y55651D02*
D03*
Y50651D02*
D03*
X-85000Y181351D02*
D03*
Y176350D02*
D03*
Y171351D02*
D03*
Y166350D02*
D03*
X-103701Y181351D02*
D03*
Y176350D02*
D03*
Y171351D02*
D03*
Y166350D02*
D03*
D21*
X-183851Y67854D02*
D03*
X-178850D02*
D03*
X-173851D02*
D03*
X-168851D02*
D03*
X-163850D02*
D03*
X-183851Y52500D02*
D03*
X-178850D02*
D03*
X-173851D02*
D03*
X-168851D02*
D03*
D22*
X-163850D02*
D03*
D23*
X-112350Y63250D02*
D03*
D24*
X-85101Y179000D02*
D03*
D25*
X-18500Y78601D02*
D03*
D26*
X-103700Y173801D02*
D03*
D27*
X-131150Y58100D02*
D03*
M02*
