%FSLAX25Y25*%
%MOIN*%
G70*
G01*
G75*
G04 Layer_Color=128*
%ADD10C,0.01000*%
%ADD11C,0.02000*%
%ADD12C,0.02500*%
%ADD13C,0.00787*%
%ADD14C,0.07874*%
%ADD15R,0.07874X0.07874*%
%ADD16C,0.12205*%
%ADD17C,0.09843*%
%ADD18C,0.02500*%
%ADD19R,0.02362X0.08661*%
%ADD20R,0.08661X0.02362*%
%ADD21O,0.02992X0.09449*%
%ADD22R,0.02992X0.09449*%
%ADD23R,0.08000X0.06500*%
%ADD24R,0.08500X0.07000*%
%ADD25R,0.08100X0.06700*%
%ADD26R,0.08900X0.07700*%
%ADD27R,0.08200X0.07100*%
%ADD28C,0.00300*%
%ADD29C,0.00500*%
%ADD30C,0.08474*%
%ADD31R,0.08474X0.08474*%
%ADD32C,0.12805*%
%ADD33C,0.10443*%
%ADD34C,0.03100*%
%ADD35R,0.02962X0.09261*%
%ADD36R,0.09261X0.02962*%
%ADD37O,0.03592X0.10049*%
%ADD38R,0.03592X0.10049*%
D13*
X-196850Y0D02*
Y196850D01*
Y0D02*
X0D01*
Y196850D01*
X-196850D02*
X0D01*
D19*
X-172151Y157401D02*
D03*
X-167150D02*
D03*
X-162151D02*
D03*
X-157150D02*
D03*
X-172151Y138700D02*
D03*
X-167150D02*
D03*
X-162151D02*
D03*
X-157150D02*
D03*
D20*
X-18500Y81050D02*
D03*
Y76051D02*
D03*
Y71051D02*
D03*
Y66050D02*
D03*
X-37201Y81050D02*
D03*
Y76051D02*
D03*
Y71051D02*
D03*
Y66050D02*
D03*
X-112400Y65650D02*
D03*
Y60650D02*
D03*
Y55651D02*
D03*
Y50651D02*
D03*
X-131101Y65650D02*
D03*
Y60650D02*
D03*
Y55651D02*
D03*
Y50651D02*
D03*
X-85000Y181351D02*
D03*
Y176350D02*
D03*
Y171351D02*
D03*
Y166350D02*
D03*
X-103701Y181351D02*
D03*
Y176350D02*
D03*
Y171351D02*
D03*
Y166350D02*
D03*
D21*
X-183851Y67854D02*
D03*
X-178850D02*
D03*
X-173851D02*
D03*
X-168851D02*
D03*
X-163850D02*
D03*
X-183851Y52500D02*
D03*
X-178850D02*
D03*
X-173851D02*
D03*
X-168851D02*
D03*
D22*
X-163850D02*
D03*
M02*
