%FSLAX25Y25*%
%MOIN*%
G70*
G01*
G75*
G04 Layer_Physical_Order=1*
G04 Layer_Color=255*
%ADD10C,0.01000*%
%ADD11C,0.02000*%
%ADD12C,0.02500*%
%ADD13C,0.00787*%
%ADD14C,0.07874*%
%ADD15R,0.07874X0.07874*%
%ADD16C,0.12205*%
%ADD17C,0.09843*%
%ADD18C,0.02500*%
G36*
X-88487Y80537D02*
X-113784D01*
X-113988Y81137D01*
X-113234Y81715D01*
X-112507Y82662D01*
X-112235Y83319D01*
X-88487D01*
Y80537D01*
D02*
G37*
G36*
X-11319Y192432D02*
X-11457Y192326D01*
X-12184Y191378D01*
X-12641Y190274D01*
X-12797Y189090D01*
X-12641Y187905D01*
X-12184Y186802D01*
X-11457Y185854D01*
X-10509Y185127D01*
X-9406Y184670D01*
X-8221Y184514D01*
X-7037Y184670D01*
X-5933Y185127D01*
X-4985Y185854D01*
X-4583Y186379D01*
X-3982Y186176D01*
X-3944Y171876D01*
X-4544Y171671D01*
X-4985Y172247D01*
X-5933Y172974D01*
X-7037Y173431D01*
X-8221Y173587D01*
X-9406Y173431D01*
X-10509Y172974D01*
X-11457Y172247D01*
X-12184Y171299D01*
X-12641Y170195D01*
X-12797Y169011D01*
X-12641Y167827D01*
X-12184Y166723D01*
X-11457Y165775D01*
X-10509Y165048D01*
X-9801Y164754D01*
Y164105D01*
X-10409Y163853D01*
X-11357Y163126D01*
X-12084Y162178D01*
X-12541Y161074D01*
X-12697Y159890D01*
X-12541Y158705D01*
X-12084Y157602D01*
X-11357Y156654D01*
X-10409Y155927D01*
X-9306Y155470D01*
X-8121Y155314D01*
X-6937Y155470D01*
X-5833Y155927D01*
X-4885Y156654D01*
X-4505Y157150D01*
X-3905Y156947D01*
X-3867Y142705D01*
X-4466Y142501D01*
X-4885Y143047D01*
X-5833Y143774D01*
X-6937Y144231D01*
X-8121Y144387D01*
X-9306Y144231D01*
X-10409Y143774D01*
X-11357Y143047D01*
X-12084Y142099D01*
X-12541Y140996D01*
X-12697Y139811D01*
X-12541Y138627D01*
X-12084Y137523D01*
X-11357Y136575D01*
X-10409Y135848D01*
X-9801Y135596D01*
Y134946D01*
X-10509Y134653D01*
X-11457Y133926D01*
X-12184Y132978D01*
X-12641Y131874D01*
X-12797Y130690D01*
X-12641Y129505D01*
X-12184Y128402D01*
X-11457Y127454D01*
X-10509Y126727D01*
X-9406Y126270D01*
X-8221Y126114D01*
X-7037Y126270D01*
X-5933Y126727D01*
X-4985Y127454D01*
X-4428Y128180D01*
X-3828Y127977D01*
X-3789Y113274D01*
X-4389Y113069D01*
X-4985Y113847D01*
X-5933Y114574D01*
X-7037Y115031D01*
X-8221Y115187D01*
X-9406Y115031D01*
X-10509Y114574D01*
X-11457Y113847D01*
X-12184Y112899D01*
X-12641Y111795D01*
X-12797Y110611D01*
X-12641Y109427D01*
X-12184Y108323D01*
X-11457Y107375D01*
X-10509Y106648D01*
X-9871Y106384D01*
Y105734D01*
X-10309Y105553D01*
X-11257Y104826D01*
X-11984Y103878D01*
X-12441Y102774D01*
X-12597Y101590D01*
X-12441Y100405D01*
X-11984Y99302D01*
X-11257Y98354D01*
X-10309Y97627D01*
X-9206Y97170D01*
X-8021Y97014D01*
X-6837Y97170D01*
X-5733Y97627D01*
X-4785Y98354D01*
X-4351Y98920D01*
X-3751Y98717D01*
X-3712Y84334D01*
X-4312Y84130D01*
X-4785Y84747D01*
X-5733Y85474D01*
X-6837Y85931D01*
X-8021Y86087D01*
X-9206Y85931D01*
X-10309Y85474D01*
X-11257Y84747D01*
X-11984Y83799D01*
X-12441Y82696D01*
X-12597Y81511D01*
X-12441Y80327D01*
X-11984Y79223D01*
X-11257Y78275D01*
X-10309Y77548D01*
X-9206Y77091D01*
X-8021Y76935D01*
X-6837Y77091D01*
X-5733Y77548D01*
X-4785Y78275D01*
X-4298Y78910D01*
X-3698Y78707D01*
X-3501Y4425D01*
X-3925Y4000D01*
X-153665D01*
X-153869Y4600D01*
X-153462Y4913D01*
X-152576Y6066D01*
X-152020Y7409D01*
X-151830Y8850D01*
X-152020Y10292D01*
X-152576Y11635D01*
X-153462Y12788D01*
X-154615Y13673D01*
X-155958Y14230D01*
X-157399Y14419D01*
X-158841Y14230D01*
X-160184Y13673D01*
X-161337Y12788D01*
X-162222Y11635D01*
X-162594Y10737D01*
X-176387D01*
X-176387Y10737D01*
X-177115Y11685D01*
X-178062Y12412D01*
X-179166Y12869D01*
X-180350Y13025D01*
X-181535Y12869D01*
X-182639Y12412D01*
X-183586Y11685D01*
X-184313Y10737D01*
X-184771Y9634D01*
X-184927Y8449D01*
X-184771Y7265D01*
X-184313Y6161D01*
X-183586Y5213D01*
X-182787Y4600D01*
X-182966Y4000D01*
X-192500D01*
Y31910D01*
X-191900Y32110D01*
X-191088Y31487D01*
X-189984Y31030D01*
X-188800Y30874D01*
X-187616Y31030D01*
X-186512Y31487D01*
X-185564Y32215D01*
X-184837Y33162D01*
X-184380Y34266D01*
X-184224Y35451D01*
X-184380Y36635D01*
X-184837Y37738D01*
X-185564Y38686D01*
X-186512Y39413D01*
X-187616Y39871D01*
X-188800Y40027D01*
X-189984Y39871D01*
X-191088Y39413D01*
X-191900Y38791D01*
X-192500Y38991D01*
Y65876D01*
X-191900Y66223D01*
X-191350Y66114D01*
X-164401D01*
X-163679Y66257D01*
X-163067Y66666D01*
X-152969Y76764D01*
X-141956D01*
X-141572Y76508D01*
X-140850Y76364D01*
X-140129Y76508D01*
X-139745Y76764D01*
X-122864D01*
X-122797Y76692D01*
X-122582Y76164D01*
X-122743Y75922D01*
X-122887Y75200D01*
X-122743Y74479D01*
X-122334Y73867D01*
X-121908Y73582D01*
X-122090Y72982D01*
X-122663D01*
X-123129Y73293D01*
X-123851Y73437D01*
X-124572Y73293D01*
X-124739Y73182D01*
X-145438D01*
X-145529Y73243D01*
X-146250Y73386D01*
X-146972Y73243D01*
X-147584Y72834D01*
X-147993Y72222D01*
X-148137Y71500D01*
X-147993Y70778D01*
X-147584Y70166D01*
X-146972Y69757D01*
X-146250Y69614D01*
X-145529Y69757D01*
X-145287Y69919D01*
X-142666D01*
X-142627Y69319D01*
X-142984Y69272D01*
X-144088Y68815D01*
X-145036Y68088D01*
X-145763Y67140D01*
X-146220Y66036D01*
X-146376Y64852D01*
X-146220Y63667D01*
X-145763Y62564D01*
X-145036Y61616D01*
X-144088Y60889D01*
X-142984Y60432D01*
X-141800Y60276D01*
X-140616Y60432D01*
X-139512Y60889D01*
X-138564Y61616D01*
X-137837Y62564D01*
X-137380Y63667D01*
X-137224Y64852D01*
X-137380Y66036D01*
X-137837Y67140D01*
X-138564Y68088D01*
X-139512Y68815D01*
X-140616Y69272D01*
X-140973Y69319D01*
X-140934Y69919D01*
X-124739D01*
X-124572Y69808D01*
X-123851Y69664D01*
X-123574Y69719D01*
X-101988D01*
X-101822Y69608D01*
X-101100Y69464D01*
X-100378Y69608D01*
X-99766Y70017D01*
X-99357Y70629D01*
X-99214Y71351D01*
X-99357Y72072D01*
X-99766Y72684D01*
X-100378Y73093D01*
X-101100Y73237D01*
X-101822Y73093D01*
X-101988Y72982D01*
X-119911D01*
X-120093Y73582D01*
X-119667Y73867D01*
X-119498Y74119D01*
X-96930D01*
X-96611Y73519D01*
X-96843Y73172D01*
X-96986Y72451D01*
X-96843Y71729D01*
X-96434Y71117D01*
X-95822Y70708D01*
X-95100Y70564D01*
X-94378Y70708D01*
X-94212Y70819D01*
X-74988D01*
X-74822Y70708D01*
X-74100Y70564D01*
X-73378Y70708D01*
X-72766Y71117D01*
X-72357Y71729D01*
X-72214Y72451D01*
X-72357Y73172D01*
X-72589Y73519D01*
X-72270Y74119D01*
X-62138D01*
X-61672Y73808D01*
X-60950Y73664D01*
X-60229Y73808D01*
X-59617Y74217D01*
X-59208Y74829D01*
X-59064Y75551D01*
X-59186Y76164D01*
X-58870Y76764D01*
X-52272D01*
X-52220Y76367D01*
X-51763Y75264D01*
X-51036Y74316D01*
X-50088Y73589D01*
X-48984Y73132D01*
X-47800Y72976D01*
X-46616Y73132D01*
X-45512Y73589D01*
X-44564Y74316D01*
X-43837Y75264D01*
X-43380Y76367D01*
X-43224Y77552D01*
X-43380Y78736D01*
X-43837Y79840D01*
X-44564Y80788D01*
X-45512Y81515D01*
X-46616Y81972D01*
X-47800Y82128D01*
X-48984Y81972D01*
X-50088Y81515D01*
X-51036Y80788D01*
X-51228Y80537D01*
X-61752D01*
X-61871Y81137D01*
X-61762Y81182D01*
X-60815Y81909D01*
X-60087Y82857D01*
X-59630Y83960D01*
X-59474Y85145D01*
X-59630Y86329D01*
X-60087Y87433D01*
X-60126Y87483D01*
X-57007Y90602D01*
X-57007Y90602D01*
X-56764Y90966D01*
X-56678Y91395D01*
Y97186D01*
X-51786Y102078D01*
X-49476D01*
X-49334Y101866D01*
X-48722Y101457D01*
X-48000Y101314D01*
X-47278Y101457D01*
X-46666Y101866D01*
X-46257Y102478D01*
X-46114Y103200D01*
X-46257Y103922D01*
X-46666Y104534D01*
X-47278Y104943D01*
X-48000Y105086D01*
X-48722Y104943D01*
X-49334Y104534D01*
X-49476Y104322D01*
X-52250D01*
X-52250Y104322D01*
X-52680Y104236D01*
X-53044Y103993D01*
X-53044Y103993D01*
X-58593Y98444D01*
X-58836Y98080D01*
X-58921Y97650D01*
X-58957Y97625D01*
X-59599Y97900D01*
X-59630Y98140D01*
X-60087Y99244D01*
X-60815Y100192D01*
X-61762Y100919D01*
X-62866Y101376D01*
X-64051Y101532D01*
X-65235Y101376D01*
X-65892Y101104D01*
X-79417Y114629D01*
X-79374Y114951D01*
X-79530Y116135D01*
X-79987Y117238D01*
X-80715Y118186D01*
X-81662Y118913D01*
X-82766Y119371D01*
X-83951Y119527D01*
X-85135Y119371D01*
X-86238Y118913D01*
X-87186Y118186D01*
X-87914Y117238D01*
X-88371Y116135D01*
X-88527Y114951D01*
X-88371Y113766D01*
X-87914Y112662D01*
X-87186Y111715D01*
X-86238Y110987D01*
X-85135Y110530D01*
X-83951Y110374D01*
X-82766Y110530D01*
X-81662Y110987D01*
X-80942Y111540D01*
X-68199Y98797D01*
X-68471Y98140D01*
X-68627Y96956D01*
X-68471Y95772D01*
X-68014Y94668D01*
X-67286Y93720D01*
X-66338Y92993D01*
X-65235Y92536D01*
X-64051Y92380D01*
X-62866Y92536D01*
X-61762Y92993D01*
X-60815Y93720D01*
X-60087Y94668D01*
X-59630Y95772D01*
X-59522Y96597D01*
X-58921Y96558D01*
Y91860D01*
X-61712Y89069D01*
X-61762Y89108D01*
X-62866Y89565D01*
X-64051Y89721D01*
X-65235Y89565D01*
X-66338Y89108D01*
X-67286Y88381D01*
X-68014Y87433D01*
X-68286Y86776D01*
X-70115D01*
X-70387Y87433D01*
X-71115Y88381D01*
X-72062Y89108D01*
X-73166Y89565D01*
X-74351Y89721D01*
X-75535Y89565D01*
X-76639Y89108D01*
X-77586Y88381D01*
X-78313Y87433D01*
X-78771Y86329D01*
X-78813Y86005D01*
X-79413Y86044D01*
Y89487D01*
X-88487D01*
Y86582D01*
X-112235D01*
X-112507Y87239D01*
X-113234Y88186D01*
X-114182Y88914D01*
X-115286Y89371D01*
X-116470Y89527D01*
X-117655Y89371D01*
X-118758Y88914D01*
X-119706Y88186D01*
X-120433Y87239D01*
X-120890Y86135D01*
X-121046Y84951D01*
X-120890Y83766D01*
X-120433Y82662D01*
X-119706Y81715D01*
X-118953Y81137D01*
X-119157Y80537D01*
X-153751D01*
X-154352Y80417D01*
X-154472Y80393D01*
X-155084Y79984D01*
X-165182Y69886D01*
X-191350D01*
X-191900Y69777D01*
X-192500Y70123D01*
Y136727D01*
X-191900Y137074D01*
X-191350Y136964D01*
X-190629Y137108D01*
X-190031Y137507D01*
X-189939Y137490D01*
X-189431Y137313D01*
Y75386D01*
X-189434Y75384D01*
X-189843Y74772D01*
X-189986Y74050D01*
X-189843Y73329D01*
X-189434Y72717D01*
X-188822Y72308D01*
X-188100Y72164D01*
X-187378Y72308D01*
X-186766Y72717D01*
X-186357Y73329D01*
X-186357Y73330D01*
X-186293Y73426D01*
X-186169Y74050D01*
Y136721D01*
X-185569Y136840D01*
X-185163Y135861D01*
X-184436Y134913D01*
X-183488Y134186D01*
X-182384Y133729D01*
X-181200Y133573D01*
X-180016Y133729D01*
X-178912Y134186D01*
X-177964Y134913D01*
X-177237Y135861D01*
X-176780Y136965D01*
X-176624Y138149D01*
X-176780Y139333D01*
X-177237Y140437D01*
X-177964Y141385D01*
X-178912Y142112D01*
X-180016Y142569D01*
X-181200Y142725D01*
X-182384Y142569D01*
X-183488Y142112D01*
X-184436Y141385D01*
X-185163Y140437D01*
X-185569Y139458D01*
X-186169Y139577D01*
Y156325D01*
X-185311Y157183D01*
X-185184Y157130D01*
X-184000Y156974D01*
X-182816Y157130D01*
X-181712Y157587D01*
X-180764Y158315D01*
X-180037Y159262D01*
X-179580Y160366D01*
X-179424Y161550D01*
X-179580Y162735D01*
X-179632Y162862D01*
X-178590Y163904D01*
X-177991Y163865D01*
X-177837Y163664D01*
X-176890Y162937D01*
X-175786Y162480D01*
X-174601Y162324D01*
X-173417Y162480D01*
X-172313Y162937D01*
X-171366Y163664D01*
X-170638Y164612D01*
X-170181Y165716D01*
X-170025Y166900D01*
X-170181Y168084D01*
X-170638Y169188D01*
X-171366Y170136D01*
X-172313Y170863D01*
X-173417Y171320D01*
X-174601Y171476D01*
X-175786Y171320D01*
X-176890Y170863D01*
X-177837Y170136D01*
X-178565Y169188D01*
X-179020Y168088D01*
X-181645Y165463D01*
X-181712Y165514D01*
X-182816Y165971D01*
X-184000Y166127D01*
X-185184Y165971D01*
X-186288Y165514D01*
X-187236Y164786D01*
X-187963Y163839D01*
X-188420Y162735D01*
X-188576Y161550D01*
X-188420Y160366D01*
X-187963Y159262D01*
X-187912Y159196D01*
X-188953Y158154D01*
X-189307Y157625D01*
X-189431Y157001D01*
Y140388D01*
X-189939Y140211D01*
X-190031Y140194D01*
X-190629Y140593D01*
X-191350Y140737D01*
X-191900Y140627D01*
X-192500Y140974D01*
Y190160D01*
X-191900Y190554D01*
X-191451Y190464D01*
X-176717D01*
X-176513Y189864D01*
X-176941Y189536D01*
X-177669Y188588D01*
X-178126Y187484D01*
X-178282Y186300D01*
X-178126Y185116D01*
X-177669Y184012D01*
X-176941Y183064D01*
X-175994Y182337D01*
X-174890Y181880D01*
X-174124Y181779D01*
X-174124D01*
X-173974Y181759D01*
Y181757D01*
Y181740D01*
Y181718D01*
Y181667D01*
X-174134Y181133D01*
D01*
Y181133D01*
X-174990Y181020D01*
X-176094Y180563D01*
X-177041Y179836D01*
X-177769Y178888D01*
X-178226Y177784D01*
X-178382Y176600D01*
X-178226Y175416D01*
X-177769Y174312D01*
X-177041Y173364D01*
X-176094Y172637D01*
X-174990Y172180D01*
X-173805Y172024D01*
X-172621Y172180D01*
X-171517Y172637D01*
X-170570Y173364D01*
X-169842Y174312D01*
X-169385Y175416D01*
X-169229Y176600D01*
X-169385Y177784D01*
X-169842Y178888D01*
X-170570Y179836D01*
X-171517Y180563D01*
X-172621Y181020D01*
X-173388Y181121D01*
X-173388D01*
X-173537Y181141D01*
Y181143D01*
Y181160D01*
Y181183D01*
Y181233D01*
X-173377Y181767D01*
D01*
Y181767D01*
X-172521Y181880D01*
X-171417Y182337D01*
X-170470Y183064D01*
X-169742Y184012D01*
X-169285Y185116D01*
X-169129Y186300D01*
X-169285Y187484D01*
X-169742Y188588D01*
X-170470Y189536D01*
X-170898Y189864D01*
X-170694Y190464D01*
X-164906D01*
X-164702Y189864D01*
X-165130Y189536D01*
X-165858Y188588D01*
X-166315Y187484D01*
X-166471Y186300D01*
X-166315Y185116D01*
X-165858Y184012D01*
X-165130Y183064D01*
X-164183Y182337D01*
X-163079Y181880D01*
X-162312Y181779D01*
X-162312D01*
X-162163Y181759D01*
Y181757D01*
Y181740D01*
Y181718D01*
Y181667D01*
X-162323Y181133D01*
D01*
Y181133D01*
X-163179Y181020D01*
X-164283Y180563D01*
X-165230Y179836D01*
X-165958Y178888D01*
X-166415Y177784D01*
X-166571Y176600D01*
X-166415Y175416D01*
X-165958Y174312D01*
X-165230Y173364D01*
X-164283Y172637D01*
X-163179Y172180D01*
X-162244Y172057D01*
Y172057D01*
X-161946Y171580D01*
X-161936Y171495D01*
X-161934Y171475D01*
X-161930Y171438D01*
X-161930Y171433D01*
X-162188Y171398D01*
X-162188D01*
X-162783Y171320D01*
X-163887Y170863D01*
X-164834Y170136D01*
X-165562Y169188D01*
X-166019Y168084D01*
X-166175Y166900D01*
X-166019Y165716D01*
X-165562Y164612D01*
X-164834Y163664D01*
X-163887Y162937D01*
X-162783Y162480D01*
X-161599Y162324D01*
X-160414Y162480D01*
X-159310Y162937D01*
X-158363Y163664D01*
X-157636Y164612D01*
X-157178Y165716D01*
X-157023Y166900D01*
X-157178Y168084D01*
X-157636Y169188D01*
X-158363Y170136D01*
X-159310Y170863D01*
X-160414Y171320D01*
X-161349Y171443D01*
Y171443D01*
X-161647Y171920D01*
X-161657Y172005D01*
X-161659Y172026D01*
X-161663Y172062D01*
X-161663Y172067D01*
X-161405Y172101D01*
X-161405D01*
X-160810Y172180D01*
X-159706Y172637D01*
X-158759Y173364D01*
X-158031Y174312D01*
X-157574Y175416D01*
X-157418Y176600D01*
X-157574Y177784D01*
X-158031Y178888D01*
X-158759Y179836D01*
X-159706Y180563D01*
X-160810Y181020D01*
X-161576Y181121D01*
X-161576D01*
X-161726Y181141D01*
Y181143D01*
Y181160D01*
Y181183D01*
Y181233D01*
X-161566Y181767D01*
D01*
Y181767D01*
X-160710Y181880D01*
X-159606Y182337D01*
X-158659Y183064D01*
X-157931Y184012D01*
X-157474Y185116D01*
X-157318Y186300D01*
X-157474Y187484D01*
X-157931Y188588D01*
X-158659Y189536D01*
X-159087Y189864D01*
X-158883Y190464D01*
X-138882D01*
X-138572Y190257D01*
X-137850Y190114D01*
X-137129Y190257D01*
X-136819Y190464D01*
X-114735D01*
X-114609Y190383D01*
X-114250Y189921D01*
X-114377Y188951D01*
X-114222Y187766D01*
X-113764Y186662D01*
X-113037Y185715D01*
X-112089Y184987D01*
X-110986Y184530D01*
X-109801Y184374D01*
X-108617Y184530D01*
X-107513Y184987D01*
X-106565Y185715D01*
X-105838Y186662D01*
X-105381Y187766D01*
X-105225Y188951D01*
X-105381Y190135D01*
X-105838Y191238D01*
X-106565Y192186D01*
X-106844Y192400D01*
X-106640Y193000D01*
X-11512D01*
X-11319Y192432D01*
D02*
G37*
G36*
X-162222Y6066D02*
X-161337Y4913D01*
X-160930Y4600D01*
X-161133Y4000D01*
X-177734D01*
X-177914Y4600D01*
X-177115Y5213D01*
X-176387Y6161D01*
X-176055Y6964D01*
X-162594D01*
X-162222Y6066D01*
D02*
G37*
%LPC*%
G36*
X-116470Y99527D02*
X-117655Y99371D01*
X-118758Y98914D01*
X-119706Y98186D01*
X-120433Y97238D01*
X-120890Y96135D01*
X-121046Y94950D01*
X-120890Y93766D01*
X-120433Y92662D01*
X-119706Y91715D01*
X-118758Y90987D01*
X-117655Y90530D01*
X-116470Y90374D01*
X-115286Y90530D01*
X-114182Y90987D01*
X-113234Y91715D01*
X-112507Y92662D01*
X-112050Y93766D01*
X-111894Y94950D01*
X-112050Y96135D01*
X-112507Y97238D01*
X-113234Y98186D01*
X-114182Y98914D01*
X-115286Y99371D01*
X-116470Y99527D01*
D02*
G37*
G36*
X-48179Y98482D02*
X-49493Y98353D01*
X-50756Y97969D01*
X-51920Y97347D01*
X-52941Y96509D01*
X-53778Y95489D01*
X-54401Y94325D01*
X-54784Y93061D01*
X-54914Y91747D01*
X-54784Y90433D01*
X-54401Y89170D01*
X-53778Y88006D01*
X-52941Y86985D01*
X-51920Y86147D01*
X-50756Y85525D01*
X-49493Y85142D01*
X-48179Y85013D01*
X-46865Y85142D01*
X-45601Y85525D01*
X-44437Y86147D01*
X-43417Y86985D01*
X-42579Y88006D01*
X-41957Y89170D01*
X-41573Y90433D01*
X-41444Y91747D01*
X-41573Y93061D01*
X-41957Y94325D01*
X-42579Y95489D01*
X-43417Y96509D01*
X-44437Y97347D01*
X-45601Y97969D01*
X-46865Y98353D01*
X-48179Y98482D01*
D02*
G37*
G36*
X-137800Y90971D02*
X-138984Y90815D01*
X-140088Y90358D01*
X-141036Y89630D01*
X-141763Y88683D01*
X-142220Y87579D01*
X-142376Y86395D01*
X-142220Y85210D01*
X-141763Y84106D01*
X-141036Y83159D01*
X-140088Y82431D01*
X-138984Y81974D01*
X-137800Y81818D01*
X-136616Y81974D01*
X-135512Y82431D01*
X-134564Y83159D01*
X-133985Y83914D01*
X-130766D01*
X-130763Y83906D01*
X-130036Y82959D01*
X-129088Y82231D01*
X-127984Y81774D01*
X-126800Y81618D01*
X-125616Y81774D01*
X-124512Y82231D01*
X-123564Y82959D01*
X-122837Y83906D01*
X-122380Y85010D01*
X-122224Y86194D01*
X-122380Y87379D01*
X-122837Y88483D01*
X-123564Y89430D01*
X-124512Y90158D01*
X-125616Y90615D01*
X-126800Y90771D01*
X-127984Y90615D01*
X-129088Y90158D01*
X-130036Y89430D01*
X-130763Y88483D01*
X-131220Y87379D01*
X-131247Y87176D01*
X-133327D01*
X-133380Y87579D01*
X-133837Y88683D01*
X-134564Y89630D01*
X-135512Y90358D01*
X-136616Y90815D01*
X-137800Y90971D01*
D02*
G37*
G36*
X-83951Y99527D02*
X-85135Y99371D01*
X-86238Y98914D01*
X-87186Y98186D01*
X-87914Y97238D01*
X-88371Y96135D01*
X-88527Y94950D01*
X-88371Y93766D01*
X-87914Y92662D01*
X-87186Y91715D01*
X-86238Y90987D01*
X-85135Y90530D01*
X-83951Y90374D01*
X-82766Y90530D01*
X-81662Y90987D01*
X-80715Y91715D01*
X-79987Y92662D01*
X-79530Y93766D01*
X-79374Y94950D01*
X-79530Y96135D01*
X-79987Y97238D01*
X-80715Y98186D01*
X-81662Y98914D01*
X-82766Y99371D01*
X-83951Y99527D01*
D02*
G37*
G36*
X-158145Y113127D02*
X-159329Y112971D01*
X-160433Y112513D01*
X-161381Y111786D01*
X-162108Y110838D01*
X-162565Y109735D01*
X-162721Y108551D01*
X-162565Y107366D01*
X-162108Y106262D01*
X-161381Y105315D01*
X-160888Y104937D01*
X-161092Y104337D01*
X-167009D01*
X-167213Y104937D01*
X-166720Y105315D01*
X-165993Y106262D01*
X-165536Y107366D01*
X-165380Y108551D01*
X-165536Y109735D01*
X-165993Y110838D01*
X-166720Y111786D01*
X-167668Y112513D01*
X-168772Y112971D01*
X-169956Y113127D01*
X-171140Y112971D01*
X-172244Y112513D01*
X-173192Y111786D01*
X-173919Y110838D01*
X-174376Y109735D01*
X-174532Y108551D01*
X-174376Y107366D01*
X-173919Y106262D01*
X-173192Y105315D01*
X-172244Y104587D01*
X-172008Y104490D01*
X-171942Y103813D01*
X-171984Y103784D01*
X-175312Y100456D01*
X-176072Y100771D01*
X-177256Y100927D01*
X-178440Y100771D01*
X-179544Y100313D01*
X-180492Y99586D01*
X-181219Y98638D01*
X-181676Y97535D01*
X-181832Y96351D01*
X-181676Y95166D01*
X-181219Y94062D01*
X-180492Y93115D01*
X-179544Y92387D01*
X-178463Y91940D01*
X-178413Y91766D01*
X-178448Y91326D01*
X-179444Y90913D01*
X-180392Y90186D01*
X-181119Y89239D01*
X-181576Y88135D01*
X-181732Y86950D01*
X-181576Y85766D01*
X-181119Y84662D01*
X-180392Y83715D01*
X-179444Y82987D01*
X-178340Y82530D01*
X-177156Y82374D01*
X-175972Y82530D01*
X-174868Y82987D01*
X-173920Y83715D01*
X-173193Y84662D01*
X-172736Y85766D01*
X-172580Y86950D01*
X-172736Y88135D01*
X-173193Y89239D01*
X-173920Y90186D01*
X-174868Y90913D01*
X-175949Y91361D01*
X-175999Y91535D01*
X-175964Y91975D01*
X-174968Y92387D01*
X-174020Y93115D01*
X-173293Y94062D01*
X-172836Y95166D01*
X-172680Y96351D01*
X-172836Y97535D01*
X-172854Y97579D01*
X-169869Y100564D01*
X-160032D01*
X-152884Y93417D01*
X-152475Y93143D01*
X-152272Y93008D01*
X-151550Y92864D01*
X-150829Y93008D01*
X-150217Y93417D01*
X-149808Y94029D01*
X-149664Y94750D01*
X-149808Y95472D01*
X-149943Y95675D01*
X-150217Y96084D01*
X-157576Y103444D01*
X-157361Y104077D01*
X-156960Y104130D01*
X-155857Y104587D01*
X-154909Y105315D01*
X-154182Y106262D01*
X-153725Y107366D01*
X-153569Y108551D01*
X-153725Y109735D01*
X-154182Y110838D01*
X-154909Y111786D01*
X-155857Y112513D01*
X-156960Y112971D01*
X-158145Y113127D01*
D02*
G37*
G36*
X-180600Y114927D02*
X-181784Y114771D01*
X-182888Y114313D01*
X-183836Y113586D01*
X-184563Y112638D01*
X-185020Y111535D01*
X-185176Y110351D01*
X-185020Y109166D01*
X-184563Y108062D01*
X-183836Y107115D01*
X-182888Y106387D01*
X-181784Y105930D01*
X-180600Y105774D01*
X-179416Y105930D01*
X-178312Y106387D01*
X-177364Y107115D01*
X-176637Y108062D01*
X-176180Y109166D01*
X-176024Y110351D01*
X-176180Y111535D01*
X-176637Y112638D01*
X-177364Y113586D01*
X-178312Y114313D01*
X-179416Y114771D01*
X-180600Y114927D01*
D02*
G37*
G36*
X-83951Y109527D02*
X-85135Y109371D01*
X-86238Y108914D01*
X-87186Y108186D01*
X-87914Y107238D01*
X-88371Y106135D01*
X-88527Y104950D01*
X-88371Y103766D01*
X-87914Y102662D01*
X-87186Y101715D01*
X-86238Y100987D01*
X-85135Y100530D01*
X-83951Y100374D01*
X-82766Y100530D01*
X-82109Y100802D01*
X-78849Y97542D01*
X-78927Y96956D01*
X-78771Y95772D01*
X-78313Y94668D01*
X-77586Y93720D01*
X-76639Y92993D01*
X-75535Y92536D01*
X-74351Y92380D01*
X-73166Y92536D01*
X-72062Y92993D01*
X-71115Y93720D01*
X-70387Y94668D01*
X-69930Y95772D01*
X-69774Y96956D01*
X-69930Y98140D01*
X-70387Y99244D01*
X-71115Y100192D01*
X-72062Y100919D01*
X-73166Y101376D01*
X-74351Y101532D01*
X-75535Y101376D01*
X-76639Y100919D01*
X-77189Y100496D01*
X-79802Y103109D01*
X-79530Y103766D01*
X-79374Y104950D01*
X-79530Y106135D01*
X-79987Y107238D01*
X-80715Y108186D01*
X-81662Y108914D01*
X-82766Y109371D01*
X-83951Y109527D01*
D02*
G37*
G36*
X-146400Y104186D02*
X-147122Y104043D01*
X-147734Y103634D01*
X-148143Y103022D01*
X-148286Y102300D01*
X-148143Y101578D01*
X-147734Y100966D01*
X-147122Y100557D01*
X-146400Y100414D01*
X-145678Y100557D01*
X-145066Y100966D01*
X-144657Y101578D01*
X-144514Y102300D01*
X-144657Y103022D01*
X-145066Y103634D01*
X-145678Y104043D01*
X-146400Y104186D01*
D02*
G37*
G36*
X-165345Y91527D02*
X-166529Y91371D01*
X-167633Y90913D01*
X-168581Y90186D01*
X-169308Y89239D01*
X-169765Y88135D01*
X-169921Y86950D01*
X-169765Y85766D01*
X-169308Y84662D01*
X-168581Y83715D01*
X-167633Y82987D01*
X-166529Y82530D01*
X-166425Y82516D01*
X-166344Y81901D01*
X-167037Y81613D01*
X-167985Y80886D01*
X-168712Y79939D01*
X-169169Y78835D01*
X-169325Y77650D01*
X-169169Y76466D01*
X-168712Y75362D01*
X-167985Y74415D01*
X-167037Y73687D01*
X-165934Y73230D01*
X-164749Y73074D01*
X-163565Y73230D01*
X-162461Y73687D01*
X-161513Y74415D01*
X-160786Y75362D01*
X-160329Y76466D01*
X-160173Y77650D01*
X-160329Y78835D01*
X-160786Y79939D01*
X-161513Y80886D01*
X-162461Y81613D01*
X-163565Y82071D01*
X-163669Y82084D01*
X-163750Y82700D01*
X-163057Y82987D01*
X-162109Y83715D01*
X-161382Y84662D01*
X-160925Y85766D01*
X-160769Y86950D01*
X-160925Y88135D01*
X-161382Y89239D01*
X-162109Y90186D01*
X-163057Y90913D01*
X-164161Y91371D01*
X-165345Y91527D01*
D02*
G37*
G36*
X-87599Y56676D02*
X-88783Y56520D01*
X-89887Y56063D01*
X-90834Y55336D01*
X-91562Y54388D01*
X-92019Y53284D01*
X-92175Y52100D01*
X-92019Y50916D01*
X-91562Y49812D01*
X-90834Y48864D01*
X-89887Y48137D01*
X-88783Y47680D01*
X-87599Y47524D01*
X-86414Y47680D01*
X-85311Y48137D01*
X-84363Y48864D01*
X-83636Y49812D01*
X-83178Y50916D01*
X-83022Y52100D01*
X-83178Y53284D01*
X-83636Y54388D01*
X-84363Y55336D01*
X-85311Y56063D01*
X-86414Y56520D01*
X-87599Y56676D01*
D02*
G37*
G36*
X-8895Y57476D02*
X-10079Y57320D01*
X-11183Y56863D01*
X-12130Y56136D01*
X-12858Y55188D01*
X-13315Y54084D01*
X-13471Y52900D01*
X-13315Y51716D01*
X-12858Y50612D01*
X-12130Y49664D01*
X-11183Y48937D01*
X-10079Y48480D01*
X-8895Y48324D01*
X-7710Y48480D01*
X-6606Y48937D01*
X-5659Y49664D01*
X-4931Y50612D01*
X-4474Y51716D01*
X-4318Y52900D01*
X-4474Y54084D01*
X-4931Y55188D01*
X-5659Y56136D01*
X-6606Y56863D01*
X-7710Y57320D01*
X-8895Y57476D01*
D02*
G37*
G36*
X-45501Y56427D02*
X-46686Y56271D01*
X-47789Y55813D01*
X-48737Y55086D01*
X-49464Y54138D01*
X-49922Y53035D01*
X-50077Y51850D01*
X-49922Y50666D01*
X-49464Y49562D01*
X-48737Y48615D01*
X-47789Y47887D01*
X-46686Y47430D01*
X-45501Y47274D01*
X-44317Y47430D01*
X-43213Y47887D01*
X-42265Y48615D01*
X-41538Y49562D01*
X-41081Y50666D01*
X-40925Y51850D01*
X-41081Y53035D01*
X-41538Y54138D01*
X-42265Y55086D01*
X-43213Y55813D01*
X-44317Y56271D01*
X-45501Y56427D01*
D02*
G37*
G36*
X-100601Y56676D02*
X-101786Y56520D01*
X-102890Y56063D01*
X-103837Y55336D01*
X-104564Y54388D01*
X-105022Y53284D01*
X-105177Y52100D01*
X-105022Y50916D01*
X-104564Y49812D01*
X-103837Y48864D01*
X-102890Y48137D01*
X-101786Y47680D01*
X-100601Y47524D01*
X-99417Y47680D01*
X-98313Y48137D01*
X-97365Y48864D01*
X-96638Y49812D01*
X-96181Y50916D01*
X-96025Y52100D01*
X-96181Y53284D01*
X-96638Y54388D01*
X-97365Y55336D01*
X-98313Y56063D01*
X-99417Y56520D01*
X-100601Y56676D01*
D02*
G37*
G36*
X-100305Y67376D02*
X-101490Y67220D01*
X-102594Y66763D01*
X-103541Y66036D01*
X-104269Y65088D01*
X-104726Y63984D01*
X-104882Y62800D01*
X-104726Y61616D01*
X-104269Y60512D01*
X-103541Y59564D01*
X-102594Y58837D01*
X-101490Y58380D01*
X-100305Y58224D01*
X-99121Y58380D01*
X-98017Y58837D01*
X-97070Y59564D01*
X-96342Y60512D01*
X-95885Y61616D01*
X-95729Y62800D01*
X-95885Y63984D01*
X-96342Y65088D01*
X-97070Y66036D01*
X-98017Y66763D01*
X-99121Y67220D01*
X-100305Y67376D01*
D02*
G37*
G36*
X-20700Y61337D02*
X-21422Y61193D01*
X-22034Y60784D01*
X-22309Y60372D01*
X-49600D01*
X-49600Y60372D01*
X-50029Y60287D01*
X-50393Y60044D01*
X-50393Y60044D01*
X-54925Y55511D01*
X-55312Y55808D01*
X-56415Y56265D01*
X-57600Y56421D01*
X-58784Y56265D01*
X-59888Y55808D01*
X-60836Y55081D01*
X-61563Y54133D01*
X-62020Y53029D01*
X-62176Y51845D01*
X-62020Y50661D01*
X-61563Y49557D01*
X-60836Y48609D01*
X-59888Y47882D01*
X-58784Y47425D01*
X-57600Y47269D01*
X-56415Y47425D01*
X-55312Y47882D01*
X-54364Y48609D01*
X-53637Y49557D01*
X-53180Y50661D01*
X-53024Y51845D01*
X-53180Y53029D01*
X-53489Y53776D01*
X-49135Y58129D01*
X-22311D01*
X-22067Y57866D01*
X-22221Y57183D01*
X-22994Y56863D01*
X-23941Y56136D01*
X-24669Y55188D01*
X-25126Y54084D01*
X-25282Y52900D01*
X-25126Y51716D01*
X-24766Y50847D01*
X-33482Y42131D01*
X-58830D01*
X-64885Y48187D01*
X-64864Y48509D01*
X-64137Y49457D01*
X-63680Y50560D01*
X-63524Y51745D01*
X-63680Y52929D01*
X-64137Y54033D01*
X-64864Y54981D01*
X-65812Y55708D01*
X-66916Y56165D01*
X-68100Y56321D01*
X-69284Y56165D01*
X-70388Y55708D01*
X-71336Y54981D01*
X-72063Y54033D01*
X-72294Y53476D01*
X-73225D01*
X-73437Y53987D01*
X-74164Y54935D01*
X-75112Y55662D01*
X-76216Y56119D01*
X-77400Y56275D01*
X-78584Y56119D01*
X-79688Y55662D01*
X-80636Y54935D01*
X-81363Y53987D01*
X-81820Y52883D01*
X-81976Y51699D01*
X-81820Y50514D01*
X-81363Y49411D01*
X-80636Y48463D01*
X-79688Y47736D01*
X-78584Y47278D01*
X-77400Y47122D01*
X-76216Y47278D01*
X-75112Y47736D01*
X-74164Y48463D01*
X-73437Y49411D01*
X-73104Y50214D01*
X-72377D01*
X-72063Y49457D01*
X-71336Y48509D01*
X-70388Y47782D01*
X-69284Y47325D01*
X-68539Y47227D01*
X-60659Y39346D01*
X-60130Y38993D01*
X-59505Y38869D01*
X-32807D01*
X-32182Y38993D01*
X-31653Y39346D01*
X-22335Y48664D01*
X-21890Y48480D01*
X-20706Y48324D01*
X-19521Y48480D01*
X-18417Y48937D01*
X-17470Y49664D01*
X-16742Y50612D01*
X-16285Y51716D01*
X-16129Y52900D01*
X-16285Y54084D01*
X-16742Y55188D01*
X-17470Y56136D01*
X-18417Y56863D01*
X-19495Y57309D01*
X-19537Y57413D01*
X-19631Y57940D01*
X-19366Y58117D01*
X-18957Y58729D01*
X-18814Y59451D01*
X-18957Y60172D01*
X-19366Y60784D01*
X-19978Y61193D01*
X-20700Y61337D01*
D02*
G37*
G36*
X-152500Y69778D02*
X-153684Y69622D01*
X-154788Y69164D01*
X-155736Y68437D01*
X-156463Y67489D01*
X-156920Y66386D01*
X-157076Y65201D01*
X-156920Y64017D01*
X-156463Y62913D01*
X-155736Y61966D01*
X-154788Y61238D01*
X-153684Y60781D01*
X-152500Y60625D01*
X-151316Y60781D01*
X-150212Y61238D01*
X-149264Y61966D01*
X-148537Y62913D01*
X-148080Y64017D01*
X-147924Y65201D01*
X-148080Y66386D01*
X-148537Y67489D01*
X-149264Y68437D01*
X-150212Y69164D01*
X-151316Y69622D01*
X-152500Y69778D01*
D02*
G37*
G36*
X-88494Y67376D02*
X-89679Y67220D01*
X-90783Y66763D01*
X-91730Y66036D01*
X-92458Y65088D01*
X-92915Y63984D01*
X-93071Y62800D01*
X-92915Y61616D01*
X-92458Y60512D01*
X-91730Y59564D01*
X-90783Y58837D01*
X-89679Y58380D01*
X-88494Y58224D01*
X-87310Y58380D01*
X-86206Y58837D01*
X-85259Y59564D01*
X-84531Y60512D01*
X-84074Y61616D01*
X-83918Y62800D01*
X-84074Y63984D01*
X-84531Y65088D01*
X-85259Y66036D01*
X-86206Y66763D01*
X-87310Y67220D01*
X-88494Y67376D01*
D02*
G37*
G36*
X-77400Y69278D02*
X-78584Y69122D01*
X-79688Y68664D01*
X-80636Y67937D01*
X-81363Y66989D01*
X-81820Y65886D01*
X-81976Y64701D01*
X-81820Y63517D01*
X-81363Y62413D01*
X-80636Y61466D01*
X-79688Y60738D01*
X-78584Y60281D01*
X-77400Y60125D01*
X-76216Y60281D01*
X-75112Y60738D01*
X-74164Y61466D01*
X-73658Y62125D01*
X-72418D01*
X-72063Y61268D01*
X-71336Y60320D01*
X-70388Y59593D01*
X-69284Y59136D01*
X-68100Y58980D01*
X-66916Y59136D01*
X-65812Y59593D01*
X-64864Y60320D01*
X-64137Y61268D01*
X-63782Y62125D01*
X-61876D01*
X-61563Y61368D01*
X-60836Y60420D01*
X-59888Y59693D01*
X-58784Y59236D01*
X-57600Y59080D01*
X-56415Y59236D01*
X-55312Y59693D01*
X-54364Y60420D01*
X-53637Y61368D01*
X-53180Y62472D01*
X-53024Y63656D01*
X-53180Y64840D01*
X-53637Y65944D01*
X-54364Y66892D01*
X-55312Y67619D01*
X-56415Y68076D01*
X-57600Y68232D01*
X-58784Y68076D01*
X-59888Y67619D01*
X-60836Y66892D01*
X-61563Y65944D01*
X-61794Y65387D01*
X-63948D01*
X-64137Y65844D01*
X-64864Y66792D01*
X-65812Y67519D01*
X-66916Y67976D01*
X-68100Y68132D01*
X-69284Y67976D01*
X-70388Y67519D01*
X-71336Y66792D01*
X-72063Y65844D01*
X-72252Y65387D01*
X-72914D01*
X-72980Y65886D01*
X-73437Y66989D01*
X-74164Y67937D01*
X-75112Y68664D01*
X-76216Y69122D01*
X-77400Y69278D01*
D02*
G37*
G36*
X-116470Y119527D02*
X-117655Y119371D01*
X-118758Y118913D01*
X-119706Y118186D01*
X-120433Y117238D01*
X-120890Y116135D01*
X-121029Y115085D01*
X-134625Y101488D01*
X-135512Y102169D01*
X-136616Y102626D01*
X-137800Y102782D01*
X-138984Y102626D01*
X-140088Y102169D01*
X-141036Y101441D01*
X-141763Y100494D01*
X-142220Y99390D01*
X-142376Y98206D01*
X-142220Y97021D01*
X-141763Y95917D01*
X-141036Y94970D01*
X-140088Y94242D01*
X-138984Y93785D01*
X-137800Y93629D01*
X-136616Y93785D01*
X-135512Y94242D01*
X-134564Y94970D01*
X-133837Y95917D01*
X-133380Y97021D01*
X-133224Y98206D01*
X-133232Y98267D01*
X-131559Y99941D01*
X-131050Y99601D01*
X-131220Y99190D01*
X-131376Y98005D01*
X-131220Y96821D01*
X-130763Y95717D01*
X-130036Y94770D01*
X-129088Y94042D01*
X-127984Y93585D01*
X-126800Y93429D01*
X-125616Y93585D01*
X-124512Y94042D01*
X-123564Y94770D01*
X-122837Y95717D01*
X-122380Y96821D01*
X-122224Y98005D01*
X-122348Y98951D01*
X-119637Y101662D01*
X-118758Y100987D01*
X-117655Y100530D01*
X-116470Y100374D01*
X-115286Y100530D01*
X-114182Y100987D01*
X-113234Y101715D01*
X-112507Y102662D01*
X-112050Y103766D01*
X-111894Y104950D01*
X-112050Y106135D01*
X-112507Y107238D01*
X-113234Y108186D01*
X-114182Y108914D01*
X-115286Y109371D01*
X-116470Y109527D01*
X-117655Y109371D01*
X-118758Y108914D01*
X-119706Y108186D01*
X-120433Y107238D01*
X-120890Y106135D01*
X-121046Y104950D01*
X-121037Y104877D01*
X-124191Y101722D01*
X-124512Y101969D01*
X-125616Y102426D01*
X-126800Y102582D01*
X-127984Y102426D01*
X-128395Y102256D01*
X-128735Y102764D01*
X-119780Y111720D01*
X-119706Y111715D01*
X-118758Y110987D01*
X-117655Y110530D01*
X-116470Y110374D01*
X-115286Y110530D01*
X-114182Y110987D01*
X-113234Y111715D01*
X-112507Y112662D01*
X-112050Y113766D01*
X-111894Y114951D01*
X-112050Y116135D01*
X-112507Y117238D01*
X-113234Y118186D01*
X-114182Y118913D01*
X-115286Y119371D01*
X-116470Y119527D01*
D02*
G37*
G36*
X-48279Y156782D02*
X-49593Y156653D01*
X-50856Y156269D01*
X-52020Y155647D01*
X-53041Y154809D01*
X-53878Y153789D01*
X-54501Y152625D01*
X-54884Y151361D01*
X-55014Y150047D01*
X-54884Y148733D01*
X-54501Y147470D01*
X-53878Y146306D01*
X-53041Y145285D01*
X-52020Y144448D01*
X-50856Y143825D01*
X-49593Y143442D01*
X-48279Y143313D01*
X-46965Y143442D01*
X-45701Y143825D01*
X-44537Y144448D01*
X-43516Y145285D01*
X-42679Y146306D01*
X-42057Y147470D01*
X-41673Y148733D01*
X-41544Y150047D01*
X-41673Y151361D01*
X-42057Y152625D01*
X-42679Y153789D01*
X-43516Y154809D01*
X-44537Y155647D01*
X-45701Y156269D01*
X-46965Y156653D01*
X-48279Y156782D01*
D02*
G37*
G36*
X-152800Y176876D02*
X-153984Y176720D01*
X-155088Y176263D01*
X-156036Y175536D01*
X-156763Y174588D01*
X-157220Y173484D01*
X-157376Y172300D01*
X-157220Y171116D01*
X-156763Y170012D01*
X-156036Y169064D01*
X-155088Y168337D01*
X-153984Y167880D01*
X-152800Y167724D01*
X-151616Y167880D01*
X-150512Y168337D01*
X-149564Y169064D01*
X-148874Y169963D01*
X-134086D01*
X-133814Y169306D01*
X-133086Y168359D01*
X-132139Y167631D01*
X-131035Y167174D01*
X-129850Y167018D01*
X-128666Y167174D01*
X-127562Y167631D01*
X-126615Y168359D01*
X-125887Y169306D01*
X-125719Y169714D01*
X-124619D01*
X-124520Y168965D01*
X-124063Y167861D01*
X-123336Y166913D01*
X-122388Y166186D01*
X-121284Y165729D01*
X-120100Y165573D01*
X-118916Y165729D01*
X-117812Y166186D01*
X-116864Y166913D01*
X-116137Y167861D01*
X-115680Y168965D01*
X-115524Y170149D01*
X-115680Y171334D01*
X-116137Y172437D01*
X-116864Y173385D01*
X-117812Y174112D01*
X-118916Y174569D01*
X-120100Y174725D01*
X-121284Y174569D01*
X-122388Y174112D01*
X-123336Y173385D01*
X-123649Y172976D01*
X-125512D01*
X-125887Y173882D01*
X-126615Y174830D01*
X-127562Y175557D01*
X-128666Y176015D01*
X-129850Y176171D01*
X-131035Y176015D01*
X-132139Y175557D01*
X-133086Y174830D01*
X-133814Y173882D01*
X-134086Y173226D01*
X-148346D01*
X-148380Y173484D01*
X-148837Y174588D01*
X-149564Y175536D01*
X-150512Y176263D01*
X-151616Y176720D01*
X-152800Y176876D01*
D02*
G37*
G36*
X-83951Y149527D02*
X-85135Y149371D01*
X-86238Y148914D01*
X-87186Y148186D01*
X-87914Y147239D01*
X-88371Y146135D01*
X-88527Y144950D01*
X-88371Y143766D01*
X-87914Y142662D01*
X-87186Y141715D01*
X-86238Y140987D01*
X-85135Y140530D01*
X-83951Y140374D01*
X-82766Y140530D01*
X-81662Y140987D01*
X-80715Y141715D01*
X-79987Y142662D01*
X-79530Y143766D01*
X-79374Y144950D01*
X-79530Y146135D01*
X-79987Y147239D01*
X-80715Y148186D01*
X-81662Y148914D01*
X-82766Y149371D01*
X-83951Y149527D01*
D02*
G37*
G36*
X-126850Y145628D02*
X-128035Y145472D01*
X-129139Y145015D01*
X-130086Y144288D01*
X-130814Y143340D01*
X-131271Y142236D01*
X-131290Y142087D01*
X-133274D01*
X-133587Y142844D01*
X-134315Y143792D01*
X-135262Y144519D01*
X-136366Y144976D01*
X-137550Y145132D01*
X-138735Y144976D01*
X-139839Y144519D01*
X-140786Y143792D01*
X-141514Y142844D01*
X-141910Y141886D01*
X-151050D01*
X-151772Y141743D01*
X-152384Y141334D01*
X-152793Y140722D01*
X-152937Y140000D01*
X-152793Y139278D01*
X-152384Y138666D01*
X-151772Y138257D01*
X-151050Y138114D01*
X-141395D01*
X-140786Y137320D01*
X-139839Y136593D01*
X-138735Y136136D01*
X-137550Y135980D01*
X-136366Y136136D01*
X-135262Y136593D01*
X-134315Y137320D01*
X-133587Y138268D01*
X-133357Y138825D01*
X-130839D01*
X-130814Y138764D01*
X-130086Y137816D01*
X-129139Y137089D01*
X-128035Y136632D01*
X-126850Y136476D01*
X-125666Y136632D01*
X-124562Y137089D01*
X-123615Y137816D01*
X-122887Y138764D01*
X-122430Y139867D01*
X-122274Y141052D01*
X-122430Y142236D01*
X-122887Y143340D01*
X-123615Y144288D01*
X-124562Y145015D01*
X-125666Y145472D01*
X-126850Y145628D01*
D02*
G37*
G36*
X-63750Y186982D02*
X-64935Y186826D01*
X-66039Y186369D01*
X-66986Y185641D01*
X-67713Y184694D01*
X-68171Y183590D01*
X-68327Y182405D01*
X-68171Y181221D01*
X-67713Y180117D01*
X-66986Y179170D01*
X-66039Y178442D01*
X-64935Y177985D01*
X-63750Y177829D01*
X-63026Y177925D01*
X-58718Y173616D01*
Y171725D01*
X-59318Y171686D01*
X-59330Y171779D01*
X-59787Y172882D01*
X-60515Y173830D01*
X-61462Y174557D01*
X-62566Y175015D01*
X-63750Y175171D01*
X-64935Y175015D01*
X-66039Y174557D01*
X-66986Y173830D01*
X-67713Y172882D01*
X-67986Y172226D01*
X-69771D01*
X-70315Y172934D01*
X-71262Y173662D01*
X-72366Y174119D01*
X-73550Y174275D01*
X-74735Y174119D01*
X-75839Y173662D01*
X-76786Y172934D01*
X-77513Y171987D01*
X-77971Y170883D01*
X-78127Y169699D01*
X-77971Y168514D01*
X-77513Y167411D01*
X-76786Y166463D01*
X-75839Y165735D01*
X-74735Y165278D01*
X-74001Y165182D01*
X-74041Y164582D01*
X-145388D01*
X-145629Y164743D01*
X-146351Y164886D01*
X-147072Y164743D01*
X-147684Y164334D01*
X-148093Y163722D01*
X-148237Y163000D01*
X-148093Y162278D01*
X-147684Y161666D01*
X-147255Y161380D01*
X-147090Y160696D01*
X-151844Y155943D01*
X-152087Y155579D01*
X-152172Y155149D01*
X-152172Y155149D01*
Y149476D01*
X-152384Y149334D01*
X-152793Y148722D01*
X-152937Y148000D01*
X-152793Y147278D01*
X-152384Y146666D01*
X-151772Y146257D01*
X-151050Y146114D01*
X-150329Y146257D01*
X-149717Y146666D01*
X-149308Y147278D01*
X-149164Y148000D01*
X-149308Y148722D01*
X-149717Y149334D01*
X-149929Y149476D01*
Y154685D01*
X-145086Y159528D01*
X-137900D01*
X-137900Y159528D01*
X-137898Y159529D01*
X-118840D01*
X-118721Y158929D01*
X-118758Y158914D01*
X-119706Y158186D01*
X-120433Y157238D01*
X-120600Y156837D01*
X-123880D01*
X-124110Y157013D01*
X-125214Y157471D01*
X-126399Y157627D01*
X-127583Y157471D01*
X-128687Y157013D01*
X-129634Y156286D01*
X-130362Y155339D01*
X-130819Y154235D01*
X-130975Y153050D01*
X-130819Y151866D01*
X-130362Y150762D01*
X-129634Y149815D01*
X-128687Y149087D01*
X-127583Y148630D01*
X-126399Y148474D01*
X-125214Y148630D01*
X-124110Y149087D01*
X-123163Y149815D01*
X-122435Y150762D01*
X-121978Y151866D01*
X-121822Y153050D01*
X-121810Y153064D01*
X-120600D01*
X-120433Y152662D01*
X-119706Y151715D01*
X-118758Y150987D01*
X-117655Y150530D01*
X-116470Y150374D01*
X-115286Y150530D01*
X-114182Y150987D01*
X-113234Y151715D01*
X-112507Y152662D01*
X-112050Y153766D01*
X-111894Y154950D01*
X-112050Y156135D01*
X-112507Y157238D01*
X-113234Y158186D01*
X-114182Y158914D01*
X-114219Y158929D01*
X-114100Y159529D01*
X-77965D01*
X-74572Y156135D01*
Y150461D01*
X-75288Y150164D01*
X-76236Y149437D01*
X-76963Y148489D01*
X-77420Y147386D01*
X-77576Y146201D01*
X-77420Y145017D01*
X-76963Y143913D01*
X-76236Y142966D01*
X-75288Y142238D01*
X-74184Y141781D01*
X-73000Y141625D01*
X-71816Y141781D01*
X-70712Y142238D01*
X-69764Y142966D01*
X-69037Y143913D01*
X-68807Y144469D01*
X-67357D01*
X-66963Y143517D01*
X-66236Y142570D01*
X-65288Y141842D01*
X-64184Y141385D01*
X-63000Y141229D01*
X-61816Y141385D01*
X-60712Y141842D01*
X-59764Y142570D01*
X-59037Y143517D01*
X-58580Y144621D01*
X-58424Y145806D01*
X-58580Y146990D01*
X-59037Y148094D01*
X-59764Y149041D01*
X-60712Y149769D01*
X-61816Y150226D01*
X-63000Y150382D01*
X-64184Y150226D01*
X-65288Y149769D01*
X-66236Y149041D01*
X-66963Y148094D01*
X-67113Y147731D01*
X-68723D01*
X-69037Y148489D01*
X-69764Y149437D01*
X-70712Y150164D01*
X-71816Y150622D01*
X-72329Y150689D01*
Y156600D01*
X-72414Y157029D01*
X-72657Y157393D01*
X-72657Y157393D01*
X-76029Y160765D01*
X-75800Y161319D01*
X-66931D01*
X-66811Y160719D01*
X-67188Y160563D01*
X-68136Y159836D01*
X-68863Y158888D01*
X-69320Y157784D01*
X-69476Y156600D01*
X-69320Y155416D01*
X-68863Y154312D01*
X-68136Y153364D01*
X-67188Y152637D01*
X-66084Y152180D01*
X-64900Y152024D01*
X-63716Y152180D01*
X-62612Y152637D01*
X-61664Y153364D01*
X-60937Y154312D01*
X-60480Y155416D01*
X-60324Y156600D01*
X-60480Y157784D01*
X-60937Y158888D01*
X-61664Y159836D01*
X-62612Y160563D01*
X-62989Y160719D01*
X-62869Y161319D01*
X-57400D01*
X-56776Y161443D01*
X-56381Y161707D01*
X-56129Y161757D01*
X-55517Y162166D01*
X-55108Y162778D01*
X-54964Y163500D01*
X-55108Y164222D01*
X-55455Y164742D01*
Y174292D01*
X-55579Y174916D01*
X-55933Y175446D01*
X-60142Y179655D01*
X-59787Y180117D01*
X-59330Y181221D01*
X-59174Y182405D01*
X-59330Y183590D01*
X-59787Y184694D01*
X-60515Y185641D01*
X-61462Y186369D01*
X-62566Y186826D01*
X-63750Y186982D01*
D02*
G37*
G36*
X-120100Y187728D02*
X-121284Y187572D01*
X-122388Y187115D01*
X-123336Y186388D01*
X-124063Y185440D01*
X-124520Y184336D01*
X-124676Y183152D01*
X-124520Y181967D01*
X-124063Y180864D01*
X-123336Y179916D01*
X-122388Y179189D01*
X-121284Y178732D01*
X-120100Y178576D01*
X-118916Y178732D01*
X-117812Y179189D01*
X-116864Y179916D01*
X-116137Y180864D01*
X-115680Y181967D01*
X-115524Y183152D01*
X-115680Y184336D01*
X-116137Y185440D01*
X-116864Y186388D01*
X-117812Y187115D01*
X-118916Y187572D01*
X-120100Y187728D01*
D02*
G37*
G36*
X-129850Y187982D02*
X-131035Y187826D01*
X-132139Y187369D01*
X-133086Y186641D01*
X-133814Y185694D01*
X-133984Y185282D01*
X-145362D01*
X-145529Y185393D01*
X-146250Y185537D01*
X-146972Y185393D01*
X-147584Y184984D01*
X-147993Y184372D01*
X-148137Y183651D01*
X-147993Y182929D01*
X-147584Y182317D01*
X-146972Y181908D01*
X-146250Y181764D01*
X-145529Y181908D01*
X-145362Y182019D01*
X-134187D01*
X-133814Y181117D01*
X-133086Y180170D01*
X-132139Y179442D01*
X-131035Y178985D01*
X-129850Y178829D01*
X-128666Y178985D01*
X-127562Y179442D01*
X-126615Y180170D01*
X-125887Y181117D01*
X-125430Y182221D01*
X-125274Y183405D01*
X-125430Y184590D01*
X-125887Y185694D01*
X-126615Y186641D01*
X-127562Y187369D01*
X-128666Y187826D01*
X-129850Y187982D01*
D02*
G37*
G36*
X-48379Y185982D02*
X-49693Y185853D01*
X-50956Y185469D01*
X-52120Y184847D01*
X-53141Y184010D01*
X-53979Y182989D01*
X-54601Y181825D01*
X-54984Y180561D01*
X-55114Y179247D01*
X-54984Y177933D01*
X-54601Y176670D01*
X-53979Y175506D01*
X-53141Y174485D01*
X-52120Y173647D01*
X-50956Y173025D01*
X-49693Y172642D01*
X-48379Y172512D01*
X-47065Y172642D01*
X-45801Y173025D01*
X-44637Y173647D01*
X-43617Y174485D01*
X-42779Y175506D01*
X-42157Y176670D01*
X-41773Y177933D01*
X-41644Y179247D01*
X-41773Y180561D01*
X-42157Y181825D01*
X-42779Y182989D01*
X-43617Y184010D01*
X-44637Y184847D01*
X-45801Y185469D01*
X-47065Y185853D01*
X-48379Y185982D01*
D02*
G37*
G36*
X-73550Y187277D02*
X-74735Y187122D01*
X-75839Y186664D01*
X-76786Y185937D01*
X-77513Y184989D01*
X-77971Y183886D01*
X-78127Y182701D01*
X-77971Y181517D01*
X-77513Y180413D01*
X-76786Y179465D01*
X-75839Y178738D01*
X-74735Y178281D01*
X-73550Y178125D01*
X-72366Y178281D01*
X-71262Y178738D01*
X-70315Y179465D01*
X-69587Y180413D01*
X-69130Y181517D01*
X-68974Y182701D01*
X-69130Y183886D01*
X-69587Y184989D01*
X-70315Y185937D01*
X-71262Y186664D01*
X-72366Y187122D01*
X-73550Y187277D01*
D02*
G37*
G36*
X-116470Y149527D02*
X-117655Y149371D01*
X-118758Y148914D01*
X-119706Y148186D01*
X-120433Y147239D01*
X-120890Y146135D01*
X-121046Y144950D01*
X-120890Y143766D01*
X-120433Y142662D01*
X-119706Y141715D01*
X-118758Y140987D01*
X-117655Y140530D01*
X-116470Y140374D01*
X-115286Y140530D01*
X-114182Y140987D01*
X-113234Y141715D01*
X-112507Y142662D01*
X-112050Y143766D01*
X-111894Y144950D01*
X-112050Y146135D01*
X-112507Y147239D01*
X-113234Y148186D01*
X-114182Y148914D01*
X-115286Y149371D01*
X-116470Y149527D01*
D02*
G37*
G36*
X-63000Y138571D02*
X-64184Y138415D01*
X-65288Y137958D01*
X-66236Y137230D01*
X-66963Y136283D01*
X-67420Y135179D01*
X-67576Y133994D01*
X-67420Y132810D01*
X-66963Y131706D01*
X-66236Y130759D01*
X-65288Y130031D01*
X-64782Y129822D01*
Y128832D01*
X-72011Y121602D01*
X-72417Y121771D01*
X-73601Y121927D01*
X-74786Y121771D01*
X-75889Y121314D01*
X-76072Y121174D01*
X-79430Y124531D01*
X-79374Y124951D01*
X-79530Y126135D01*
X-79987Y127239D01*
X-80715Y128186D01*
X-81662Y128913D01*
X-82766Y129371D01*
X-83951Y129527D01*
X-85135Y129371D01*
X-86238Y128913D01*
X-87186Y128186D01*
X-87914Y127239D01*
X-88371Y126135D01*
X-88527Y124951D01*
X-88371Y123766D01*
X-87914Y122662D01*
X-87186Y121715D01*
X-86238Y120987D01*
X-85135Y120530D01*
X-83951Y120374D01*
X-82766Y120530D01*
X-81662Y120987D01*
X-81005Y121492D01*
X-78025Y118512D01*
X-78177Y117350D01*
X-78022Y116166D01*
X-77564Y115062D01*
X-76837Y114115D01*
X-75889Y113387D01*
X-74786Y112930D01*
X-73601Y112774D01*
X-72417Y112930D01*
X-71313Y113387D01*
X-70366Y114115D01*
X-69638Y115062D01*
X-69181Y116166D01*
X-69025Y117350D01*
X-69181Y118535D01*
X-69557Y119442D01*
X-61997Y127002D01*
X-61643Y127532D01*
X-61519Y128156D01*
Y129697D01*
X-60712Y130031D01*
X-59764Y130759D01*
X-59037Y131706D01*
X-58580Y132810D01*
X-58424Y133994D01*
X-58580Y135179D01*
X-59037Y136283D01*
X-59764Y137230D01*
X-60712Y137958D01*
X-61816Y138415D01*
X-63000Y138571D01*
D02*
G37*
G36*
X-170056Y132527D02*
X-171240Y132371D01*
X-172344Y131913D01*
X-173292Y131186D01*
X-174019Y130238D01*
X-174476Y129135D01*
X-174632Y127951D01*
X-174476Y126766D01*
X-174019Y125662D01*
X-173292Y124715D01*
X-172344Y123987D01*
X-171240Y123530D01*
X-170056Y123374D01*
X-168872Y123530D01*
X-167768Y123987D01*
X-166820Y124715D01*
X-166093Y125662D01*
X-165636Y126766D01*
X-165480Y127951D01*
X-165636Y129135D01*
X-166093Y130238D01*
X-166820Y131186D01*
X-167768Y131913D01*
X-168872Y132371D01*
X-170056Y132527D01*
D02*
G37*
G36*
X-157649Y122827D02*
X-158834Y122671D01*
X-159937Y122213D01*
X-160885Y121486D01*
X-161612Y120538D01*
X-162069Y119435D01*
X-162225Y118251D01*
X-162069Y117066D01*
X-161612Y115962D01*
X-160885Y115015D01*
X-159937Y114287D01*
X-158834Y113830D01*
X-157649Y113674D01*
X-156465Y113830D01*
X-155361Y114287D01*
X-154413Y115015D01*
X-153686Y115962D01*
X-153229Y117066D01*
X-153073Y118251D01*
X-153229Y119435D01*
X-153686Y120538D01*
X-154413Y121486D01*
X-155361Y122213D01*
X-156465Y122671D01*
X-157649Y122827D01*
D02*
G37*
G36*
X-48379Y127582D02*
X-49693Y127453D01*
X-50956Y127069D01*
X-52120Y126447D01*
X-53141Y125610D01*
X-53979Y124589D01*
X-54601Y123425D01*
X-54984Y122161D01*
X-55114Y120847D01*
X-54984Y119533D01*
X-54601Y118270D01*
X-53979Y117106D01*
X-53141Y116085D01*
X-52120Y115247D01*
X-50956Y114625D01*
X-49693Y114242D01*
X-48379Y114112D01*
X-47065Y114242D01*
X-45801Y114625D01*
X-44637Y115247D01*
X-43617Y116085D01*
X-42779Y117106D01*
X-42157Y118270D01*
X-41773Y119533D01*
X-41644Y120847D01*
X-41773Y122161D01*
X-42157Y123425D01*
X-42779Y124589D01*
X-43617Y125610D01*
X-44637Y126447D01*
X-45801Y127069D01*
X-47065Y127453D01*
X-48379Y127582D01*
D02*
G37*
G36*
X-170652Y122827D02*
X-171836Y122671D01*
X-172940Y122213D01*
X-173888Y121486D01*
X-174615Y120538D01*
X-175072Y119435D01*
X-175228Y118251D01*
X-175072Y117066D01*
X-174615Y115962D01*
X-173888Y115015D01*
X-172940Y114287D01*
X-171836Y113830D01*
X-170652Y113674D01*
X-169467Y113830D01*
X-168364Y114287D01*
X-167416Y115015D01*
X-166689Y115962D01*
X-166232Y117066D01*
X-166076Y118251D01*
X-166232Y119435D01*
X-166689Y120538D01*
X-167416Y121486D01*
X-168364Y122213D01*
X-169467Y122671D01*
X-170652Y122827D01*
D02*
G37*
G36*
X-137550Y133321D02*
X-138735Y133165D01*
X-139839Y132708D01*
X-140786Y131981D01*
X-141514Y131033D01*
X-141786Y130376D01*
X-145304D01*
X-145629Y130593D01*
X-146351Y130737D01*
X-147072Y130593D01*
X-147684Y130184D01*
X-148093Y129572D01*
X-148237Y128850D01*
X-148093Y128129D01*
X-147684Y127517D01*
X-147072Y127108D01*
X-146351Y126964D01*
X-145629Y127108D01*
X-145620Y127114D01*
X-141786D01*
X-141514Y126457D01*
X-140786Y125509D01*
X-139839Y124782D01*
X-138735Y124325D01*
X-137550Y124169D01*
X-136366Y124325D01*
X-135843Y124541D01*
X-130552Y119251D01*
X-130562Y119238D01*
X-131019Y118135D01*
X-131175Y116951D01*
X-131019Y115766D01*
X-130562Y114662D01*
X-129834Y113715D01*
X-128887Y112987D01*
X-127783Y112530D01*
X-126599Y112374D01*
X-125414Y112530D01*
X-124311Y112987D01*
X-123363Y113715D01*
X-122635Y114662D01*
X-122178Y115766D01*
X-122022Y116951D01*
X-122178Y118135D01*
X-122376Y118612D01*
X-119461Y121527D01*
X-118758Y120987D01*
X-117655Y120530D01*
X-116470Y120374D01*
X-115286Y120530D01*
X-114182Y120987D01*
X-113234Y121715D01*
X-112507Y122662D01*
X-112050Y123766D01*
X-111894Y124951D01*
X-112050Y126135D01*
X-112507Y127239D01*
X-113234Y128186D01*
X-114182Y128913D01*
X-115286Y129371D01*
X-116470Y129527D01*
X-117655Y129371D01*
X-118758Y128913D01*
X-119706Y128186D01*
X-120433Y127239D01*
X-120890Y126135D01*
X-121046Y124951D01*
X-121000Y124602D01*
X-124578Y121024D01*
X-125414Y121371D01*
X-126599Y121527D01*
X-127783Y121371D01*
X-127978Y121290D01*
X-133458Y126770D01*
X-133130Y127560D01*
X-132974Y128745D01*
X-133130Y129929D01*
X-133587Y131033D01*
X-134315Y131981D01*
X-135262Y132708D01*
X-136366Y133165D01*
X-137550Y133321D01*
D02*
G37*
G36*
X-116470Y139527D02*
X-117655Y139371D01*
X-118758Y138914D01*
X-119706Y138186D01*
X-120433Y137239D01*
X-120890Y136135D01*
X-121046Y134950D01*
X-120890Y133766D01*
X-120618Y133109D01*
X-122784Y130944D01*
X-123383Y130983D01*
X-123615Y131285D01*
X-124562Y132012D01*
X-125666Y132469D01*
X-126850Y132625D01*
X-128035Y132469D01*
X-129139Y132012D01*
X-130086Y131285D01*
X-130814Y130337D01*
X-131271Y129234D01*
X-131427Y128049D01*
X-131271Y126865D01*
X-130814Y125761D01*
X-130086Y124813D01*
X-129139Y124086D01*
X-128035Y123629D01*
X-126850Y123473D01*
X-125666Y123629D01*
X-124562Y124086D01*
X-123615Y124813D01*
X-122887Y125761D01*
X-122430Y126865D01*
X-122401Y127088D01*
X-122151Y127138D01*
X-121622Y127491D01*
X-118311Y130802D01*
X-117655Y130530D01*
X-116470Y130374D01*
X-115286Y130530D01*
X-114182Y130987D01*
X-113234Y131715D01*
X-112507Y132662D01*
X-112050Y133766D01*
X-111894Y134950D01*
X-112050Y136135D01*
X-112507Y137239D01*
X-113234Y138186D01*
X-114182Y138914D01*
X-115286Y139371D01*
X-116470Y139527D01*
D02*
G37*
G36*
X-158245Y132527D02*
X-159429Y132371D01*
X-160533Y131913D01*
X-161481Y131186D01*
X-162208Y130238D01*
X-162665Y129135D01*
X-162821Y127951D01*
X-162665Y126766D01*
X-162208Y125662D01*
X-161481Y124715D01*
X-160533Y123987D01*
X-159429Y123530D01*
X-158245Y123374D01*
X-157061Y123530D01*
X-155957Y123987D01*
X-155009Y124715D01*
X-154282Y125662D01*
X-153825Y126766D01*
X-153669Y127951D01*
X-153825Y129135D01*
X-154282Y130238D01*
X-155009Y131186D01*
X-155957Y131913D01*
X-157061Y132371D01*
X-158245Y132527D01*
D02*
G37*
G36*
X-83951Y139527D02*
X-85135Y139371D01*
X-86238Y138914D01*
X-87186Y138186D01*
X-87914Y137239D01*
X-88371Y136135D01*
X-88527Y134950D01*
X-88371Y133766D01*
X-87914Y132662D01*
X-87186Y131715D01*
X-86238Y130987D01*
X-85135Y130530D01*
X-83951Y130374D01*
X-82766Y130530D01*
X-81662Y130987D01*
X-80715Y131715D01*
X-80255Y132314D01*
X-77460D01*
X-77420Y132014D01*
X-76963Y130911D01*
X-76236Y129963D01*
X-75288Y129236D01*
X-74184Y128778D01*
X-73000Y128622D01*
X-71816Y128778D01*
X-70712Y129236D01*
X-69764Y129963D01*
X-69037Y130911D01*
X-68580Y132014D01*
X-68424Y133199D01*
X-68580Y134383D01*
X-69037Y135487D01*
X-69764Y136434D01*
X-70712Y137162D01*
X-71816Y137619D01*
X-73000Y137775D01*
X-74184Y137619D01*
X-75288Y137162D01*
X-76236Y136434D01*
X-76503Y136086D01*
X-79524D01*
X-79530Y136135D01*
X-79987Y137239D01*
X-80715Y138186D01*
X-81662Y138914D01*
X-82766Y139371D01*
X-83951Y139527D01*
D02*
G37*
%LPD*%
G36*
X-58718Y169464D02*
Y164582D01*
X-73060D01*
X-73099Y165182D01*
X-72366Y165278D01*
X-71262Y165735D01*
X-70315Y166463D01*
X-69587Y167411D01*
X-69130Y168514D01*
X-69071Y168963D01*
X-67986D01*
X-67713Y168306D01*
X-66986Y167359D01*
X-66039Y166631D01*
X-64935Y166174D01*
X-63750Y166018D01*
X-62566Y166174D01*
X-61462Y166631D01*
X-60515Y167359D01*
X-59787Y168306D01*
X-59330Y169410D01*
X-59318Y169503D01*
X-58718Y169464D01*
D02*
G37*
D10*
X-118656Y104950D02*
X-116470D01*
X-60550Y51945D02*
X-56906D01*
X-75956Y96956D02*
X-74351D01*
X-83951Y114951D02*
X-82045D01*
X-138107Y140000D02*
X-137550Y140556D01*
X-137451Y140456D01*
X-146351Y163000D02*
X-146301Y162951D01*
X-117950Y171345D02*
X-117850Y171245D01*
X-176350Y166650D02*
X-173756D01*
X-176050Y176451D02*
X-173756D01*
X-118345Y124951D02*
X-116470D01*
X-137550Y128556D02*
Y128745D01*
X-83951Y124951D02*
X-82156D01*
X-128945Y183651D02*
X-128451Y183156D01*
X-64051Y85145D02*
X-57800Y91395D01*
Y97650D01*
X-137900Y160651D02*
X-77501D01*
X-73450Y156600D01*
X-56906Y51945D02*
X-49600Y59250D01*
X-20900D02*
X-20700Y59451D01*
X-49600Y59250D02*
X-20900D01*
X-137900Y160650D02*
X-137900Y160651D01*
X-145550Y160650D02*
X-137900D01*
X-151050Y155149D02*
X-145550Y160650D01*
X-151050Y148000D02*
Y155149D01*
X-73450Y146100D02*
Y156600D01*
X-118856Y114951D02*
X-116470D01*
X-57800Y97650D02*
X-52250Y103200D01*
X-48000D01*
D11*
X-126251Y97356D02*
X-118656Y104950D01*
X-122776Y128645D02*
X-116470Y134950D01*
X-126850Y128645D02*
X-122776D01*
X-146351Y71551D02*
X-123851D01*
X-57087Y163736D02*
Y174292D01*
X-64650Y181856D02*
X-57087Y174292D01*
X-80050Y63756D02*
X-60550D01*
X-70850Y51845D02*
X-59505Y40500D01*
X-80151Y51845D02*
X-70850D01*
X-83951Y104950D02*
X-75956Y96956D01*
X-82045Y114951D02*
X-64051Y96956D01*
X-136451Y85545D02*
X-126251D01*
X-116470Y84951D02*
X-83951D01*
X-137451Y140456D02*
X-126850D01*
X-146301Y162951D02*
X-57400D01*
X-74351Y85145D02*
X-64051D01*
X-126145Y117150D02*
X-118345Y124951D01*
X-137550Y128556D02*
X-126145Y117150D01*
X-146245Y128745D02*
X-137550D01*
X-82156Y124951D02*
X-74256Y117051D01*
X-63151Y128156D01*
Y136445D01*
X-146250Y183651D02*
X-129850D01*
X-153200Y171594D02*
X-129850D01*
X-128451Y171345D02*
X-117950D01*
X-187800Y74050D02*
Y157001D01*
X-177501Y167300D01*
X-123651Y71351D02*
X-101100D01*
X-123851Y71551D02*
X-123651Y71351D01*
X-73251Y170594D02*
X-63750D01*
X-73450Y146100D02*
X-65306D01*
X-63151Y148256D01*
X-59505Y40500D02*
X-32807D01*
X-20156Y53150D01*
X-61150Y75750D02*
X-60950Y75551D01*
X-120950Y75750D02*
X-61150D01*
X-177501Y167300D02*
X-173000D01*
X-136451Y97356D02*
X-118856Y114951D01*
X-95100Y72451D02*
X-74100D01*
D12*
X-191350Y68000D02*
X-164401D01*
X-191451Y192350D02*
X-113607D01*
X-110256Y189000D01*
X-151050Y140000D02*
X-138107D01*
X-180156Y8850D02*
X-157399D01*
X-180945Y138850D02*
X-180751Y139045D01*
X-178256Y96351D02*
X-176451D01*
X-176850Y96250D02*
X-170650Y102451D01*
X-159250D01*
X-151550Y94750D01*
X-83951Y134950D02*
X-83200Y134200D01*
X-75795D01*
X-48445Y78650D02*
X-48345Y78550D01*
X-164401Y68000D02*
X-153751Y78650D01*
X-48445D01*
X-126399Y153050D02*
X-124499Y154950D01*
X-116470D01*
D13*
X-196850Y0D02*
Y196850D01*
Y0D02*
X0D01*
Y196850D01*
X-196850D02*
X0D01*
D14*
X-47800Y64549D02*
D03*
Y77552D02*
D03*
X-180600Y110351D02*
D03*
X-188800Y35451D02*
D03*
X-184000Y161550D02*
D03*
X-77400Y64701D02*
D03*
Y51699D02*
D03*
X-152500Y65201D02*
D03*
Y52199D02*
D03*
X-164749Y77650D02*
D03*
X-177752D02*
D03*
X-170652Y118251D02*
D03*
X-157649D02*
D03*
X-73000Y133199D02*
D03*
Y146201D02*
D03*
X-181200Y138149D02*
D03*
Y151152D02*
D03*
X-161599Y166900D02*
D03*
X-174601D02*
D03*
X-139401Y153050D02*
D03*
X-126399D02*
D03*
X-126850Y141052D02*
D03*
Y128049D02*
D03*
X-139601Y116951D02*
D03*
X-126599D02*
D03*
X-60599Y117350D02*
D03*
X-73601D02*
D03*
X-180350Y8449D02*
D03*
Y21452D02*
D03*
X-45501Y51850D02*
D03*
X-32499D02*
D03*
X-141800Y51849D02*
D03*
Y64852D02*
D03*
X-87599Y52100D02*
D03*
X-100601D02*
D03*
X-120100Y170149D02*
D03*
Y183152D02*
D03*
X-96799Y188951D02*
D03*
X-109801D02*
D03*
X-100305Y62800D02*
D03*
X-88494D02*
D03*
X-68100Y51745D02*
D03*
Y63556D02*
D03*
X-57600Y63656D02*
D03*
Y51845D02*
D03*
X-158245Y127951D02*
D03*
X-170056D02*
D03*
X-158145Y108551D02*
D03*
X-169956D02*
D03*
X-63000Y145806D02*
D03*
Y133994D02*
D03*
X-64051Y85145D02*
D03*
Y96956D02*
D03*
X-173705Y186300D02*
D03*
X-161895D02*
D03*
X-161995Y176600D02*
D03*
X-173805D02*
D03*
X-177256Y96351D02*
D03*
X-165445D02*
D03*
X-137550Y128745D02*
D03*
Y140556D02*
D03*
X-74351Y85145D02*
D03*
Y96956D02*
D03*
X-165345Y86950D02*
D03*
X-177156D02*
D03*
X-137800Y98206D02*
D03*
Y86395D02*
D03*
X-126800Y98005D02*
D03*
Y86194D02*
D03*
X-8895Y52900D02*
D03*
X-20706D02*
D03*
X-129850Y183405D02*
D03*
Y171594D02*
D03*
X-83951Y94950D02*
D03*
Y104950D02*
D03*
Y114951D02*
D03*
Y124951D02*
D03*
Y134950D02*
D03*
Y144950D02*
D03*
Y154950D02*
D03*
X-116470Y84951D02*
D03*
Y94950D02*
D03*
Y104950D02*
D03*
Y114951D02*
D03*
Y124951D02*
D03*
Y134950D02*
D03*
Y144950D02*
D03*
Y154950D02*
D03*
X-8021Y81511D02*
D03*
Y101590D02*
D03*
X-8221Y110611D02*
D03*
Y130690D02*
D03*
Y169011D02*
D03*
Y189090D02*
D03*
X-8121Y139811D02*
D03*
Y159890D02*
D03*
X-64900Y156600D02*
D03*
X-152800Y172300D02*
D03*
X-73550Y169699D02*
D03*
Y182701D02*
D03*
X-63750Y170594D02*
D03*
Y182405D02*
D03*
D15*
X-83951Y84951D02*
D03*
D16*
X-48179Y91747D02*
D03*
X-48379Y120847D02*
D03*
Y179247D02*
D03*
X-48279Y150047D02*
D03*
D17*
X-157399Y8850D02*
D03*
X-8502D02*
D03*
D18*
X-74100Y72451D02*
D03*
X-95100D02*
D03*
X-146250Y71500D02*
D03*
X-123851Y71551D02*
D03*
X-191350Y68000D02*
D03*
X-151050Y140000D02*
D03*
Y148000D02*
D03*
X-146351Y163000D02*
D03*
X-56850Y163500D02*
D03*
X-137850Y192000D02*
D03*
X-191451Y192350D02*
D03*
X-191350Y138850D02*
D03*
X-140850Y78250D02*
D03*
X-151550Y94750D02*
D03*
X-146351Y128850D02*
D03*
X-146250Y183651D02*
D03*
X-188100Y74050D02*
D03*
X-20700Y59451D02*
D03*
X-101100Y71351D02*
D03*
X-60950Y75551D02*
D03*
X-121001Y75200D02*
D03*
X-146400Y102300D02*
D03*
X-48000Y103200D02*
D03*
M02*
