%FSLAX25Y25*%
%MOIN*%
G70*
G01*
G75*
G04 Layer_Color=65535*
%ADD10C,0.01000*%
%ADD11C,0.02000*%
%ADD12C,0.02500*%
%ADD13C,0.00787*%
%ADD14C,0.07874*%
%ADD15R,0.07874X0.07874*%
%ADD16C,0.12205*%
%ADD17C,0.09843*%
%ADD18C,0.02500*%
%ADD19R,0.02362X0.08661*%
%ADD20R,0.08661X0.02362*%
%ADD21O,0.02992X0.09449*%
%ADD22R,0.02992X0.09449*%
%ADD23R,0.08000X0.06500*%
%ADD24R,0.08500X0.07000*%
%ADD25R,0.08100X0.06700*%
%ADD26R,0.08900X0.07700*%
%ADD27R,0.08200X0.07100*%
%ADD28C,0.00300*%
%ADD29C,0.00500*%
D13*
X-97710Y79950D02*
G03*
X-102710Y79950I-2500J0D01*
G01*
X-48179Y98243D02*
G03*
X-48179Y85251I0J-6496D01*
G01*
X-48379Y127343D02*
G03*
X-48379Y114351I0J-6496D01*
G01*
Y185743D02*
G03*
X-48379Y172751I0J-6496D01*
G01*
X-48279Y156543D02*
G03*
X-48279Y143551I0J-6496D01*
G01*
X-97710Y79950D02*
X-91175D01*
X-109246D02*
X-102710D01*
X-109246D02*
Y159950D01*
X-91175D01*
Y79950D02*
Y159950D01*
X-48179Y98243D02*
X-39320D01*
X-48179Y85251D02*
X-39320D01*
Y98243D02*
Y104543D01*
Y78952D02*
Y85251D01*
Y104543D02*
X20522D01*
X-39320Y78952D02*
X20522D01*
X20522Y78952D02*
X20522Y78952D01*
X20522Y78952D02*
Y104543D01*
X-48379Y127343D02*
X-39520D01*
X-48379Y114351D02*
X-39520D01*
Y127343D02*
Y133643D01*
Y108052D02*
Y114351D01*
Y133643D02*
X20322D01*
X-39520Y108052D02*
X20322D01*
X20322Y108052D02*
X20322Y108052D01*
X20322Y108052D02*
Y133643D01*
X-48379Y185743D02*
X-39520D01*
X-48379Y172751D02*
X-39520D01*
Y185743D02*
Y192043D01*
Y166452D02*
Y172751D01*
Y192043D02*
X20322D01*
X-39520Y166452D02*
X20322D01*
X20322Y166452D02*
X20322Y166452D01*
X20322Y166452D02*
Y192043D01*
X-48279Y156543D02*
X-39420D01*
X-48279Y143551D02*
X-39420D01*
Y156543D02*
Y162843D01*
Y137252D02*
Y143551D01*
Y162843D02*
X20422D01*
X-39420Y137252D02*
X20422D01*
X20422Y137252D02*
X20422Y137252D01*
X20422Y137252D02*
Y162843D01*
X3624Y8850D02*
Y45858D01*
Y-28551D02*
Y8850D01*
X-169210Y46252D02*
X4018D01*
X-169210Y-28551D02*
X3624D01*
X-169210D02*
Y8850D01*
Y46252D01*
X-196850Y0D02*
Y196850D01*
Y0D02*
X0D01*
Y196850D01*
X-196850D02*
X0D01*
D28*
X-52200Y60155D02*
X-43400D01*
X-52200D02*
Y81952D01*
X-43400D01*
Y60155D02*
Y81952D01*
X-77400Y128804D02*
X-68600D01*
X-77400D02*
Y150601D01*
X-68600D01*
Y128804D02*
Y150601D01*
X-143796Y148651D02*
Y157450D01*
X-121999D01*
Y148651D02*
Y157450D01*
X-143796Y148651D02*
X-121999D01*
X-131251Y145446D02*
X-122450D01*
Y123649D02*
Y145446D01*
X-131251Y123649D02*
X-122450D01*
X-131251D02*
Y145446D01*
X-143996Y112550D02*
Y121351D01*
X-122199D01*
Y112550D02*
Y121351D01*
X-143996Y112550D02*
X-122199D01*
X-56204Y112951D02*
Y121750D01*
X-78001Y112951D02*
X-56204D01*
X-78001D02*
Y121750D01*
X-56204D01*
X-184750Y4055D02*
X-175951D01*
X-184750D02*
Y25852D01*
X-175951D01*
Y4055D02*
Y25852D01*
X-58600Y129600D02*
Y150200D01*
X-67400D02*
X-58600D01*
X-67400Y129600D02*
Y150200D01*
Y129600D02*
X-58600D01*
X-68450Y80751D02*
X-59650D01*
X-68450D02*
Y101350D01*
X-59650D01*
Y80751D02*
Y101350D01*
X-141951Y124351D02*
X-133150D01*
X-141951D02*
Y144950D01*
X-133150D01*
Y124351D02*
Y144950D01*
X-78750Y80751D02*
Y101350D01*
Y80751D02*
X-69950D01*
Y101350D01*
X-78750D02*
X-69950D01*
X-133400Y82000D02*
Y102600D01*
X-142200D02*
X-133400D01*
X-142200Y82000D02*
Y102600D01*
Y82000D02*
X-133400D01*
X-131200Y102400D02*
X-122400D01*
Y81800D02*
Y102400D01*
X-131200Y81800D02*
X-122400D01*
X-131200D02*
Y102400D01*
X-183750Y38699D02*
Y37366D01*
X-183084Y36700D01*
X-182418Y37366D01*
Y38699D01*
X-181751D02*
Y36700D01*
X-180751D01*
X-180418Y37033D01*
Y38366D01*
X-180751Y38699D01*
X-181751D01*
X-179752D02*
Y36700D01*
X-178752D01*
X-178419Y37033D01*
Y38366D01*
X-178752Y38699D01*
X-179752D01*
X-187851Y170299D02*
X-188517D01*
X-188850Y169966D01*
Y168633D01*
X-188517Y168300D01*
X-187851D01*
X-187518Y168633D01*
Y169966D01*
X-187851Y170299D01*
X-186851Y169633D02*
Y168633D01*
X-186518Y168300D01*
X-185518D01*
Y169633D01*
X-184519Y169966D02*
Y169633D01*
X-184852D01*
X-184185D01*
X-184519D01*
Y168633D01*
X-184185Y168300D01*
X-183186D02*
X-182519D01*
X-182852D01*
Y170299D01*
X-183186Y169966D01*
X-182851Y118299D02*
X-183517D01*
X-183851Y117966D01*
Y116633D01*
X-183517Y116300D01*
X-182851D01*
X-182518Y116633D01*
Y117966D01*
X-182851Y118299D01*
X-181851Y117633D02*
Y116633D01*
X-181518Y116300D01*
X-180518D01*
Y117633D01*
X-179518Y117966D02*
Y117633D01*
X-179852D01*
X-179185D01*
X-179518D01*
Y116633D01*
X-179185Y116300D01*
X-176853D02*
X-178186D01*
X-176853Y117633D01*
Y117966D01*
X-177186Y118299D01*
X-177852D01*
X-178186Y117966D01*
X-154267Y179217D02*
X-154600Y179550D01*
X-155267D01*
X-155600Y179217D01*
Y177884D01*
X-155267Y177550D01*
X-154600D01*
X-154267Y177884D01*
X-153601Y179550D02*
Y177550D01*
Y178550D01*
X-152268D01*
Y179550D01*
Y177550D01*
X-151601D02*
X-150935D01*
X-151268D01*
Y179550D01*
X-151601Y179217D01*
X-149935Y179550D02*
Y177884D01*
X-149602Y177550D01*
X-148935D01*
X-148602Y177884D01*
Y179550D01*
X-75567Y160766D02*
X-75900Y161099D01*
X-76567D01*
X-76900Y160766D01*
Y159433D01*
X-76567Y159100D01*
X-75900D01*
X-75567Y159433D01*
X-74901Y161099D02*
Y159100D01*
Y160100D01*
X-73568D01*
Y161099D01*
Y159100D01*
X-71568D02*
X-72901D01*
X-71568Y160433D01*
Y160766D01*
X-71902Y161099D01*
X-72568D01*
X-72901Y160766D01*
X-70902Y161099D02*
Y159433D01*
X-70569Y159100D01*
X-69902D01*
X-69569Y159433D01*
Y161099D01*
D29*
X-174700Y36250D02*
Y33250D01*
X-173200D01*
X-172701Y33750D01*
Y34250D01*
X-173200Y34750D01*
X-174700D01*
X-173200D01*
X-172701Y35250D01*
Y35750D01*
X-173200Y36250D01*
X-174700D01*
X-171701Y33250D02*
X-170701D01*
X-171201D01*
Y36250D01*
X-171701Y35750D01*
X-73701Y190699D02*
X-74200Y191199D01*
X-75200D01*
X-75700Y190699D01*
Y188700D01*
X-75200Y188200D01*
X-74200D01*
X-73701Y188700D01*
X-72701Y188200D02*
X-71701D01*
X-72201D01*
Y191199D01*
X-72701Y190699D01*
X-89301Y191199D02*
X-89801Y191699D01*
X-90800D01*
X-91300Y191199D01*
Y189200D01*
X-90800Y188700D01*
X-89801D01*
X-89301Y189200D01*
X-86302Y188700D02*
X-88301D01*
X-86302Y190699D01*
Y191199D01*
X-86801Y191699D01*
X-87801D01*
X-88301Y191199D01*
X-38501Y73899D02*
X-39000Y74399D01*
X-40000D01*
X-40500Y73899D01*
Y71900D01*
X-40000Y71400D01*
X-39000D01*
X-38501Y71900D01*
X-35502Y74399D02*
X-36501Y73899D01*
X-37501Y72900D01*
Y71900D01*
X-37001Y71400D01*
X-36001D01*
X-35502Y71900D01*
Y72400D01*
X-36001Y72900D01*
X-37501D01*
X-69201Y111699D02*
X-69700Y112199D01*
X-70700D01*
X-71200Y111699D01*
Y109700D01*
X-70700Y109200D01*
X-69700D01*
X-69201Y109700D01*
X-68201Y109200D02*
X-67201D01*
X-67701D01*
Y112199D01*
X-68201Y111699D01*
X-65702D02*
X-65202Y112199D01*
X-64202D01*
X-63702Y111699D01*
Y109700D01*
X-64202Y109200D01*
X-65202D01*
X-65702Y109700D01*
Y111699D01*
X-136449Y108602D02*
X-135949Y108102D01*
X-134949D01*
X-134450Y108602D01*
Y110601D01*
X-134949Y111101D01*
X-135949D01*
X-136449Y110601D01*
X-137449Y111101D02*
X-138448D01*
X-137948D01*
Y108102D01*
X-137449Y108602D01*
X-139948Y111101D02*
X-140947D01*
X-140447D01*
Y108102D01*
X-139948Y108602D01*
X-128401Y147750D02*
X-128900Y148249D01*
X-129900D01*
X-130400Y147750D01*
Y145750D01*
X-129900Y145250D01*
X-128900D01*
X-128401Y145750D01*
X-127401Y145250D02*
X-126401D01*
X-126901D01*
Y148249D01*
X-127401Y147750D01*
X-122902Y145250D02*
X-124902D01*
X-122902Y147250D01*
Y147750D01*
X-123402Y148249D01*
X-124402D01*
X-124902Y147750D01*
X-138050Y161100D02*
X-138550Y161600D01*
X-139550D01*
X-140050Y161100D01*
Y159101D01*
X-139550Y158601D01*
X-138550D01*
X-138050Y159101D01*
X-137050Y158601D02*
X-136051D01*
X-136551D01*
Y161600D01*
X-137050Y161100D01*
X-134551D02*
X-134051Y161600D01*
X-133052D01*
X-132552Y161100D01*
Y160600D01*
X-133052Y160100D01*
X-133552D01*
X-133052D01*
X-132552Y159601D01*
Y159101D01*
X-133052Y158601D01*
X-134051D01*
X-134551Y159101D01*
X-150299Y164601D02*
X-149800Y164101D01*
X-148800D01*
X-148300Y164601D01*
Y166600D01*
X-148800Y167100D01*
X-149800D01*
X-150299Y166600D01*
X-151299Y167100D02*
X-152299D01*
X-151799D01*
Y164101D01*
X-151299Y164601D01*
X-155798Y164101D02*
X-153798D01*
Y165601D01*
X-154798Y165101D01*
X-155298D01*
X-155798Y165601D01*
Y166600D01*
X-155298Y167100D01*
X-154298D01*
X-153798Y166600D01*
X-179699Y129301D02*
X-179200Y128801D01*
X-178200D01*
X-177700Y129301D01*
Y131300D01*
X-178200Y131800D01*
X-179200D01*
X-179699Y131300D01*
X-180699Y131800D02*
X-181699D01*
X-181199D01*
Y128801D01*
X-180699Y129301D01*
X-185198Y128801D02*
X-184198Y129301D01*
X-183198Y130300D01*
Y131300D01*
X-183698Y131800D01*
X-184698D01*
X-185198Y131300D01*
Y130800D01*
X-184698Y130300D01*
X-183198D01*
X-75150Y127799D02*
X-75650Y128299D01*
X-76650D01*
X-77149Y127799D01*
Y125800D01*
X-76650Y125300D01*
X-75650D01*
X-75150Y125800D01*
X-74151Y125300D02*
X-73151D01*
X-73651D01*
Y128299D01*
X-74151Y127799D01*
X-71651Y128299D02*
X-69652D01*
Y127799D01*
X-71651Y125800D01*
Y125300D01*
X-149601Y119901D02*
X-149101Y120401D01*
Y121400D01*
X-149601Y121900D01*
X-151600D01*
X-152100Y121400D01*
Y120401D01*
X-151600Y119901D01*
X-152100Y118901D02*
Y117901D01*
Y118401D01*
X-149101D01*
X-149601Y118901D01*
X-151600Y116402D02*
X-152100Y115902D01*
Y114902D01*
X-151600Y114402D01*
X-149601D01*
X-149101Y114902D01*
Y115902D01*
X-149601Y116402D01*
X-150101D01*
X-150601Y115902D01*
Y114402D01*
X-49801Y161150D02*
X-50300Y161650D01*
X-51300D01*
X-51800Y161150D01*
Y159150D01*
X-51300Y158651D01*
X-50300D01*
X-49801Y159150D01*
X-48801Y161650D02*
Y158651D01*
Y160150D01*
X-46802D01*
Y161650D01*
Y158651D01*
X-45802D02*
X-44802D01*
X-45302D01*
Y161650D01*
X-45802Y161150D01*
X-49901Y190450D02*
X-50400Y190949D01*
X-51400D01*
X-51900Y190450D01*
Y188450D01*
X-51400Y187951D01*
X-50400D01*
X-49901Y188450D01*
X-48901Y190949D02*
Y187951D01*
Y189450D01*
X-46902D01*
Y190949D01*
Y187951D01*
X-43903D02*
X-45902D01*
X-43903Y189950D01*
Y190450D01*
X-44402Y190949D01*
X-45402D01*
X-45902Y190450D01*
X-64700Y187900D02*
Y190899D01*
X-63200D01*
X-62701Y190399D01*
Y189400D01*
X-63200Y188900D01*
X-64700D01*
X-63700D02*
X-62701Y187900D01*
X-61701D02*
X-60701D01*
X-61201D01*
Y190899D01*
X-61701Y190399D01*
X-16200Y58100D02*
Y61099D01*
X-14701D01*
X-14201Y60599D01*
Y59600D01*
X-14701Y59100D01*
X-16200D01*
X-15200D02*
X-14201Y58100D01*
X-11701D02*
Y61099D01*
X-13201Y59600D01*
X-11202D01*
X-127500Y103600D02*
Y106599D01*
X-126000D01*
X-125501Y106099D01*
Y105099D01*
X-126000Y104600D01*
X-127500D01*
X-126500D02*
X-125501Y103600D01*
X-122502Y106599D02*
X-124501D01*
Y105099D01*
X-123501Y105599D01*
X-123001D01*
X-122502Y105099D01*
Y104100D01*
X-123001Y103600D01*
X-124001D01*
X-124501Y104100D01*
X-139750Y104000D02*
Y106999D01*
X-138250D01*
X-137750Y106499D01*
Y105499D01*
X-138250Y105000D01*
X-139750D01*
X-138750D02*
X-137750Y104000D01*
X-134751Y106999D02*
X-135751Y106499D01*
X-136750Y105499D01*
Y104500D01*
X-136251Y104000D01*
X-135251D01*
X-134751Y104500D01*
Y105000D01*
X-135251Y105499D01*
X-136750D01*
X-159400Y89500D02*
X-156401D01*
Y88001D01*
X-156901Y87501D01*
X-157901D01*
X-158400Y88001D01*
Y89500D01*
Y88500D02*
X-159400Y87501D01*
X-158900Y86501D02*
X-159400Y86001D01*
Y85001D01*
X-158900Y84502D01*
X-156901D01*
X-156401Y85001D01*
Y86001D01*
X-156901Y86501D01*
X-157401D01*
X-157901Y86001D01*
Y84502D01*
X-77300Y103951D02*
Y106949D01*
X-75800D01*
X-75301Y106450D01*
Y105450D01*
X-75800Y104950D01*
X-77300D01*
X-76300D02*
X-75301Y103951D01*
X-74301D02*
X-73301D01*
X-73801D01*
Y106949D01*
X-74301Y106450D01*
X-71802D02*
X-71302Y106949D01*
X-70302D01*
X-69802Y106450D01*
Y104450D01*
X-70302Y103951D01*
X-71302D01*
X-71802Y104450D01*
Y106450D01*
X-143200Y132250D02*
X-146199D01*
Y133750D01*
X-145699Y134250D01*
X-144700D01*
X-144200Y133750D01*
Y132250D01*
Y133250D02*
X-143200Y134250D01*
Y135249D02*
Y136249D01*
Y135749D01*
X-146199D01*
X-145699Y135249D01*
X-143200Y137749D02*
Y138748D01*
Y138249D01*
X-146199D01*
X-145699Y137749D01*
X-179700Y173400D02*
X-182699D01*
Y174899D01*
X-182199Y175399D01*
X-181200D01*
X-180700Y174899D01*
Y173400D01*
Y174400D02*
X-179700Y175399D01*
Y176399D02*
Y177399D01*
Y176899D01*
X-182699D01*
X-182199Y176399D01*
Y178898D02*
X-182699Y179398D01*
Y180398D01*
X-182199Y180898D01*
X-181699D01*
X-181200Y180398D01*
Y179898D01*
Y180398D01*
X-180700Y180898D01*
X-180200D01*
X-179700Y180398D01*
Y179398D01*
X-180200Y178898D01*
X-179300Y182900D02*
X-182299D01*
Y184399D01*
X-181799Y184899D01*
X-180799D01*
X-180300Y184399D01*
Y182900D01*
Y183900D02*
X-179300Y184899D01*
Y185899D02*
Y186899D01*
Y186399D01*
X-182299D01*
X-181799Y185899D01*
X-179300Y189898D02*
X-182299D01*
X-180799Y188398D01*
Y190398D01*
X-67100Y104451D02*
Y107449D01*
X-65600D01*
X-65101Y106950D01*
Y105950D01*
X-65600Y105450D01*
X-67100D01*
X-66100D02*
X-65101Y104451D01*
X-64101D02*
X-63101D01*
X-63601D01*
Y107449D01*
X-64101Y106950D01*
X-59602Y107449D02*
X-61602D01*
Y105950D01*
X-60602Y106450D01*
X-60102D01*
X-59602Y105950D01*
Y104950D01*
X-60102Y104451D01*
X-61102D01*
X-61602Y104950D01*
X-66350Y125300D02*
Y128299D01*
X-64850D01*
X-64350Y127799D01*
Y126799D01*
X-64850Y126300D01*
X-66350D01*
X-65350D02*
X-64350Y125300D01*
X-63350D02*
X-62351D01*
X-62851D01*
Y128299D01*
X-63350Y127799D01*
X-58852Y128299D02*
X-59852Y127799D01*
X-60851Y126799D01*
Y125800D01*
X-60351Y125300D01*
X-59352D01*
X-58852Y125800D01*
Y126300D01*
X-59352Y126799D01*
X-60851D01*
X-152300Y112000D02*
X-149301D01*
Y110501D01*
X-149801Y110001D01*
X-150801D01*
X-151300Y110501D01*
Y112000D01*
Y111000D02*
X-152300Y110001D01*
Y109001D02*
Y108001D01*
Y108501D01*
X-149301D01*
X-149801Y109001D01*
X-149301Y106502D02*
Y104502D01*
X-149801D01*
X-151800Y106502D01*
X-152300D01*
X-152400Y131500D02*
X-149401D01*
Y130000D01*
X-149901Y129501D01*
X-150900D01*
X-151400Y130000D01*
Y131500D01*
Y130500D02*
X-152400Y129501D01*
Y128501D02*
Y127501D01*
Y128001D01*
X-149401D01*
X-149901Y128501D01*
Y126002D02*
X-149401Y125502D01*
Y124502D01*
X-149901Y124002D01*
X-150401D01*
X-150900Y124502D01*
X-151400Y124002D01*
X-151900D01*
X-152400Y124502D01*
Y125502D01*
X-151900Y126002D01*
X-151400D01*
X-150900Y125502D01*
X-150401Y126002D01*
X-149901D01*
X-150900Y125502D02*
Y124502D01*
X-52400Y129150D02*
Y132150D01*
X-50900D01*
X-50401Y131650D01*
Y130650D01*
X-50900Y130150D01*
X-52400D01*
X-51400D02*
X-50401Y129150D01*
X-47402Y132150D02*
X-49401D01*
Y129150D01*
X-47402D01*
X-49401Y130650D02*
X-48401D01*
X-44403Y132150D02*
X-46402D01*
Y130650D01*
X-45402D01*
X-46402D01*
Y129150D01*
X-52800Y99100D02*
Y102099D01*
X-51301D01*
X-50801Y101599D01*
Y100600D01*
X-51301Y100100D01*
X-52800D01*
X-51800D02*
X-50801Y99100D01*
X-49801Y102099D02*
Y99100D01*
X-47802D01*
X-46802D02*
X-45802D01*
X-46302D01*
Y102099D01*
X-46802Y101599D01*
X-103700Y93950D02*
Y91450D01*
X-103200Y90951D01*
X-102200D01*
X-101701Y91450D01*
Y93950D01*
X-100701Y90951D02*
X-99701D01*
X-100201D01*
Y93950D01*
X-100701Y93450D01*
X-154301Y73149D02*
X-154800Y73649D01*
X-155800D01*
X-156300Y73149D01*
Y71149D01*
X-155800Y70649D01*
X-154800D01*
X-154301Y71149D01*
X-153301Y70649D02*
X-152301D01*
X-152801D01*
Y73649D01*
X-153301Y73149D01*
X-149302Y70649D02*
Y73649D01*
X-150802Y72149D01*
X-148802D01*
X-61000Y69100D02*
Y72099D01*
X-59500D01*
X-59001Y71599D01*
Y70600D01*
X-59500Y70100D01*
X-61000D01*
X-60000D02*
X-59001Y69100D01*
X-58001Y72099D02*
X-56002D01*
Y71599D01*
X-58001Y69600D01*
Y69100D01*
X-70700Y69000D02*
Y71999D01*
X-69200D01*
X-68701Y71499D01*
Y70499D01*
X-69200Y70000D01*
X-70700D01*
X-69700D02*
X-68701Y69000D01*
X-67701Y71499D02*
X-67201Y71999D01*
X-66201D01*
X-65702Y71499D01*
Y70999D01*
X-66201Y70499D01*
X-65702Y70000D01*
Y69500D01*
X-66201Y69000D01*
X-67201D01*
X-67701Y69500D01*
Y70000D01*
X-67201Y70499D01*
X-67701Y70999D01*
Y71499D01*
X-67201Y70499D02*
X-66201D01*
X-93600Y67800D02*
Y70799D01*
X-92101D01*
X-91601Y70299D01*
Y69300D01*
X-92101Y68800D01*
X-93600D01*
X-92600D02*
X-91601Y67800D01*
X-90601Y70299D02*
X-90101Y70799D01*
X-89101D01*
X-88602Y70299D01*
Y69799D01*
X-89101Y69300D01*
X-89601D01*
X-89101D01*
X-88602Y68800D01*
Y68300D01*
X-89101Y67800D01*
X-90101D01*
X-90601Y68300D01*
M02*
