M48
;Layer_Color=9474304
;FILE_FORMAT=2:5
INCH,LZ
;TYPE=PLATED
T1F00S00C0.01500
T2F00S00C0.03150
T3F00S00C0.04724
T4F00S00C0.06299
T5F00S00C0.07480
%
T01
X-01011Y0071351
X-00951Y0072451
X-00741
X-006095Y0075551
X-00207Y0059451
X-0123851Y0071551
X-0121001Y00752
X-014625Y00715
X-01881Y007405
X-019135Y0068
X-014085Y007825
X-015155Y009475
X-01464Y01023
X-0146351Y012885
X-015105Y014
Y0148
X-0146351Y0163
X-014625Y0183651
X-013785Y0192
X-0191451Y019235
X-019135Y013885
X-005685Y01635
X-0048Y01032
T02
X-0100601Y00521
X-0100305Y00628
X-0088494
X-0087599Y00521
X-00774Y0051699
X-00681Y0051745
X-00576Y0051845
Y0063656
X-00681Y0063556
X-00774Y0064701
X-00478Y0064549
X-0045501Y005185
X-0032499
X-0020706Y00529
X-0008895
X-01418Y0051849
X-01525Y0052199
Y0065201
X-01418Y0064852
X-01888Y0035451
X-018035Y0021452
Y0008449
X-0177752Y007765
X-0177156Y008695
X-0177256Y0096351
X-0165445
X-0165345Y008695
X-0164749Y007765
X-01378Y0086395
X-01268Y0086194
Y0098005
X-01378Y0098206
X-0139601Y0116951
X-0126599
X-012685Y0128049
X-013755Y0128745
Y0140556
X-012685Y0141052
X-0126399Y015305
X-0139401
X-012985Y0171594
Y0183405
X-01528Y01723
X-0161995Y01766
X-0161895Y01863
X-0173705
X-0173805Y01766
X-0174601Y01669
X-0161599
X-0184Y016155
X-01812Y0151152
Y0138149
X-0170056Y0127951
X-0170652Y0118251
X-0169956Y0108551
X-0158145
X-0157649Y0118251
X-0158245Y0127951
X-01806Y0110351
X-011647Y0114951
Y010495
Y009495
Y0084951
X-0083951
X-0074351Y0085145
X-0064051
Y0096956
X-0074351
X-0083951Y009495
Y010495
Y0114951
Y0124951
Y013495
Y014495
Y015495
X-0073Y0146201
X-0063Y0145806
Y0133994
X-0073Y0133199
X-0073601Y011735
X-0060599
X-00649Y01566
X-006375Y0170594
X-007355Y0169699
Y0182701
X-006375Y0182405
X-0096799Y0188951
X-0109801
X-01201Y0183152
Y0170149
X-011647Y015495
Y014495
Y013495
Y0124951
X-00478Y0077552
T03
X-0008502Y000885
X-0157399
T04
X-0008021Y0081511
Y010159
X-0008221Y0110611
Y013069
X-0008121Y0139811
Y015989
X-0008221Y0169011
Y018909
T05
X-0048179Y0091747
X-0048379Y0120847
X-0048279Y0150047
X-0048379Y0179247
M30
